%TF.GenerationSoftware,KiCad,Pcbnew,7.0.11-2.fc39*%
%TF.CreationDate,2024-03-17T16:29:43+01:00*%
%TF.ProjectId,mini-pcie-m.2-key-m-adapter,6d696e69-2d70-4636-9965-2d6d2e322d6b,rev?*%
%TF.SameCoordinates,Original*%
%TF.FileFunction,Copper,L1,Top*%
%TF.FilePolarity,Positive*%
%FSLAX46Y46*%
G04 Gerber Fmt 4.6, Leading zero omitted, Abs format (unit mm)*
G04 Created by KiCad (PCBNEW 7.0.11-2.fc39) date 2024-03-17 16:29:43*
%MOMM*%
%LPD*%
G01*
G04 APERTURE LIST*
G04 Aperture macros list*
%AMRoundRect*
0 Rectangle with rounded corners*
0 $1 Rounding radius*
0 $2 $3 $4 $5 $6 $7 $8 $9 X,Y pos of 4 corners*
0 Add a 4 corners polygon primitive as box body*
4,1,4,$2,$3,$4,$5,$6,$7,$8,$9,$2,$3,0*
0 Add four circle primitives for the rounded corners*
1,1,$1+$1,$2,$3*
1,1,$1+$1,$4,$5*
1,1,$1+$1,$6,$7*
1,1,$1+$1,$8,$9*
0 Add four rect primitives between the rounded corners*
20,1,$1+$1,$2,$3,$4,$5,0*
20,1,$1+$1,$4,$5,$6,$7,0*
20,1,$1+$1,$6,$7,$8,$9,0*
20,1,$1+$1,$8,$9,$2,$3,0*%
G04 Aperture macros list end*
%TA.AperFunction,EtchedComponent*%
%ADD10C,0.500000*%
%TD*%
%TA.AperFunction,SMDPad,CuDef*%
%ADD11R,0.600000X2.350000*%
%TD*%
%TA.AperFunction,ComponentPad*%
%ADD12C,5.000000*%
%TD*%
%TA.AperFunction,SMDPad,CuDef*%
%ADD13R,0.300000X1.550000*%
%TD*%
%TA.AperFunction,SMDPad,CuDef*%
%ADD14R,1.200000X2.700000*%
%TD*%
%TA.AperFunction,SMDPad,CuDef*%
%ADD15RoundRect,0.225000X0.250000X-0.225000X0.250000X0.225000X-0.250000X0.225000X-0.250000X-0.225000X0*%
%TD*%
%TA.AperFunction,ViaPad*%
%ADD16C,0.450000*%
%TD*%
%TA.AperFunction,Conductor*%
%ADD17C,0.200000*%
%TD*%
%TA.AperFunction,Conductor*%
%ADD18C,0.250000*%
%TD*%
%TA.AperFunction,Conductor*%
%ADD19C,0.127000*%
%TD*%
%TA.AperFunction,Conductor*%
%ADD20C,0.090000*%
%TD*%
G04 APERTURE END LIST*
%TO.C,REF\u002A\u002A*%
D10*
X95250000Y-75000000D02*
G75*
G03*
X94750000Y-75000000I-250000J0D01*
G01*
X94750000Y-75000000D02*
G75*
G03*
X95250000Y-75000000I250000J0D01*
G01*
X32950000Y6825000D02*
G75*
G03*
X32450000Y6825000I-250000J0D01*
G01*
X32450000Y6825000D02*
G75*
G03*
X32950000Y6825000I250000J0D01*
G01*
X32950000Y-75000000D02*
G75*
G03*
X32450000Y-75000000I-250000J0D01*
G01*
X32450000Y-75000000D02*
G75*
G03*
X32950000Y-75000000I250000J0D01*
G01*
X95250000Y6824999D02*
G75*
G03*
X94750000Y6824999I-250000J0D01*
G01*
X94750000Y6824999D02*
G75*
G03*
X95250000Y6824999I250000J0D01*
G01*
%TD*%
D11*
%TO.P,J1,1,~{WAKE}*%
%TO.N,/~{WAKE}*%
X52050000Y-78625000D03*
%TO.P,J1,3,COEX1*%
%TO.N,unconnected-(J1-Pad3)*%
X52850000Y-78625000D03*
%TO.P,J1,5,COEX2*%
%TO.N,unconnected-(J1-Pad5)*%
X53650000Y-78625000D03*
%TO.P,J1,7,~{CLKREQ}*%
%TO.N,/~{REQ}*%
X54450000Y-78625000D03*
%TO.P,J1,9,GND*%
%TO.N,GND*%
X55250000Y-78625000D03*
%TO.P,J1,11,REF_CLK-*%
%TO.N,/CLK-*%
X56050000Y-78625000D03*
%TO.P,J1,13,REF_CLK+*%
%TO.N,/CLK+*%
X56850000Y-78625000D03*
%TO.P,J1,15,GND*%
%TO.N,GND*%
X57650000Y-78625000D03*
%TO.P,J1,17,UIM_C8_RSV*%
%TO.N,unconnected-(J1-Pad17)*%
X61650000Y-78625000D03*
%TO.P,J1,19,UIM_C4_RSV*%
%TO.N,unconnected-(J1-Pad19)*%
X62450000Y-78625000D03*
%TO.P,J1,21,GND*%
%TO.N,GND*%
X63250000Y-78625000D03*
%TO.P,J1,23,PERn0*%
%TO.N,/RX-*%
X64050000Y-78625000D03*
%TO.P,J1,25,PERp0*%
%TO.N,/RX+*%
X64850000Y-78625000D03*
%TO.P,J1,27,GND*%
%TO.N,GND*%
X65650000Y-78625000D03*
%TO.P,J1,29,GND*%
X66450000Y-78625000D03*
%TO.P,J1,31,PETn0*%
%TO.N,/TX-*%
X67250000Y-78625000D03*
%TO.P,J1,33,PETp0*%
%TO.N,/TX+*%
X68050000Y-78625000D03*
%TO.P,J1,35,GND*%
%TO.N,GND*%
X68850000Y-78625000D03*
%TO.P,J1,37,GND*%
X69650000Y-78625000D03*
%TO.P,J1,39,+3.3Vaux*%
%TO.N,+3V3*%
X70450000Y-78625000D03*
%TO.P,J1,41,+3.3Vaux*%
X71250000Y-78625000D03*
%TO.P,J1,43,GND*%
%TO.N,GND*%
X72050000Y-78625000D03*
%TO.P,J1,45,Reserved*%
%TO.N,unconnected-(J1-Pad45)*%
X72850000Y-78625000D03*
%TO.P,J1,47,Reserved*%
%TO.N,unconnected-(J1-Pad47)*%
X73650000Y-78625000D03*
%TO.P,J1,49,Reserved*%
%TO.N,unconnected-(J1-Pad49)*%
X74450000Y-78625000D03*
%TO.P,J1,51,Reserved*%
%TO.N,unconnected-(J1-Pad51)*%
X75250000Y-78625000D03*
%TD*%
D12*
%TO.P,,1,1*%
%TO.N,GND*%
X63875000Y-41175000D03*
%TD*%
%TO.P,,1,1*%
%TO.N,GND*%
X63875000Y-29175000D03*
%TD*%
%TO.P,,1,1*%
%TO.N,GND*%
X63875000Y-11175000D03*
%TD*%
%TO.P,,1,1*%
%TO.N,GND*%
X63875000Y8825000D03*
%TD*%
D13*
%TO.P,J2,1,GND*%
%TO.N,GND*%
X73130000Y-74700000D03*
%TO.P,J2,2,3.3V*%
%TO.N,+3V3*%
X72880000Y-67150000D03*
%TO.P,J2,3,GND*%
%TO.N,GND*%
X72630000Y-74700000D03*
%TO.P,J2,4,3.3V*%
%TO.N,+3V3*%
X72380000Y-67150000D03*
%TO.P,J2,5,PERn3*%
%TO.N,unconnected-(J2-Pad5)*%
X72130000Y-74700000D03*
%TO.P,J2,6,NC*%
%TO.N,unconnected-(J2-Pad6)*%
X71880000Y-67150000D03*
%TO.P,J2,7,PERp3*%
%TO.N,unconnected-(J2-Pad7)*%
X71630000Y-74700000D03*
%TO.P,J2,8,NC*%
%TO.N,unconnected-(J2-Pad8)*%
X71380000Y-67150000D03*
%TO.P,J2,9,GND*%
%TO.N,GND*%
X71130000Y-74700000D03*
%TO.P,J2,10,DAS/~{DSS}/~{LED1}*%
%TO.N,/~{LED}*%
X70880000Y-67150000D03*
%TO.P,J2,11,PETn3*%
%TO.N,unconnected-(J2-Pad11)*%
X70630000Y-74700000D03*
%TO.P,J2,12,3.3V*%
%TO.N,+3V3*%
X70380000Y-67150000D03*
%TO.P,J2,13,PETp3*%
%TO.N,unconnected-(J2-Pad13)*%
X70130000Y-74700000D03*
%TO.P,J2,14,3.3V*%
%TO.N,+3V3*%
X69880000Y-67150000D03*
%TO.P,J2,15,GND*%
%TO.N,GND*%
X69630000Y-74700000D03*
%TO.P,J2,16,3.3V*%
%TO.N,+3V3*%
X69380000Y-67150000D03*
%TO.P,J2,17,PERn2*%
%TO.N,unconnected-(J2-Pad17)*%
X69130000Y-74700000D03*
%TO.P,J2,18,3.3V*%
%TO.N,+3V3*%
X68880000Y-67150000D03*
%TO.P,J2,19,PERp2*%
%TO.N,unconnected-(J2-Pad19)*%
X68630000Y-74700000D03*
%TO.P,J2,20,NC*%
%TO.N,unconnected-(J2-Pad20)*%
X68380000Y-67150000D03*
%TO.P,J2,21,GND*%
%TO.N,GND*%
X68130000Y-74700000D03*
%TO.P,J2,22,NC*%
%TO.N,unconnected-(J2-Pad22)*%
X67880000Y-67150000D03*
%TO.P,J2,23,PETn2*%
%TO.N,unconnected-(J2-Pad23)*%
X67630000Y-74700000D03*
%TO.P,J2,24,NC*%
%TO.N,unconnected-(J2-Pad24)*%
X67380000Y-67150000D03*
%TO.P,J2,25,PETp2*%
%TO.N,unconnected-(J2-Pad25)*%
X67130000Y-74700000D03*
%TO.P,J2,26,NC*%
%TO.N,unconnected-(J2-Pad26)*%
X66880000Y-67150000D03*
%TO.P,J2,27,GND*%
%TO.N,GND*%
X66630000Y-74700000D03*
%TO.P,J2,28,NC*%
%TO.N,unconnected-(J2-Pad28)*%
X66380000Y-67150000D03*
%TO.P,J2,29,PERn1*%
%TO.N,unconnected-(J2-Pad29)*%
X66130000Y-74700000D03*
%TO.P,J2,30,NC*%
%TO.N,unconnected-(J2-Pad30)*%
X65880000Y-67150000D03*
%TO.P,J2,31,PERp1*%
%TO.N,unconnected-(J2-Pad31)*%
X65630000Y-74700000D03*
%TO.P,J2,32,NC*%
%TO.N,unconnected-(J2-Pad32)*%
X65380000Y-67150000D03*
%TO.P,J2,33,GND*%
%TO.N,GND*%
X65130000Y-74700000D03*
%TO.P,J2,34,NC*%
%TO.N,unconnected-(J2-Pad34)*%
X64880000Y-67150000D03*
%TO.P,J2,35,PETn1*%
%TO.N,unconnected-(J2-Pad35)*%
X64630000Y-74700000D03*
%TO.P,J2,36,NC*%
%TO.N,unconnected-(J2-Pad36)*%
X64380000Y-67150000D03*
%TO.P,J2,37,PETp1*%
%TO.N,unconnected-(J2-Pad37)*%
X64130000Y-74700000D03*
%TO.P,J2,38,DEVSLP*%
%TO.N,unconnected-(J2-Pad38)*%
X63880000Y-67150000D03*
%TO.P,J2,39,GND*%
%TO.N,GND*%
X63630000Y-74700000D03*
%TO.P,J2,40,NC*%
%TO.N,unconnected-(J2-Pad40)*%
X63380000Y-67150000D03*
%TO.P,J2,41,PERn0/SATA-B+*%
%TO.N,/RX+*%
X63130000Y-74700000D03*
%TO.P,J2,42,NC*%
%TO.N,unconnected-(J2-Pad42)*%
X62880000Y-67150000D03*
%TO.P,J2,43,PERp0/SATA-B-*%
%TO.N,/RX-*%
X62630000Y-74700000D03*
%TO.P,J2,44,NC*%
%TO.N,unconnected-(J2-Pad44)*%
X62380000Y-67150000D03*
%TO.P,J2,45,GND*%
%TO.N,GND*%
X62130000Y-74700000D03*
%TO.P,J2,46,NC*%
%TO.N,unconnected-(J2-Pad46)*%
X61880000Y-67150000D03*
%TO.P,J2,47,PETn0/SATA-A-*%
%TO.N,/TX-*%
X61630000Y-74700000D03*
%TO.P,J2,48,NC*%
%TO.N,unconnected-(J2-Pad48)*%
X61380000Y-67150000D03*
%TO.P,J2,49,PETp0/SATA-A+*%
%TO.N,/TX+*%
X61130000Y-74700000D03*
%TO.P,J2,50,~{PERST}*%
%TO.N,/~{RST}*%
X60880000Y-67150000D03*
%TO.P,J2,51,GND*%
%TO.N,GND*%
X60630000Y-74700000D03*
%TO.P,J2,52,~{CLKREQ}*%
%TO.N,/~{REQ}*%
X60380000Y-67150000D03*
%TO.P,J2,53,REFCLKn*%
%TO.N,/CLK-*%
X60130000Y-74700000D03*
%TO.P,J2,54,~{PEWAKE}*%
%TO.N,/~{WAKE}*%
X59880000Y-67150000D03*
%TO.P,J2,55,REFCLKp*%
%TO.N,/CLK+*%
X59630000Y-74700000D03*
%TO.P,J2,56,NC*%
%TO.N,unconnected-(J2-Pad56)*%
X59380000Y-67150000D03*
%TO.P,J2,57,GND*%
%TO.N,GND*%
X59130000Y-74700000D03*
%TO.P,J2,58,NC*%
%TO.N,unconnected-(J2-Pad58)*%
X58880000Y-67150000D03*
%TO.P,J2,59*%
%TO.N,N/C*%
X58630000Y-74700000D03*
%TO.P,J2,60*%
X58380000Y-67150000D03*
%TO.P,J2,61*%
X58130000Y-74700000D03*
%TO.P,J2,62*%
X57880000Y-67150000D03*
%TO.P,J2,63*%
X57630000Y-74700000D03*
%TO.P,J2,64*%
X57380000Y-67150000D03*
%TO.P,J2,65*%
X57130000Y-74700000D03*
%TO.P,J2,66*%
X56880000Y-67150000D03*
%TO.P,J2,67,NC*%
%TO.N,unconnected-(J2-Pad67)*%
X56630000Y-74700000D03*
%TO.P,J2,68,SUSCLK*%
%TO.N,unconnected-(J2-Pad68)*%
X56380000Y-67150000D03*
%TO.P,J2,69,PEDET*%
%TO.N,unconnected-(J2-Pad69)*%
X56130000Y-74700000D03*
%TO.P,J2,70,3.3V*%
%TO.N,+3V3*%
X55880000Y-67150000D03*
%TO.P,J2,71,GND*%
%TO.N,GND*%
X55630000Y-74700000D03*
%TO.P,J2,72,3.3V*%
%TO.N,+3V3*%
X55380000Y-67150000D03*
%TO.P,J2,73,GND*%
%TO.N,GND*%
X55130000Y-74700000D03*
%TO.P,J2,74,3.3V*%
%TO.N,+3V3*%
X54880000Y-67150000D03*
%TO.P,J2,75,GND*%
%TO.N,GND*%
X54630000Y-74700000D03*
D14*
%TO.P,J2,MP*%
X53530000Y-73925000D03*
X74230000Y-73925000D03*
%TD*%
D15*
%TO.P,C2,1*%
%TO.N,+3V3*%
X76750000Y-75175000D03*
%TO.P,C2,2*%
%TO.N,GND*%
X76750000Y-73625000D03*
%TD*%
%TO.P,C1,1*%
%TO.N,+3V3*%
X50650000Y-74850000D03*
%TO.P,C1,2*%
%TO.N,GND*%
X50650000Y-73300000D03*
%TD*%
D16*
%TO.N,GND*%
X55100000Y-75850000D03*
X53550000Y-72200000D03*
X69100000Y-76700000D03*
X53250000Y-76950000D03*
X61450000Y-76050000D03*
X74250000Y-75650000D03*
X50650000Y-72475000D03*
X55650000Y-73550000D03*
X68550000Y-73300000D03*
X65150000Y-75850000D03*
X66200000Y-76800000D03*
X52550000Y-73900000D03*
X71800000Y-76100000D03*
X75950000Y-73650000D03*
X54650000Y-73550000D03*
X66400000Y-76150000D03*
X58550000Y-75950000D03*
X65350000Y-76750000D03*
X63650000Y-73550000D03*
X76750000Y-72850000D03*
X53550000Y-75650000D03*
X71150000Y-73550000D03*
X70000000Y-76700000D03*
X74200000Y-72250000D03*
X74250000Y-76950000D03*
X75200000Y-73900000D03*
X57650000Y-76950000D03*
X72600000Y-73550000D03*
X69600000Y-73550000D03*
X73150000Y-75850000D03*
X77600000Y-73600000D03*
X62550000Y-73450000D03*
X62550000Y-76850000D03*
X55250000Y-76950000D03*
X61450000Y-76700000D03*
%TO.N,/TX-*%
X67275000Y-76515678D03*
X66834834Y-73265166D03*
%TO.N,/TX+*%
X68025000Y-76515678D03*
X67365166Y-72734834D03*
%TO.N,+3V3*%
X72900000Y-68300000D03*
X72400000Y-66000000D03*
X70750000Y-76700000D03*
X52450000Y-76950000D03*
X69900000Y-66000000D03*
X70400000Y-68250000D03*
X71500000Y-76700000D03*
X54900000Y-68300000D03*
X75900000Y-75200000D03*
X64350000Y-75950000D03*
X75650000Y-76700000D03*
X76750000Y-76000000D03*
X77600000Y-75150000D03*
X69400000Y-68250000D03*
X68900000Y-66000000D03*
X55400000Y-66000000D03*
X50650000Y-75675000D03*
X55900000Y-68300000D03*
%TO.N,/CLK+*%
X57465166Y-73265166D03*
X56825000Y-76300000D03*
%TO.N,/CLK-*%
X56075000Y-76300000D03*
X56934834Y-72734834D03*
%TO.N,/~{RST}*%
X60650000Y-71650000D03*
%TO.N,/~{LED}*%
X71900000Y-73050000D03*
%TD*%
D17*
%TO.N,/TX-*%
X65911500Y-72858500D02*
X65911500Y-73003228D01*
X65584500Y-73003228D02*
X65584500Y-72858500D01*
X65584472Y-73003228D02*
G75*
G03*
X65748000Y-73166728I163528J28D01*
G01*
X66512157Y-72695000D02*
X66075000Y-72695000D01*
X65748000Y-73166700D02*
G75*
G03*
X65911500Y-73003228I0J163500D01*
G01*
X66834834Y-73017677D02*
X66512157Y-72695000D01*
X64930500Y-72858500D02*
G75*
G03*
X64767000Y-72695000I-163500J0D01*
G01*
X64930472Y-73003228D02*
G75*
G03*
X65094000Y-73166728I163528J28D01*
G01*
X65421000Y-72695000D02*
G75*
G03*
X65257500Y-72858500I0J-163500D01*
G01*
X66834834Y-73265166D02*
X66834834Y-73017677D01*
X65584500Y-72858500D02*
G75*
G03*
X65421000Y-72695000I-163500J0D01*
G01*
X65094000Y-73166700D02*
G75*
G03*
X65257500Y-73003228I0J163500D01*
G01*
X64930500Y-73003228D02*
X64930500Y-72858500D01*
X66075000Y-72695000D02*
G75*
G03*
X65911500Y-72858500I0J-163500D01*
G01*
X65257500Y-72858500D02*
X65257500Y-73003228D01*
X64767000Y-72695000D02*
X63910856Y-72695000D01*
X63910856Y-72695000D02*
X62127844Y-72695000D01*
X62127844Y-72695000D02*
X61580000Y-73242844D01*
X61580000Y-73242844D02*
X61580000Y-74025000D01*
X61580000Y-74025000D02*
X61630000Y-74075000D01*
X61630000Y-74075000D02*
X61630000Y-74700000D01*
%TO.N,/TX+*%
X61962156Y-72295000D02*
X61180000Y-73077156D01*
X66677843Y-72295000D02*
X61962156Y-72295000D01*
X61130000Y-74075000D02*
X61130000Y-74700000D01*
X61180000Y-74025000D02*
X61130000Y-74075000D01*
X67117677Y-72734834D02*
X66677843Y-72295000D01*
X61180000Y-73077156D02*
X61180000Y-74025000D01*
X67365166Y-72734834D02*
X67117677Y-72734834D01*
X68050000Y-78625000D02*
X68050000Y-77750000D01*
X68050000Y-77750000D02*
X67850000Y-77550000D01*
%TO.N,/TX-*%
X67250000Y-78625000D02*
X67250000Y-77750000D01*
%TO.N,/TX+*%
X67850000Y-77550000D02*
X67850000Y-76690678D01*
X67850000Y-76690678D02*
X68025000Y-76515678D01*
%TO.N,/TX-*%
X67250000Y-77750000D02*
X67450000Y-77550000D01*
X67450000Y-77550000D02*
X67450000Y-76690678D01*
X67450000Y-76690678D02*
X67275000Y-76515678D01*
%TO.N,/RX-*%
X64250000Y-77322844D02*
X64250000Y-77550000D01*
X64250000Y-77550000D02*
X64050000Y-77750000D01*
%TO.N,/RX+*%
X63130000Y-75325000D02*
X63080000Y-75375000D01*
%TO.N,/RX-*%
X62680000Y-75752844D02*
X64250000Y-77322844D01*
X62630000Y-75325000D02*
X62680000Y-75375000D01*
%TO.N,/RX+*%
X64850000Y-77750000D02*
X64850000Y-78625000D01*
X64650000Y-77550000D02*
X64850000Y-77750000D01*
X64650000Y-77157156D02*
X64650000Y-77550000D01*
%TO.N,/RX-*%
X62680000Y-75375000D02*
X62680000Y-75752844D01*
%TO.N,/RX+*%
X63080000Y-75375000D02*
X63080000Y-75587156D01*
%TO.N,/RX-*%
X62630000Y-74700000D02*
X62630000Y-75325000D01*
%TO.N,/RX+*%
X63130000Y-74700000D02*
X63130000Y-75325000D01*
X63080000Y-75587156D02*
X64650000Y-77157156D01*
%TO.N,/RX-*%
X64050000Y-77750000D02*
X64050000Y-78625000D01*
%TO.N,/CLK-*%
X59315631Y-72265000D02*
X57652157Y-72265000D01*
%TO.N,/CLK+*%
X57465166Y-73017677D02*
X57465166Y-73265166D01*
%TO.N,/CLK-*%
X60080000Y-74025000D02*
X60080000Y-73029369D01*
%TO.N,/CLK+*%
X57817843Y-72665000D02*
X57465166Y-73017677D01*
%TO.N,/CLK-*%
X60080000Y-73029369D02*
X59315631Y-72265000D01*
%TO.N,/CLK+*%
X59680000Y-73195057D02*
X59149943Y-72665000D01*
%TO.N,/CLK-*%
X60130000Y-74075000D02*
X60080000Y-74025000D01*
X60130000Y-74700000D02*
X60130000Y-74075000D01*
%TO.N,/CLK+*%
X59680000Y-74025000D02*
X59680000Y-73195057D01*
X59630000Y-74700000D02*
X59630000Y-74075000D01*
%TO.N,/CLK-*%
X57652157Y-72265000D02*
X57182323Y-72734834D01*
%TO.N,/CLK+*%
X59149943Y-72665000D02*
X57817843Y-72665000D01*
X59630000Y-74075000D02*
X59680000Y-74025000D01*
%TO.N,/CLK-*%
X57182323Y-72734834D02*
X56934834Y-72734834D01*
%TO.N,/CLK+*%
X56850000Y-77750000D02*
X56650000Y-77550000D01*
X56650000Y-77550000D02*
X56650000Y-77168444D01*
%TO.N,/CLK-*%
X56050000Y-77750000D02*
X56250000Y-77550000D01*
X56250000Y-77550000D02*
X56250000Y-77168444D01*
%TO.N,/CLK+*%
X56825000Y-76300000D02*
X56650000Y-76475000D01*
X56650000Y-76475000D02*
X56650000Y-77168444D01*
%TO.N,/CLK-*%
X56075000Y-76300000D02*
X56250000Y-76475000D01*
X56250000Y-76475000D02*
X56250000Y-77168444D01*
D18*
%TO.N,GND*%
X76750000Y-73625000D02*
X75975000Y-73625000D01*
X54630000Y-74700000D02*
X54630000Y-73570000D01*
X65650000Y-78625000D02*
X65650000Y-77050000D01*
X76750000Y-73625000D02*
X77575000Y-73625000D01*
X71130000Y-74700000D02*
X71130000Y-73570000D01*
X68130000Y-73720000D02*
X68550000Y-73300000D01*
X55250000Y-78625000D02*
X55250000Y-76950000D01*
X69650000Y-77050000D02*
X70000000Y-76700000D01*
X53530000Y-75630000D02*
X53550000Y-75650000D01*
X53530000Y-73925000D02*
X53530000Y-75630000D01*
X72050000Y-78625000D02*
X72050000Y-76350000D01*
X66450000Y-77050000D02*
X66200000Y-76800000D01*
X69650000Y-78625000D02*
X69650000Y-77050000D01*
X55630000Y-74700000D02*
X55630000Y-73570000D01*
X74230000Y-73925000D02*
X74230000Y-75630000D01*
X53530000Y-72220000D02*
X53550000Y-72200000D01*
X73130000Y-74700000D02*
X73130000Y-75830000D01*
X65130000Y-75830000D02*
X65150000Y-75850000D01*
X72050000Y-76350000D02*
X71800000Y-76100000D01*
X55130000Y-74700000D02*
X55130000Y-75820000D01*
X53530000Y-73925000D02*
X53530000Y-72220000D01*
X50650000Y-73300000D02*
X50650000Y-72475000D01*
X62130000Y-73870000D02*
X62550000Y-73450000D01*
X68130000Y-74700000D02*
X68130000Y-73720000D01*
X58850000Y-75800000D02*
X58700000Y-75950000D01*
X66630000Y-74700000D02*
X66630000Y-75920000D01*
X76750000Y-73625000D02*
X76750000Y-72850000D01*
X65130000Y-74700000D02*
X65130000Y-75830000D01*
X73130000Y-75830000D02*
X73150000Y-75850000D01*
X63630000Y-73570000D02*
X63650000Y-73550000D01*
X68850000Y-78625000D02*
X68850000Y-76950000D01*
D19*
X61250000Y-76050000D02*
X61450000Y-76050000D01*
D18*
X57650000Y-78625000D02*
X57650000Y-76950000D01*
X72630000Y-74700000D02*
X72630000Y-73580000D01*
X66630000Y-75920000D02*
X66400000Y-76150000D01*
X63250000Y-77550000D02*
X62550000Y-76850000D01*
X53530000Y-73925000D02*
X52575000Y-73925000D01*
X63250000Y-78625000D02*
X63250000Y-77550000D01*
X65650000Y-77050000D02*
X65350000Y-76750000D01*
X71130000Y-73570000D02*
X71150000Y-73550000D01*
X62130000Y-74700000D02*
X62130000Y-73870000D01*
X63630000Y-74700000D02*
X63630000Y-73570000D01*
D19*
X60950000Y-75750000D02*
X61250000Y-76050000D01*
D18*
X66450000Y-78625000D02*
X66450000Y-77050000D01*
X72630000Y-73580000D02*
X72600000Y-73550000D01*
D19*
X60630000Y-74700000D02*
X60630000Y-75430000D01*
X60630000Y-75430000D02*
X60950000Y-75750000D01*
D18*
X52575000Y-73925000D02*
X52550000Y-73900000D01*
X54630000Y-73570000D02*
X54650000Y-73550000D01*
X77575000Y-73625000D02*
X77600000Y-73600000D01*
X75175000Y-73925000D02*
X75200000Y-73900000D01*
X74230000Y-73925000D02*
X75175000Y-73925000D01*
X68850000Y-76950000D02*
X69100000Y-76700000D01*
X58700000Y-75950000D02*
X58550000Y-75950000D01*
X74230000Y-75630000D02*
X74250000Y-75650000D01*
X69630000Y-74700000D02*
X69630000Y-73580000D01*
X55630000Y-73570000D02*
X55650000Y-73550000D01*
X74230000Y-73925000D02*
X74230000Y-72280000D01*
X75975000Y-73625000D02*
X75950000Y-73650000D01*
X59130000Y-75520000D02*
X58850000Y-75800000D01*
X74230000Y-72280000D02*
X74200000Y-72250000D01*
X55130000Y-75820000D02*
X55100000Y-75850000D01*
X59130000Y-74700000D02*
X59130000Y-75520000D01*
X69630000Y-73580000D02*
X69600000Y-73550000D01*
%TO.N,+3V3*%
X54880000Y-67150000D02*
X54880000Y-68280000D01*
X76750000Y-75175000D02*
X76750000Y-76000000D01*
X72880000Y-67150000D02*
X72880000Y-68280000D01*
X68880000Y-67150000D02*
X68880000Y-66020000D01*
X69880000Y-66020000D02*
X69900000Y-66000000D01*
X70450000Y-78625000D02*
X70450000Y-77000000D01*
X55880000Y-67150000D02*
X55880000Y-68280000D01*
X72380000Y-66020000D02*
X72400000Y-66000000D01*
X69380000Y-67150000D02*
X69380000Y-68230000D01*
X70380000Y-68230000D02*
X70400000Y-68250000D01*
X69380000Y-68230000D02*
X69400000Y-68250000D01*
X70450000Y-77000000D02*
X70750000Y-76700000D01*
X54880000Y-68280000D02*
X54900000Y-68300000D01*
X75925000Y-75175000D02*
X75900000Y-75200000D01*
X72380000Y-67150000D02*
X72380000Y-66020000D01*
X55380000Y-66020000D02*
X55400000Y-66000000D01*
X71250000Y-76950000D02*
X71500000Y-76700000D01*
X55880000Y-68280000D02*
X55900000Y-68300000D01*
X55380000Y-67150000D02*
X55380000Y-66020000D01*
X76750000Y-75175000D02*
X75925000Y-75175000D01*
X71250000Y-78625000D02*
X71250000Y-76950000D01*
X77575000Y-75175000D02*
X77600000Y-75150000D01*
X76750000Y-75175000D02*
X77575000Y-75175000D01*
X69880000Y-67150000D02*
X69880000Y-66020000D01*
X72880000Y-68280000D02*
X72900000Y-68300000D01*
X70380000Y-67150000D02*
X70380000Y-68230000D01*
X68880000Y-66020000D02*
X68900000Y-66000000D01*
X50650000Y-74850000D02*
X50650000Y-75675000D01*
D20*
%TO.N,/CLK+*%
X56850000Y-78625000D02*
X56850000Y-77750000D01*
X59630000Y-74700000D02*
X59685000Y-74645000D01*
X56850000Y-77750000D02*
X56645000Y-77545000D01*
%TO.N,/CLK-*%
X60130000Y-74700000D02*
X60075000Y-74645000D01*
X56050000Y-77750000D02*
X56255000Y-77545000D01*
X56050000Y-78625000D02*
X56050000Y-77750000D01*
D19*
%TO.N,/~{REQ}*%
X57800000Y-70900000D02*
X52725000Y-70900000D01*
X60380000Y-68320000D02*
X57800000Y-70900000D01*
X52725000Y-70900000D02*
X52050000Y-71575000D01*
X52050000Y-71575000D02*
X52050000Y-75450000D01*
X54450000Y-76900000D02*
X54450000Y-78625000D01*
X52050000Y-75450000D02*
X52925000Y-76325000D01*
X52925000Y-76325000D02*
X53875000Y-76325000D01*
X60380000Y-67150000D02*
X60380000Y-68320000D01*
X53875000Y-76325000D02*
X54450000Y-76900000D01*
%TO.N,/~{WAKE}*%
X51725000Y-71450000D02*
X51725000Y-75575000D01*
X51850000Y-78050000D02*
X51850000Y-77850000D01*
X59880000Y-67150000D02*
X59880000Y-68270000D01*
X52050000Y-78625000D02*
X52050000Y-77575000D01*
X51975000Y-77500000D02*
X51975000Y-75825000D01*
X52050000Y-78250000D02*
X51850000Y-78050000D01*
X52050000Y-77575000D02*
X51975000Y-77500000D01*
X59880000Y-68270000D02*
X57575000Y-70575000D01*
X51975000Y-75825000D02*
X51725000Y-75575000D01*
X52600000Y-70575000D02*
X51725000Y-71450000D01*
X57575000Y-70575000D02*
X52600000Y-70575000D01*
X52050000Y-78625000D02*
X52050000Y-78250000D01*
%TO.N,/~{RST}*%
X60880000Y-67150000D02*
X60880000Y-71420000D01*
X60880000Y-71420000D02*
X60650000Y-71650000D01*
%TO.N,/~{LED}*%
X70880000Y-67150000D02*
X70880000Y-72030000D01*
X70880000Y-72030000D02*
X71900000Y-73050000D01*
%TD*%
M02*
