%TF.GenerationSoftware,KiCad,Pcbnew,7.0.11-2.fc39*%
%TF.CreationDate,2024-03-17T16:29:44+01:00*%
%TF.ProjectId,mini-pcie-m.2-key-m-adapter,6d696e69-2d70-4636-9965-2d6d2e322d6b,rev?*%
%TF.SameCoordinates,Original*%
%TF.FileFunction,Soldermask,Bot*%
%TF.FilePolarity,Negative*%
%FSLAX46Y46*%
G04 Gerber Fmt 4.6, Leading zero omitted, Abs format (unit mm)*
G04 Created by KiCad (PCBNEW 7.0.11-2.fc39) date 2024-03-17 16:29:44*
%MOMM*%
%LPD*%
G01*
G04 APERTURE LIST*
%ADD10C,0.000010*%
%ADD11C,0.550000*%
%ADD12C,2.600000*%
%ADD13R,0.600000X2.350000*%
%ADD14C,5.000000*%
%ADD15C,1.600000*%
%ADD16C,1.100000*%
%ADD17C,1.152000*%
G04 APERTURE END LIST*
D10*
X48850000Y-77450000D02*
X78800000Y-77450000D01*
X78800000Y-80000000D01*
X48850000Y-80000000D01*
X48850000Y-77450000D01*
G36*
X48850000Y-77450000D02*
G01*
X78800000Y-77450000D01*
X78800000Y-80000000D01*
X48850000Y-80000000D01*
X48850000Y-77450000D01*
G37*
D11*
%TO.C,REF\u002A\u002A*%
X48850000Y-67275000D03*
X48850000Y-68025000D03*
X48850000Y-68825000D03*
X48850000Y-69575000D03*
X48850000Y-70325000D03*
X48850000Y-71075000D03*
%TD*%
%TO.C,REF\u002A\u002A*%
X78850000Y-71125000D03*
X78850000Y-70375000D03*
X78850000Y-69575000D03*
X78850000Y-68825000D03*
X78850000Y-68075000D03*
X78850000Y-67325000D03*
%TD*%
%TO.C,REF\u002A\u002A*%
X48850000Y-33625000D03*
X48850000Y-34375000D03*
X48850000Y-35175000D03*
X48850000Y-35925000D03*
X48850000Y-36675000D03*
X48850000Y-37425000D03*
%TD*%
%TO.C,REF\u002A\u002A*%
X78850000Y-37475000D03*
X78850000Y-36725000D03*
X78850000Y-35925000D03*
X78850000Y-35175000D03*
X78850000Y-34425000D03*
X78850000Y-33675000D03*
%TD*%
%TO.C,REF\u002A\u002A*%
X54875000Y-48125000D03*
X54875000Y-47375000D03*
X54875000Y-46625000D03*
X54875000Y-45875000D03*
X54875000Y-45075000D03*
X54875000Y-44325000D03*
%TD*%
%TO.C,REF\u002A\u002A*%
X72875000Y-48125000D03*
X72875000Y-47375000D03*
X72875000Y-46625000D03*
X72875000Y-45875000D03*
X72875000Y-45075000D03*
X72875000Y-44325000D03*
%TD*%
%TO.C,REF\u002A\u002A*%
X71925000Y-37675000D03*
X71175000Y-37675000D03*
X70375000Y-37675000D03*
X69625000Y-37675000D03*
X68875000Y-37675000D03*
X68125000Y-37675000D03*
%TD*%
%TO.C,REF\u002A\u002A*%
X59800000Y-37675000D03*
X59050000Y-37675000D03*
X58250000Y-37675000D03*
X57500000Y-37675000D03*
X56750000Y-37675000D03*
X56000000Y-37675000D03*
%TD*%
%TO.C,REF\u002A\u002A*%
X65800000Y-37675000D03*
X65050000Y-37675000D03*
X64250000Y-37675000D03*
X63500000Y-37675000D03*
X62750000Y-37675000D03*
X62000000Y-37675000D03*
%TD*%
%TO.C,REF\u002A\u002A*%
X56450000Y-53175000D03*
X57200000Y-53175000D03*
X58000000Y-53175000D03*
X58750000Y-53175000D03*
X59500000Y-53175000D03*
X60250000Y-53175000D03*
%TD*%
%TO.C,REF\u002A\u002A*%
X67450000Y-53175000D03*
X68200000Y-53175000D03*
X69000000Y-53175000D03*
X69750000Y-53175000D03*
X70500000Y-53175000D03*
X71250000Y-53175000D03*
%TD*%
%TO.C,REF\u002A\u002A*%
X61950000Y-53175000D03*
X62700000Y-53175000D03*
X63500000Y-53175000D03*
X64250000Y-53175000D03*
X65000000Y-53175000D03*
X65750000Y-53175000D03*
%TD*%
%TO.C,REF\u002A\u002A*%
X77800000Y-53175000D03*
X77050000Y-53175000D03*
X76250000Y-53175000D03*
X75500000Y-53175000D03*
X74750000Y-53175000D03*
X74000000Y-53175000D03*
%TD*%
%TO.C,REF\u002A\u002A*%
X49950000Y-53175000D03*
X50700000Y-53175000D03*
X51500000Y-53175000D03*
X52250000Y-53175000D03*
X53000000Y-53175000D03*
X53750000Y-53175000D03*
%TD*%
%TO.C,REF\u002A\u002A*%
X72875000Y-29750000D03*
X72875000Y-30500000D03*
X72875000Y-31300000D03*
X72875000Y-32050000D03*
X72875000Y-32800000D03*
X72875000Y-33550000D03*
%TD*%
%TO.C,REF\u002A\u002A*%
X72875000Y-49250000D03*
X72875000Y-50000000D03*
X72875000Y-50800000D03*
X72875000Y-51550000D03*
X72875000Y-52300000D03*
X72875000Y-53050000D03*
%TD*%
%TO.C,REF\u002A\u002A*%
X72875000Y-34625000D03*
X72875000Y-35375000D03*
X72875000Y-36175000D03*
X72875000Y-36925000D03*
X72875000Y-37675000D03*
X72875000Y-38425000D03*
%TD*%
%TO.C,REF\u002A\u002A*%
X72875000Y-43225000D03*
X72875000Y-42475000D03*
X72875000Y-41725000D03*
X72875000Y-40975000D03*
X72875000Y-40175000D03*
X72875000Y-39425000D03*
%TD*%
%TO.C,REF\u002A\u002A*%
X54875000Y-49250000D03*
X54875000Y-50000000D03*
X54875000Y-50800000D03*
X54875000Y-51550000D03*
X54875000Y-52300000D03*
X54875000Y-53050000D03*
%TD*%
%TO.C,REF\u002A\u002A*%
X54875000Y-29750000D03*
X54875000Y-30500000D03*
X54875000Y-31300000D03*
X54875000Y-32050000D03*
X54875000Y-32800000D03*
X54875000Y-33550000D03*
%TD*%
%TO.C,REF\u002A\u002A*%
X54875000Y-39450000D03*
X54875000Y-40200000D03*
X54875000Y-41000000D03*
X54875000Y-41750000D03*
X54875000Y-42500000D03*
X54875000Y-43250000D03*
%TD*%
%TO.C,REF\u002A\u002A*%
X54875000Y-38425000D03*
X54875000Y-37675000D03*
X54875000Y-36925000D03*
X54875000Y-36175000D03*
X54875000Y-35375000D03*
X54875000Y-34625000D03*
%TD*%
%TO.C,REF\u002A\u002A*%
X72300000Y-7675000D03*
X71550000Y-7675000D03*
X70750000Y-7675000D03*
X70000000Y-7675000D03*
X69250000Y-7675000D03*
X68500000Y-7675000D03*
%TD*%
%TO.C,REF\u002A\u002A*%
X59300000Y-7675000D03*
X58550000Y-7675000D03*
X57750000Y-7675000D03*
X57000000Y-7675000D03*
X56250000Y-7675000D03*
X55500000Y-7675000D03*
%TD*%
%TO.C,REF\u002A\u002A*%
X65800000Y-7675000D03*
X65050000Y-7675000D03*
X64250000Y-7675000D03*
X63500000Y-7675000D03*
X62750000Y-7675000D03*
X62000000Y-7675000D03*
%TD*%
%TO.C,REF\u002A\u002A*%
X65800000Y-25675000D03*
X65050000Y-25675000D03*
X64250000Y-25675000D03*
X63500000Y-25675000D03*
X62750000Y-25675000D03*
X62000000Y-25675000D03*
%TD*%
%TO.C,REF\u002A\u002A*%
X72300000Y-25675000D03*
X71550000Y-25675000D03*
X70750000Y-25675000D03*
X70000000Y-25675000D03*
X69250000Y-25675000D03*
X68500000Y-25675000D03*
%TD*%
%TO.C,REF\u002A\u002A*%
X59300000Y-25675000D03*
X58550000Y-25675000D03*
X57750000Y-25675000D03*
X57000000Y-25675000D03*
X56250000Y-25675000D03*
X55500000Y-25675000D03*
%TD*%
%TO.C,REF\u002A\u002A*%
X54875000Y1400000D03*
X54875000Y2150000D03*
X54875000Y2950000D03*
X54875000Y3700000D03*
X54875000Y4450000D03*
X54875000Y5200000D03*
%TD*%
%TO.C,REF\u002A\u002A*%
X72875000Y5200000D03*
X72875000Y4450000D03*
X72875000Y3700000D03*
X72875000Y2950000D03*
X72875000Y2150000D03*
X72875000Y1400000D03*
%TD*%
D12*
%TO.C,J1*%
X51750000Y-31950000D03*
X51750000Y-56100000D03*
X75950000Y-31950000D03*
X75950000Y-56100000D03*
D13*
X52450000Y-78625000D03*
X53250000Y-78625000D03*
X54050000Y-78625000D03*
X54850000Y-78625000D03*
X55650000Y-78625000D03*
X56450000Y-78625000D03*
X57250000Y-78625000D03*
X58050000Y-78625000D03*
X62050000Y-78625000D03*
X62850000Y-78625000D03*
X63650000Y-78625000D03*
X64450000Y-78625000D03*
X65250000Y-78625000D03*
X66050000Y-78625000D03*
X66850000Y-78625000D03*
X67650000Y-78625000D03*
X68450000Y-78625000D03*
X69250000Y-78625000D03*
X70050000Y-78625000D03*
X70850000Y-78625000D03*
X71650000Y-78625000D03*
X72450000Y-78625000D03*
X73250000Y-78625000D03*
X74050000Y-78625000D03*
X74850000Y-78625000D03*
X75650000Y-78625000D03*
%TD*%
D14*
%TO.C,*%
X63875000Y-41175000D03*
%TD*%
%TO.C,*%
X63875000Y-29175000D03*
%TD*%
%TO.C,*%
X63875000Y-11175000D03*
%TD*%
%TO.C,*%
X63875000Y8825000D03*
%TD*%
D15*
%TO.C,J2*%
X53880000Y-69425000D03*
D16*
X73880000Y-69425000D03*
%TD*%
D17*
%TO.C,H3*%
X96400000Y-77750000D03*
%TD*%
%TO.C,H2*%
X31250000Y9675000D03*
%TD*%
M02*
