%TF.GenerationSoftware,KiCad,Pcbnew,7.0.11-2.fc39*%
%TF.CreationDate,2024-03-17T16:29:43+01:00*%
%TF.ProjectId,mini-pcie-m.2-key-m-adapter,6d696e69-2d70-4636-9965-2d6d2e322d6b,rev?*%
%TF.SameCoordinates,Original*%
%TF.FileFunction,Copper,L4,Bot*%
%TF.FilePolarity,Positive*%
%FSLAX46Y46*%
G04 Gerber Fmt 4.6, Leading zero omitted, Abs format (unit mm)*
G04 Created by KiCad (PCBNEW 7.0.11-2.fc39) date 2024-03-17 16:29:43*
%MOMM*%
%LPD*%
G01*
G04 APERTURE LIST*
%TA.AperFunction,SMDPad,CuDef*%
%ADD10R,0.600000X2.350000*%
%TD*%
%TA.AperFunction,ComponentPad*%
%ADD11C,5.000000*%
%TD*%
%TA.AperFunction,ViaPad*%
%ADD12C,0.450000*%
%TD*%
%TA.AperFunction,Conductor*%
%ADD13C,0.200000*%
%TD*%
%TA.AperFunction,Conductor*%
%ADD14C,0.250000*%
%TD*%
%TA.AperFunction,Conductor*%
%ADD15C,0.127000*%
%TD*%
G04 APERTURE END LIST*
D10*
%TO.P,J1,2,+3.3Vaux*%
%TO.N,+3V3*%
X52450000Y-78625000D03*
%TO.P,J1,4,GND*%
%TO.N,GND*%
X53250000Y-78625000D03*
%TO.P,J1,6,+1.5V*%
%TO.N,unconnected-(J1-Pad6)*%
X54050000Y-78625000D03*
%TO.P,J1,8,UIM_PWR*%
%TO.N,unconnected-(J1-Pad8)*%
X54850000Y-78625000D03*
%TO.P,J1,10,UIM_DATA*%
%TO.N,unconnected-(J1-Pad10)*%
X55650000Y-78625000D03*
%TO.P,J1,12,UIM_CLK*%
%TO.N,unconnected-(J1-Pad12)*%
X56450000Y-78625000D03*
%TO.P,J1,14,UIM_RESET*%
%TO.N,unconnected-(J1-Pad14)*%
X57250000Y-78625000D03*
%TO.P,J1,16,UIM_VPP*%
%TO.N,unconnected-(J1-Pad16)*%
X58050000Y-78625000D03*
%TO.P,J1,18,GND*%
%TO.N,GND*%
X62050000Y-78625000D03*
%TO.P,J1,20,~{W_DISABLE}*%
%TO.N,unconnected-(J1-Pad20)*%
X62850000Y-78625000D03*
%TO.P,J1,22,~{PERST}*%
%TO.N,/~{RST}*%
X63650000Y-78625000D03*
%TO.P,J1,24,+3.3Vaux*%
%TO.N,+3V3*%
X64450000Y-78625000D03*
%TO.P,J1,26,GND*%
%TO.N,GND*%
X65250000Y-78625000D03*
%TO.P,J1,28,+1.5V*%
%TO.N,unconnected-(J1-Pad28)*%
X66050000Y-78625000D03*
%TO.P,J1,30,SMB_CLK*%
%TO.N,unconnected-(J1-Pad30)*%
X66850000Y-78625000D03*
%TO.P,J1,32,SMB_DATA*%
%TO.N,unconnected-(J1-Pad32)*%
X67650000Y-78625000D03*
%TO.P,J1,34,GND*%
%TO.N,GND*%
X68450000Y-78625000D03*
%TO.P,J1,36,USB_D-*%
%TO.N,unconnected-(J1-Pad36)*%
X69250000Y-78625000D03*
%TO.P,J1,38,USB_D+*%
%TO.N,unconnected-(J1-Pad38)*%
X70050000Y-78625000D03*
%TO.P,J1,40,GND*%
%TO.N,GND*%
X70850000Y-78625000D03*
%TO.P,J1,42,~{LED_WWAN}*%
%TO.N,unconnected-(J1-Pad42)*%
X71650000Y-78625000D03*
%TO.P,J1,44,~{LED_WLAN}*%
%TO.N,/~{LED}*%
X72450000Y-78625000D03*
%TO.P,J1,46,~{LED_WPAN}*%
%TO.N,unconnected-(J1-Pad46)*%
X73250000Y-78625000D03*
%TO.P,J1,48,+1.5V*%
%TO.N,unconnected-(J1-Pad48)*%
X74050000Y-78625000D03*
%TO.P,J1,50,GND*%
%TO.N,GND*%
X74850000Y-78625000D03*
%TO.P,J1,52,+3.3Vaux*%
%TO.N,+3V3*%
X75650000Y-78625000D03*
%TD*%
D11*
%TO.P,,1,1*%
%TO.N,GND*%
X63875000Y-41175000D03*
%TD*%
%TO.P,,1,1*%
%TO.N,GND*%
X63875000Y-29175000D03*
%TD*%
%TO.P,,1,1*%
%TO.N,GND*%
X63875000Y-11175000D03*
%TD*%
%TO.P,,1,1*%
%TO.N,GND*%
X63875000Y8825000D03*
%TD*%
D12*
%TO.N,GND*%
X55100000Y-75850000D03*
X53550000Y-72200000D03*
X69100000Y-76700000D03*
X53250000Y-76950000D03*
X61450000Y-76050000D03*
X74250000Y-75650000D03*
X50650000Y-72475000D03*
X55650000Y-73550000D03*
X68550000Y-73300000D03*
X65150000Y-75850000D03*
X66200000Y-76800000D03*
X52550000Y-73900000D03*
X71800000Y-76100000D03*
X75950000Y-73650000D03*
X54650000Y-73550000D03*
X66400000Y-76150000D03*
X58550000Y-75950000D03*
X65350000Y-76750000D03*
X63650000Y-73550000D03*
X76750000Y-72850000D03*
X53550000Y-75650000D03*
X71150000Y-73550000D03*
X70000000Y-76700000D03*
X74200000Y-72250000D03*
X74250000Y-76950000D03*
X75200000Y-73900000D03*
X57650000Y-76950000D03*
X72600000Y-73550000D03*
X69600000Y-73550000D03*
X73150000Y-75850000D03*
X77600000Y-73600000D03*
X62550000Y-73450000D03*
X62550000Y-76850000D03*
X55250000Y-76950000D03*
X61450000Y-76700000D03*
%TO.N,/TX-*%
X67275000Y-76515678D03*
X66834834Y-73265166D03*
%TO.N,/TX+*%
X68025000Y-76515678D03*
X67365166Y-72734834D03*
%TO.N,+3V3*%
X72900000Y-68300000D03*
X72400000Y-66000000D03*
X70750000Y-76700000D03*
X52450000Y-76950000D03*
X69900000Y-66000000D03*
X70400000Y-68250000D03*
X71500000Y-76700000D03*
X54900000Y-68300000D03*
X75900000Y-75200000D03*
X64350000Y-75950000D03*
X75650000Y-76700000D03*
X76750000Y-76000000D03*
X77600000Y-75150000D03*
X69400000Y-68250000D03*
X68900000Y-66000000D03*
X55400000Y-66000000D03*
X50650000Y-75675000D03*
X55900000Y-68300000D03*
%TO.N,/CLK+*%
X57465166Y-73265166D03*
X56825000Y-76300000D03*
%TO.N,/CLK-*%
X56075000Y-76300000D03*
X56934834Y-72734834D03*
%TO.N,/~{RST}*%
X60650000Y-71650000D03*
%TO.N,/~{LED}*%
X71900000Y-73050000D03*
%TD*%
D13*
%TO.N,/TX+*%
X68025000Y-76515678D02*
X67850000Y-76340678D01*
X67850000Y-76340678D02*
X67850000Y-73467157D01*
%TO.N,/TX-*%
X67450000Y-73632843D02*
X67082323Y-73265166D01*
%TO.N,/TX+*%
X67850000Y-73467157D02*
X67365166Y-72982323D01*
%TO.N,/TX-*%
X67450000Y-76340678D02*
X67450000Y-73632843D01*
%TO.N,/TX+*%
X67365166Y-72982323D02*
X67365166Y-72734834D01*
%TO.N,/TX-*%
X67082323Y-73265166D02*
X66834834Y-73265166D01*
X67275000Y-76515678D02*
X67450000Y-76340678D01*
%TO.N,/CLK+*%
X56958228Y-74994500D02*
X56813500Y-74994500D01*
X56813500Y-75321500D02*
X56958228Y-75321500D01*
X56958228Y-74340500D02*
X56813500Y-74340500D01*
X56650000Y-76125000D02*
X56650000Y-75485000D01*
X56813500Y-74667500D02*
G75*
G03*
X56650000Y-74831000I0J-163500D01*
G01*
X56958228Y-75321528D02*
G75*
G03*
X57121728Y-75158000I-28J163528D01*
G01*
X56813500Y-75321500D02*
G75*
G03*
X56650000Y-75485000I0J-163500D01*
G01*
X57121700Y-75158000D02*
G75*
G03*
X56958228Y-74994500I-163500J0D01*
G01*
X56813500Y-74667500D02*
X56958228Y-74667500D01*
X56650000Y-74177000D02*
X56650000Y-73832843D01*
X56650000Y-73832843D02*
X57217677Y-73265166D01*
X56825000Y-76300000D02*
X56650000Y-76125000D01*
X56650000Y-74177000D02*
G75*
G03*
X56813500Y-74340500I163500J0D01*
G01*
X56958228Y-74667528D02*
G75*
G03*
X57121728Y-74504000I-28J163528D01*
G01*
X57121700Y-74504000D02*
G75*
G03*
X56958228Y-74340500I-163500J0D01*
G01*
X56650000Y-74831000D02*
G75*
G03*
X56813500Y-74994500I163500J0D01*
G01*
X57217677Y-73265166D02*
X57465166Y-73265166D01*
%TO.N,/CLK-*%
X56250000Y-73667157D02*
X56934834Y-72982323D01*
X56075000Y-76300000D02*
X56250000Y-76125000D01*
X56250000Y-76125000D02*
X56250000Y-73667157D01*
X56934834Y-72982323D02*
X56934834Y-72734834D01*
D14*
%TO.N,GND*%
X70000000Y-76700000D02*
X70850000Y-77550000D01*
X62050000Y-78625000D02*
X62050000Y-77300000D01*
X65250000Y-76850000D02*
X65350000Y-76750000D01*
X74850000Y-77550000D02*
X74250000Y-76950000D01*
X65250000Y-78625000D02*
X65250000Y-76850000D01*
X53250000Y-78625000D02*
X53250000Y-76950000D01*
X74850000Y-78625000D02*
X74850000Y-77550000D01*
X70850000Y-77550000D02*
X70850000Y-78650000D01*
X68450000Y-78625000D02*
X68450000Y-77350000D01*
X68450000Y-77350000D02*
X69100000Y-76700000D01*
X62050000Y-77300000D02*
X61450000Y-76700000D01*
%TO.N,+3V3*%
X52450000Y-78625000D02*
X52450000Y-76950000D01*
X64450000Y-76050000D02*
X64350000Y-75950000D01*
X64450000Y-78625000D02*
X64450000Y-76050000D01*
X75650000Y-78625000D02*
X75650000Y-76700000D01*
D15*
%TO.N,/~{RST}*%
X62450000Y-76100000D02*
X60650000Y-74300000D01*
X63650000Y-78625000D02*
X63650000Y-77300000D01*
X60650000Y-73050000D02*
X60650000Y-71650000D01*
X62600000Y-76250000D02*
X62450000Y-76100000D01*
X60650000Y-74300000D02*
X60650000Y-73050000D01*
X63650000Y-77300000D02*
X62600000Y-76250000D01*
%TO.N,/~{LED}*%
X72450000Y-75400000D02*
X71900000Y-74850000D01*
X71900000Y-74850000D02*
X71900000Y-73050000D01*
X72450000Y-78625000D02*
X72450000Y-75400000D01*
%TD*%
M02*
