%TF.GenerationSoftware,KiCad,Pcbnew,7.0.11-2.fc39*%
%TF.CreationDate,2024-03-17T16:29:44+01:00*%
%TF.ProjectId,mini-pcie-m.2-key-m-adapter,6d696e69-2d70-4636-9965-2d6d2e322d6b,rev?*%
%TF.SameCoordinates,Original*%
%TF.FileFunction,Profile,NP*%
%FSLAX46Y46*%
G04 Gerber Fmt 4.6, Leading zero omitted, Abs format (unit mm)*
G04 Created by KiCad (PCBNEW 7.0.11-2.fc39) date 2024-03-17 16:29:44*
%MOMM*%
%LPD*%
G01*
G04 APERTURE LIST*
%TA.AperFunction,Profile*%
%ADD10C,0.100000*%
%TD*%
%TA.AperFunction,Profile*%
%ADD11C,0.050000*%
%TD*%
G04 APERTURE END LIST*
D10*
X48850001Y-71699998D02*
X33850000Y-71700000D01*
X48850000Y-66700000D02*
X33850000Y-66700000D01*
X78850000Y-66700000D02*
X93850000Y-66700000D01*
X48850000Y-38050000D02*
X33849999Y-38050002D01*
X48850000Y-33050000D02*
X33850000Y-33050000D01*
X33850000Y11825000D02*
X33875000Y5825000D01*
X93875000Y5825000D02*
X93850000Y11825000D01*
X54875000Y825000D02*
X33875000Y825000D01*
X54875000Y5825000D02*
X33875000Y5825000D01*
X72875000Y825000D02*
X93875000Y825000D01*
X72875000Y5825000D02*
X93875000Y5825000D01*
X72875000Y8825000D02*
X72875000Y5825000D01*
X54875000Y8825000D02*
X54875000Y5825000D01*
X54875000Y-29050000D02*
X52850000Y-29050000D01*
X72875000Y-29050000D02*
X74850000Y-29050000D01*
X59875000Y8825000D02*
X54875000Y8825000D01*
X59875000Y11825000D02*
X59875000Y8825000D01*
X67875000Y8825000D02*
X72875000Y8825000D01*
X67875000Y11825000D02*
X67875000Y8825000D01*
X33850000Y11825000D02*
X28850000Y11825000D01*
X78850000Y-76700000D02*
X78850000Y-71700000D01*
X33850000Y-33050000D02*
X33875000Y825000D01*
X78850000Y-71700000D02*
X93850000Y-71700000D01*
X78850000Y-66700000D02*
X78850000Y-38050000D01*
X33850000Y-80000000D02*
X28850000Y-80000000D01*
X48850000Y-33050000D02*
X48850000Y-29050000D01*
X48850000Y-71700000D02*
X48850000Y-76700000D01*
X28850000Y-80000000D02*
X28850000Y11825000D01*
X78850000Y-38050000D02*
X93850000Y-38050000D01*
X93850000Y-66700000D02*
X93850000Y-38050000D01*
X78850000Y-33050000D02*
X78850000Y-29050000D01*
X33849999Y-38050002D02*
X33850000Y-66700000D01*
X93850000Y11825000D02*
X98850000Y11824999D01*
X72875000Y825000D02*
X72875000Y-29050000D01*
X48850000Y-38050000D02*
X48850000Y-66700000D01*
X78850000Y-33050000D02*
X93850000Y-33050000D01*
X98850000Y11824999D02*
X98850000Y-80000000D01*
X33850000Y-71700000D02*
X33850000Y-80000000D01*
X93850000Y-80000000D02*
X98850000Y-80000000D01*
X67875000Y11825000D02*
X59875000Y11825000D01*
X54875000Y-29050000D02*
X54875000Y825000D01*
X93850000Y-33050000D02*
X93875000Y825000D01*
X93850000Y-71700000D02*
X93850000Y-80000000D01*
D11*
%TO.C,J1*%
X48850000Y-29050000D02*
X52850000Y-29050000D01*
X48850000Y-76700000D02*
X50250000Y-76700000D01*
X51050000Y-80000000D02*
X51050000Y-77500000D01*
X59250000Y-80000000D02*
X51050000Y-80000000D01*
X59250000Y-80000000D02*
X59250000Y-76750000D01*
X60750000Y-80000000D02*
X60750000Y-76750000D01*
X60750000Y-80000000D02*
X76650000Y-80000000D01*
X74850000Y-29050000D02*
X78850000Y-29050000D01*
X76650000Y-80000000D02*
X76650000Y-77500000D01*
X77450000Y-76700000D02*
X78850000Y-76700000D01*
X51050000Y-77500000D02*
G75*
G03*
X50250000Y-76700000I-800001J-1D01*
G01*
X60750000Y-76750000D02*
G75*
G03*
X59250000Y-76750000I-750000J0D01*
G01*
X77450000Y-76700000D02*
G75*
G03*
X76650000Y-77500000I0J-800000D01*
G01*
%TD*%
M02*
