%TF.GenerationSoftware,KiCad,Pcbnew,7.0.11-2.fc39*%
%TF.CreationDate,2024-03-17T16:29:43+01:00*%
%TF.ProjectId,mini-pcie-m.2-key-m-adapter,6d696e69-2d70-4636-9965-2d6d2e322d6b,rev?*%
%TF.SameCoordinates,Original*%
%TF.FileFunction,Copper,L3,Inr*%
%TF.FilePolarity,Positive*%
%FSLAX46Y46*%
G04 Gerber Fmt 4.6, Leading zero omitted, Abs format (unit mm)*
G04 Created by KiCad (PCBNEW 7.0.11-2.fc39) date 2024-03-17 16:29:43*
%MOMM*%
%LPD*%
G01*
G04 APERTURE LIST*
%TA.AperFunction,ComponentPad*%
%ADD10C,5.000000*%
%TD*%
%TA.AperFunction,ViaPad*%
%ADD11C,0.450000*%
%TD*%
G04 APERTURE END LIST*
D10*
%TO.N,GND*%
%TO.C,*%
X63875000Y-41175000D03*
%TD*%
%TO.N,GND*%
%TO.C,*%
X63875000Y-29175000D03*
%TD*%
%TO.N,GND*%
%TO.C,*%
X63875000Y-11175000D03*
%TD*%
%TO.N,GND*%
%TO.C,*%
X63875000Y8825000D03*
%TD*%
D11*
%TO.N,GND*%
X55100000Y-75850000D03*
X53550000Y-72200000D03*
X69100000Y-76700000D03*
X53250000Y-76950000D03*
X61450000Y-76050000D03*
X74250000Y-75650000D03*
X50650000Y-72475000D03*
X55650000Y-73550000D03*
X68550000Y-73300000D03*
X65150000Y-75850000D03*
X66200000Y-76800000D03*
X52550000Y-73900000D03*
X71800000Y-76100000D03*
X75950000Y-73650000D03*
X54650000Y-73550000D03*
X66400000Y-76150000D03*
X58550000Y-75950000D03*
X65350000Y-76750000D03*
X63650000Y-73550000D03*
X76750000Y-72850000D03*
X53550000Y-75650000D03*
X71150000Y-73550000D03*
X70000000Y-76700000D03*
X74200000Y-72250000D03*
X74250000Y-76950000D03*
X75200000Y-73900000D03*
X57650000Y-76950000D03*
X72600000Y-73550000D03*
X69600000Y-73550000D03*
X73150000Y-75850000D03*
X77600000Y-73600000D03*
X62550000Y-73450000D03*
X62550000Y-76850000D03*
X55250000Y-76950000D03*
X61450000Y-76700000D03*
%TO.N,/TX-*%
X67275000Y-76515678D03*
X66834834Y-73265166D03*
%TO.N,/TX+*%
X68025000Y-76515678D03*
X67365166Y-72734834D03*
%TO.N,+3V3*%
X72900000Y-68300000D03*
X72400000Y-66000000D03*
X70750000Y-76700000D03*
X52450000Y-76950000D03*
X69900000Y-66000000D03*
X70400000Y-68250000D03*
X71500000Y-76700000D03*
X54900000Y-68300000D03*
X75900000Y-75200000D03*
X64350000Y-75950000D03*
X75650000Y-76700000D03*
X76750000Y-76000000D03*
X77600000Y-75150000D03*
X69400000Y-68250000D03*
X68900000Y-66000000D03*
X55400000Y-66000000D03*
X50650000Y-75675000D03*
X55900000Y-68300000D03*
%TO.N,/CLK+*%
X57465166Y-73265166D03*
X56825000Y-76300000D03*
%TO.N,/CLK-*%
X56075000Y-76300000D03*
X56934834Y-72734834D03*
%TO.N,/~{RST}*%
X60650000Y-71650000D03*
%TO.N,/~{LED}*%
X71900000Y-73050000D03*
%TD*%
%TA.AperFunction,Conductor*%
%TO.N,+3V3*%
G36*
X77984927Y-64018306D02*
G01*
X78003233Y-64062500D01*
X78003233Y-73355463D01*
X77984927Y-73399657D01*
X77940733Y-73417963D01*
X77896539Y-73399657D01*
X77890172Y-73392204D01*
X77888734Y-73390225D01*
X77888733Y-73390223D01*
X77809777Y-73311267D01*
X77809776Y-73311266D01*
X77710287Y-73260574D01*
X77710282Y-73260572D01*
X77600003Y-73243106D01*
X77599997Y-73243106D01*
X77489717Y-73260572D01*
X77489712Y-73260574D01*
X77390223Y-73311266D01*
X77311266Y-73390223D01*
X77260574Y-73489712D01*
X77260572Y-73489717D01*
X77243106Y-73599996D01*
X77243106Y-73600003D01*
X77260572Y-73710282D01*
X77260574Y-73710287D01*
X77309573Y-73806453D01*
X77311267Y-73809777D01*
X77390223Y-73888733D01*
X77489714Y-73939426D01*
X77489717Y-73939427D01*
X77599997Y-73956894D01*
X77600000Y-73956894D01*
X77600003Y-73956894D01*
X77710282Y-73939427D01*
X77710283Y-73939426D01*
X77710286Y-73939426D01*
X77809777Y-73888733D01*
X77888733Y-73809777D01*
X77888737Y-73809767D01*
X77890169Y-73807799D01*
X77891568Y-73806941D01*
X77892211Y-73806299D01*
X77892365Y-73806453D01*
X77930956Y-73782805D01*
X77977470Y-73793972D01*
X78002464Y-73834759D01*
X78003233Y-73844536D01*
X78003233Y-76137000D01*
X77984927Y-76181194D01*
X77940733Y-76199500D01*
X77515892Y-76199500D01*
X77450000Y-76199500D01*
X77347648Y-76199500D01*
X77347646Y-76199500D01*
X77347636Y-76199501D01*
X77145466Y-76231522D01*
X76950782Y-76294779D01*
X76950779Y-76294780D01*
X76768386Y-76387715D01*
X76602778Y-76508035D01*
X76458035Y-76652778D01*
X76337715Y-76818386D01*
X76244780Y-77000779D01*
X76244779Y-77000782D01*
X76194082Y-77156814D01*
X76163015Y-77193188D01*
X76134641Y-77200000D01*
X74620229Y-77200000D01*
X74576035Y-77181694D01*
X74557729Y-77137500D01*
X74564541Y-77109126D01*
X74572301Y-77093895D01*
X74589426Y-77060286D01*
X74589507Y-77059776D01*
X74606894Y-76950003D01*
X74606894Y-76949996D01*
X74589427Y-76839717D01*
X74589425Y-76839712D01*
X74538733Y-76740223D01*
X74459776Y-76661266D01*
X74360287Y-76610574D01*
X74360282Y-76610572D01*
X74250003Y-76593106D01*
X74249997Y-76593106D01*
X74139717Y-76610572D01*
X74139712Y-76610574D01*
X74040223Y-76661266D01*
X73961266Y-76740223D01*
X73910574Y-76839712D01*
X73910572Y-76839717D01*
X73893106Y-76949996D01*
X73893106Y-76950003D01*
X73910572Y-77060282D01*
X73910574Y-77060287D01*
X73935459Y-77109126D01*
X73939212Y-77156814D01*
X73908145Y-77193188D01*
X73879771Y-77200000D01*
X66448986Y-77200000D01*
X66404792Y-77181694D01*
X66386486Y-77137500D01*
X66404792Y-77093306D01*
X66407617Y-77090892D01*
X66409774Y-77088734D01*
X66409777Y-77088733D01*
X66488733Y-77009777D01*
X66539426Y-76910286D01*
X66539507Y-76909776D01*
X66556894Y-76800003D01*
X66556894Y-76799996D01*
X66539427Y-76689717D01*
X66539425Y-76689712D01*
X66526663Y-76664666D01*
X66488733Y-76590223D01*
X66488732Y-76590222D01*
X66485843Y-76586245D01*
X66487394Y-76585117D01*
X66471753Y-76547355D01*
X66484873Y-76515681D01*
X66918106Y-76515681D01*
X66935572Y-76625960D01*
X66935574Y-76625965D01*
X66986266Y-76725454D01*
X66986267Y-76725455D01*
X67065223Y-76804411D01*
X67164714Y-76855104D01*
X67164717Y-76855105D01*
X67274997Y-76872572D01*
X67275000Y-76872572D01*
X67275003Y-76872572D01*
X67385282Y-76855105D01*
X67385283Y-76855104D01*
X67385286Y-76855104D01*
X67484777Y-76804411D01*
X67563733Y-76725455D01*
X67594312Y-76665439D01*
X67630686Y-76634373D01*
X67678374Y-76638126D01*
X67705688Y-76665440D01*
X67730532Y-76714201D01*
X67736267Y-76725455D01*
X67815223Y-76804411D01*
X67914714Y-76855104D01*
X67914717Y-76855105D01*
X68024997Y-76872572D01*
X68025000Y-76872572D01*
X68025003Y-76872572D01*
X68135282Y-76855105D01*
X68135283Y-76855104D01*
X68135286Y-76855104D01*
X68234777Y-76804411D01*
X68313733Y-76725455D01*
X68326701Y-76700003D01*
X68743106Y-76700003D01*
X68760572Y-76810282D01*
X68760574Y-76810287D01*
X68792310Y-76872572D01*
X68811267Y-76909777D01*
X68890223Y-76988733D01*
X68989714Y-77039426D01*
X68989717Y-77039427D01*
X69099997Y-77056894D01*
X69100000Y-77056894D01*
X69100003Y-77056894D01*
X69210282Y-77039427D01*
X69210283Y-77039426D01*
X69210286Y-77039426D01*
X69309777Y-76988733D01*
X69388733Y-76909777D01*
X69439426Y-76810286D01*
X69441055Y-76800003D01*
X69456894Y-76700003D01*
X69643106Y-76700003D01*
X69660572Y-76810282D01*
X69660574Y-76810287D01*
X69692310Y-76872572D01*
X69711267Y-76909777D01*
X69790223Y-76988733D01*
X69889714Y-77039426D01*
X69889717Y-77039427D01*
X69999997Y-77056894D01*
X70000000Y-77056894D01*
X70000003Y-77056894D01*
X70110282Y-77039427D01*
X70110283Y-77039426D01*
X70110286Y-77039426D01*
X70209777Y-76988733D01*
X70288733Y-76909777D01*
X70339426Y-76810286D01*
X70341055Y-76800003D01*
X70356894Y-76700003D01*
X70356894Y-76699996D01*
X70339427Y-76589717D01*
X70339425Y-76589712D01*
X70288733Y-76490223D01*
X70209776Y-76411266D01*
X70110287Y-76360574D01*
X70110282Y-76360572D01*
X70000003Y-76343106D01*
X69999997Y-76343106D01*
X69889717Y-76360572D01*
X69889712Y-76360574D01*
X69790223Y-76411266D01*
X69711266Y-76490223D01*
X69660574Y-76589712D01*
X69660572Y-76589717D01*
X69643106Y-76699996D01*
X69643106Y-76700003D01*
X69456894Y-76700003D01*
X69456894Y-76699996D01*
X69439427Y-76589717D01*
X69439425Y-76589712D01*
X69388733Y-76490223D01*
X69309776Y-76411266D01*
X69210287Y-76360574D01*
X69210282Y-76360572D01*
X69100003Y-76343106D01*
X69099997Y-76343106D01*
X68989717Y-76360572D01*
X68989712Y-76360574D01*
X68890223Y-76411266D01*
X68811266Y-76490223D01*
X68760574Y-76589712D01*
X68760572Y-76589717D01*
X68743106Y-76699996D01*
X68743106Y-76700003D01*
X68326701Y-76700003D01*
X68364426Y-76625964D01*
X68366864Y-76610572D01*
X68381894Y-76515681D01*
X68381894Y-76515674D01*
X68364427Y-76405395D01*
X68364425Y-76405390D01*
X68313733Y-76305901D01*
X68234776Y-76226944D01*
X68135287Y-76176252D01*
X68135282Y-76176250D01*
X68025003Y-76158784D01*
X68024997Y-76158784D01*
X67914717Y-76176250D01*
X67914712Y-76176252D01*
X67815223Y-76226944D01*
X67736266Y-76305901D01*
X67705688Y-76365915D01*
X67669313Y-76396982D01*
X67621626Y-76393229D01*
X67594312Y-76365915D01*
X67563733Y-76305901D01*
X67484776Y-76226944D01*
X67385287Y-76176252D01*
X67385282Y-76176250D01*
X67275003Y-76158784D01*
X67274997Y-76158784D01*
X67164717Y-76176250D01*
X67164712Y-76176252D01*
X67065223Y-76226944D01*
X66986266Y-76305901D01*
X66935574Y-76405390D01*
X66935572Y-76405395D01*
X66918106Y-76515674D01*
X66918106Y-76515681D01*
X66484873Y-76515681D01*
X66490059Y-76503161D01*
X66506619Y-76493063D01*
X66505904Y-76491659D01*
X66573217Y-76457361D01*
X66609777Y-76438733D01*
X66688733Y-76359777D01*
X66739426Y-76260286D01*
X66741481Y-76247311D01*
X66756894Y-76150003D01*
X66756894Y-76149996D01*
X66748976Y-76100003D01*
X71443106Y-76100003D01*
X71460572Y-76210282D01*
X71460574Y-76210287D01*
X71509292Y-76305901D01*
X71511267Y-76309777D01*
X71590223Y-76388733D01*
X71689714Y-76439426D01*
X71689717Y-76439427D01*
X71799997Y-76456894D01*
X71800000Y-76456894D01*
X71800003Y-76456894D01*
X71910282Y-76439427D01*
X71910283Y-76439426D01*
X71910286Y-76439426D01*
X72009777Y-76388733D01*
X72088733Y-76309777D01*
X72139426Y-76210286D01*
X72139427Y-76210282D01*
X72156894Y-76100003D01*
X72156894Y-76099996D01*
X72139427Y-75989717D01*
X72139425Y-75989712D01*
X72088733Y-75890223D01*
X72048513Y-75850003D01*
X72793106Y-75850003D01*
X72810572Y-75960282D01*
X72810574Y-75960287D01*
X72861266Y-76059776D01*
X72861267Y-76059777D01*
X72940223Y-76138733D01*
X73039714Y-76189426D01*
X73039717Y-76189427D01*
X73149997Y-76206894D01*
X73150000Y-76206894D01*
X73150003Y-76206894D01*
X73260282Y-76189427D01*
X73260283Y-76189426D01*
X73260286Y-76189426D01*
X73359777Y-76138733D01*
X73438733Y-76059777D01*
X73489426Y-75960286D01*
X73491055Y-75950003D01*
X73506894Y-75850003D01*
X73506894Y-75849996D01*
X73489427Y-75739717D01*
X73489425Y-75739712D01*
X73443716Y-75650003D01*
X73893106Y-75650003D01*
X73910572Y-75760282D01*
X73910574Y-75760287D01*
X73961266Y-75859776D01*
X73961267Y-75859777D01*
X74040223Y-75938733D01*
X74139714Y-75989426D01*
X74139717Y-75989427D01*
X74249997Y-76006894D01*
X74250000Y-76006894D01*
X74250003Y-76006894D01*
X74360282Y-75989427D01*
X74360283Y-75989426D01*
X74360286Y-75989426D01*
X74459777Y-75938733D01*
X74538733Y-75859777D01*
X74589426Y-75760286D01*
X74589427Y-75760282D01*
X74606894Y-75650003D01*
X74606894Y-75649996D01*
X74589427Y-75539717D01*
X74589425Y-75539712D01*
X74538733Y-75440223D01*
X74459776Y-75361266D01*
X74360287Y-75310574D01*
X74360282Y-75310572D01*
X74250003Y-75293106D01*
X74249997Y-75293106D01*
X74139717Y-75310572D01*
X74139712Y-75310574D01*
X74040223Y-75361266D01*
X73961266Y-75440223D01*
X73910574Y-75539712D01*
X73910572Y-75539717D01*
X73893106Y-75649996D01*
X73893106Y-75650003D01*
X73443716Y-75650003D01*
X73438733Y-75640223D01*
X73359776Y-75561266D01*
X73260287Y-75510574D01*
X73260282Y-75510572D01*
X73150003Y-75493106D01*
X73149997Y-75493106D01*
X73039717Y-75510572D01*
X73039712Y-75510574D01*
X72940223Y-75561266D01*
X72861266Y-75640223D01*
X72810574Y-75739712D01*
X72810572Y-75739717D01*
X72793106Y-75849996D01*
X72793106Y-75850003D01*
X72048513Y-75850003D01*
X72009776Y-75811266D01*
X71910287Y-75760574D01*
X71910282Y-75760572D01*
X71800003Y-75743106D01*
X71799997Y-75743106D01*
X71689717Y-75760572D01*
X71689712Y-75760574D01*
X71590223Y-75811266D01*
X71511266Y-75890223D01*
X71460574Y-75989712D01*
X71460572Y-75989717D01*
X71443106Y-76099996D01*
X71443106Y-76100003D01*
X66748976Y-76100003D01*
X66739427Y-76039717D01*
X66739425Y-76039712D01*
X66688733Y-75940223D01*
X66609776Y-75861266D01*
X66510287Y-75810574D01*
X66510282Y-75810572D01*
X66400003Y-75793106D01*
X66399997Y-75793106D01*
X66289717Y-75810572D01*
X66289712Y-75810574D01*
X66190223Y-75861266D01*
X66111266Y-75940223D01*
X66060574Y-76039712D01*
X66060572Y-76039717D01*
X66043106Y-76149996D01*
X66043106Y-76150003D01*
X66060572Y-76260282D01*
X66060574Y-76260287D01*
X66111267Y-76359777D01*
X66114157Y-76363755D01*
X66112604Y-76364882D01*
X66128246Y-76402644D01*
X66109940Y-76446838D01*
X66093597Y-76457361D01*
X66094096Y-76458341D01*
X65990223Y-76511266D01*
X65911266Y-76590223D01*
X65860574Y-76689712D01*
X65860572Y-76689717D01*
X65843106Y-76799996D01*
X65843106Y-76800003D01*
X65860572Y-76910282D01*
X65860574Y-76910287D01*
X65911266Y-77009776D01*
X65993701Y-77092211D01*
X65992016Y-77093895D01*
X66012745Y-77127726D01*
X66001576Y-77174239D01*
X65960788Y-77199231D01*
X65951014Y-77200000D01*
X65503604Y-77200000D01*
X65459410Y-77181694D01*
X65441104Y-77137500D01*
X65459410Y-77093306D01*
X65475230Y-77081812D01*
X65517477Y-77060286D01*
X65559777Y-77038733D01*
X65638733Y-76959777D01*
X65689426Y-76860286D01*
X65691055Y-76850003D01*
X65706894Y-76750003D01*
X65706894Y-76749996D01*
X65689427Y-76639717D01*
X65689425Y-76639712D01*
X65638733Y-76540223D01*
X65559776Y-76461266D01*
X65460287Y-76410574D01*
X65460282Y-76410572D01*
X65350003Y-76393106D01*
X65349997Y-76393106D01*
X65239717Y-76410572D01*
X65239712Y-76410574D01*
X65140223Y-76461266D01*
X65061266Y-76540223D01*
X65010574Y-76639712D01*
X65010572Y-76639717D01*
X64993106Y-76749996D01*
X64993106Y-76750003D01*
X65010572Y-76860282D01*
X65010574Y-76860287D01*
X65061266Y-76959776D01*
X65140223Y-77038733D01*
X65224770Y-77081812D01*
X65255837Y-77118186D01*
X65252084Y-77165874D01*
X65215710Y-77196941D01*
X65196396Y-77200000D01*
X62849398Y-77200000D01*
X62805204Y-77181694D01*
X62786898Y-77137500D01*
X62805204Y-77093306D01*
X62816698Y-77081812D01*
X62838733Y-77059777D01*
X62889426Y-76960286D01*
X62891055Y-76950003D01*
X62906894Y-76850003D01*
X62906894Y-76849996D01*
X62889427Y-76739717D01*
X62889425Y-76739712D01*
X62838733Y-76640223D01*
X62759776Y-76561266D01*
X62660287Y-76510574D01*
X62660282Y-76510572D01*
X62550003Y-76493106D01*
X62549997Y-76493106D01*
X62439717Y-76510572D01*
X62439712Y-76510574D01*
X62340223Y-76561266D01*
X62261266Y-76640223D01*
X62210574Y-76739712D01*
X62210572Y-76739717D01*
X62193106Y-76849996D01*
X62193106Y-76850003D01*
X62210572Y-76960282D01*
X62210574Y-76960287D01*
X62261266Y-77059776D01*
X62294796Y-77093306D01*
X62313102Y-77137500D01*
X62294796Y-77181694D01*
X62250602Y-77200000D01*
X61313000Y-77200000D01*
X61268806Y-77181694D01*
X61250500Y-77137500D01*
X61250500Y-77095960D01*
X61268806Y-77051766D01*
X61313000Y-77033460D01*
X61334781Y-77038689D01*
X61335036Y-77037906D01*
X61339717Y-77039427D01*
X61449997Y-77056894D01*
X61450000Y-77056894D01*
X61450003Y-77056894D01*
X61560282Y-77039427D01*
X61560283Y-77039426D01*
X61560286Y-77039426D01*
X61659777Y-76988733D01*
X61738733Y-76909777D01*
X61789426Y-76810286D01*
X61791055Y-76800003D01*
X61806894Y-76700003D01*
X61806894Y-76699996D01*
X61789427Y-76589717D01*
X61789425Y-76589712D01*
X61738733Y-76490223D01*
X61667704Y-76419194D01*
X61649398Y-76375000D01*
X61667704Y-76330806D01*
X61698514Y-76299996D01*
X61738733Y-76259777D01*
X61789426Y-76160286D01*
X61791055Y-76150003D01*
X61806894Y-76050003D01*
X61806894Y-76049996D01*
X61789427Y-75939717D01*
X61789425Y-75939712D01*
X61743716Y-75850003D01*
X64793106Y-75850003D01*
X64810572Y-75960282D01*
X64810574Y-75960287D01*
X64861266Y-76059776D01*
X64861267Y-76059777D01*
X64940223Y-76138733D01*
X65039714Y-76189426D01*
X65039717Y-76189427D01*
X65149997Y-76206894D01*
X65150000Y-76206894D01*
X65150003Y-76206894D01*
X65260282Y-76189427D01*
X65260283Y-76189426D01*
X65260286Y-76189426D01*
X65359777Y-76138733D01*
X65438733Y-76059777D01*
X65489426Y-75960286D01*
X65491055Y-75950003D01*
X65506894Y-75850003D01*
X65506894Y-75849996D01*
X65489427Y-75739717D01*
X65489425Y-75739712D01*
X65438733Y-75640223D01*
X65359776Y-75561266D01*
X65260287Y-75510574D01*
X65260282Y-75510572D01*
X65150003Y-75493106D01*
X65149997Y-75493106D01*
X65039717Y-75510572D01*
X65039712Y-75510574D01*
X64940223Y-75561266D01*
X64861266Y-75640223D01*
X64810574Y-75739712D01*
X64810572Y-75739717D01*
X64793106Y-75849996D01*
X64793106Y-75850003D01*
X61743716Y-75850003D01*
X61738733Y-75840223D01*
X61659776Y-75761266D01*
X61560287Y-75710574D01*
X61560282Y-75710572D01*
X61450003Y-75693106D01*
X61449997Y-75693106D01*
X61339717Y-75710572D01*
X61339712Y-75710574D01*
X61240223Y-75761266D01*
X61161266Y-75840223D01*
X61110574Y-75939712D01*
X61110573Y-75939716D01*
X61106635Y-75964577D01*
X61081640Y-76005363D01*
X61035126Y-76016528D01*
X60995585Y-75993187D01*
X60923176Y-75900157D01*
X60770706Y-75759798D01*
X60619893Y-75661267D01*
X60597217Y-75646452D01*
X60597214Y-75646450D01*
X60515421Y-75610572D01*
X60407428Y-75563202D01*
X60206531Y-75512328D01*
X60000000Y-75495214D01*
X59793469Y-75512328D01*
X59592572Y-75563202D01*
X59592570Y-75563202D01*
X59592569Y-75563203D01*
X59402785Y-75646450D01*
X59402782Y-75646452D01*
X59229296Y-75759796D01*
X59119070Y-75861267D01*
X59076824Y-75900157D01*
X59029800Y-75960574D01*
X59017576Y-75976279D01*
X58975985Y-75999910D01*
X58929866Y-75987211D01*
X58906525Y-75947667D01*
X58889427Y-75839717D01*
X58889425Y-75839712D01*
X58838733Y-75740223D01*
X58759776Y-75661266D01*
X58660287Y-75610574D01*
X58660282Y-75610572D01*
X58550003Y-75593106D01*
X58549997Y-75593106D01*
X58439717Y-75610572D01*
X58439712Y-75610574D01*
X58340223Y-75661266D01*
X58261266Y-75740223D01*
X58210574Y-75839712D01*
X58210572Y-75839717D01*
X58193106Y-75949996D01*
X58193106Y-75950003D01*
X58210572Y-76060282D01*
X58210574Y-76060287D01*
X58256406Y-76150237D01*
X58261267Y-76159777D01*
X58340223Y-76238733D01*
X58439714Y-76289426D01*
X58439717Y-76289427D01*
X58549997Y-76306894D01*
X58550000Y-76306894D01*
X58550003Y-76306894D01*
X58660282Y-76289427D01*
X58660283Y-76289426D01*
X58660286Y-76289426D01*
X58735576Y-76251063D01*
X58783261Y-76247311D01*
X58819636Y-76278377D01*
X58823389Y-76326065D01*
X58823062Y-76327045D01*
X58783610Y-76441965D01*
X58772295Y-76509776D01*
X58749500Y-76646381D01*
X58749500Y-76646384D01*
X58749500Y-77137500D01*
X58731194Y-77181694D01*
X58687000Y-77200000D01*
X58020229Y-77200000D01*
X57976035Y-77181694D01*
X57957729Y-77137500D01*
X57964541Y-77109126D01*
X57972301Y-77093895D01*
X57989426Y-77060286D01*
X57989507Y-77059776D01*
X58006894Y-76950003D01*
X58006894Y-76949996D01*
X57989427Y-76839717D01*
X57989425Y-76839712D01*
X57938733Y-76740223D01*
X57859776Y-76661266D01*
X57760287Y-76610574D01*
X57760282Y-76610572D01*
X57650003Y-76593106D01*
X57649997Y-76593106D01*
X57539717Y-76610572D01*
X57539712Y-76610574D01*
X57440223Y-76661266D01*
X57361266Y-76740223D01*
X57310574Y-76839712D01*
X57310572Y-76839717D01*
X57293106Y-76949996D01*
X57293106Y-76950003D01*
X57310572Y-77060282D01*
X57310574Y-77060287D01*
X57335459Y-77109126D01*
X57339212Y-77156814D01*
X57308145Y-77193188D01*
X57279771Y-77200000D01*
X55620229Y-77200000D01*
X55576035Y-77181694D01*
X55557729Y-77137500D01*
X55564541Y-77109126D01*
X55572301Y-77093895D01*
X55589426Y-77060286D01*
X55589507Y-77059776D01*
X55606894Y-76950003D01*
X55606894Y-76949996D01*
X55589427Y-76839717D01*
X55589425Y-76839712D01*
X55538733Y-76740223D01*
X55459776Y-76661266D01*
X55360287Y-76610574D01*
X55360282Y-76610572D01*
X55250003Y-76593106D01*
X55249997Y-76593106D01*
X55139717Y-76610572D01*
X55139712Y-76610574D01*
X55040223Y-76661266D01*
X54961266Y-76740223D01*
X54910574Y-76839712D01*
X54910572Y-76839717D01*
X54893106Y-76949996D01*
X54893106Y-76950003D01*
X54910572Y-77060282D01*
X54910574Y-77060287D01*
X54935459Y-77109126D01*
X54939212Y-77156814D01*
X54908145Y-77193188D01*
X54879771Y-77200000D01*
X53620229Y-77200000D01*
X53576035Y-77181694D01*
X53557729Y-77137500D01*
X53564541Y-77109126D01*
X53572301Y-77093895D01*
X53589426Y-77060286D01*
X53589507Y-77059776D01*
X53606894Y-76950003D01*
X53606894Y-76949996D01*
X53589427Y-76839717D01*
X53589425Y-76839712D01*
X53538733Y-76740223D01*
X53459776Y-76661266D01*
X53360287Y-76610574D01*
X53360282Y-76610572D01*
X53250003Y-76593106D01*
X53249997Y-76593106D01*
X53139717Y-76610572D01*
X53139712Y-76610574D01*
X53040223Y-76661266D01*
X52961266Y-76740223D01*
X52910574Y-76839712D01*
X52910572Y-76839717D01*
X52893106Y-76949996D01*
X52893106Y-76950003D01*
X52910572Y-77060282D01*
X52910574Y-77060287D01*
X52935459Y-77109126D01*
X52939212Y-77156814D01*
X52908145Y-77193188D01*
X52879771Y-77200000D01*
X51565359Y-77200000D01*
X51521165Y-77181694D01*
X51505918Y-77156814D01*
X51500043Y-77138733D01*
X51455220Y-77000781D01*
X51362287Y-76818390D01*
X51276272Y-76700000D01*
X51241964Y-76652778D01*
X51097221Y-76508035D01*
X50931613Y-76387715D01*
X50931612Y-76387714D01*
X50931610Y-76387713D01*
X50843959Y-76343052D01*
X50759471Y-76300003D01*
X55718106Y-76300003D01*
X55735572Y-76410282D01*
X55735574Y-76410287D01*
X55785379Y-76508035D01*
X55786267Y-76509777D01*
X55865223Y-76588733D01*
X55964714Y-76639426D01*
X55964717Y-76639427D01*
X56074997Y-76656894D01*
X56075000Y-76656894D01*
X56075003Y-76656894D01*
X56185282Y-76639427D01*
X56185283Y-76639426D01*
X56185286Y-76639426D01*
X56284777Y-76588733D01*
X56363733Y-76509777D01*
X56394312Y-76449761D01*
X56430686Y-76418695D01*
X56478374Y-76422448D01*
X56505688Y-76449762D01*
X56535378Y-76508034D01*
X56536267Y-76509777D01*
X56615223Y-76588733D01*
X56714714Y-76639426D01*
X56714717Y-76639427D01*
X56824997Y-76656894D01*
X56825000Y-76656894D01*
X56825003Y-76656894D01*
X56935282Y-76639427D01*
X56935283Y-76639426D01*
X56935286Y-76639426D01*
X57034777Y-76588733D01*
X57113733Y-76509777D01*
X57164426Y-76410286D01*
X57165201Y-76405395D01*
X57181894Y-76300003D01*
X57181894Y-76299996D01*
X57164427Y-76189717D01*
X57164425Y-76189712D01*
X57113733Y-76090223D01*
X57034776Y-76011266D01*
X56935287Y-75960574D01*
X56935282Y-75960572D01*
X56825003Y-75943106D01*
X56824997Y-75943106D01*
X56714717Y-75960572D01*
X56714712Y-75960574D01*
X56615223Y-76011266D01*
X56536266Y-76090223D01*
X56505688Y-76150237D01*
X56469313Y-76181304D01*
X56421626Y-76177551D01*
X56394312Y-76150237D01*
X56363733Y-76090223D01*
X56284776Y-76011266D01*
X56185287Y-75960574D01*
X56185282Y-75960572D01*
X56075003Y-75943106D01*
X56074997Y-75943106D01*
X55964717Y-75960572D01*
X55964712Y-75960574D01*
X55865223Y-76011266D01*
X55786266Y-76090223D01*
X55735574Y-76189712D01*
X55735572Y-76189717D01*
X55718106Y-76299996D01*
X55718106Y-76300003D01*
X50759471Y-76300003D01*
X50749220Y-76294780D01*
X50749217Y-76294779D01*
X50554532Y-76231522D01*
X50554533Y-76231522D01*
X50352363Y-76199501D01*
X50352353Y-76199500D01*
X50352352Y-76199500D01*
X50285799Y-76199500D01*
X50062500Y-76199500D01*
X50018306Y-76181194D01*
X50000000Y-76137000D01*
X50000000Y-75650003D01*
X53193106Y-75650003D01*
X53210572Y-75760282D01*
X53210574Y-75760287D01*
X53261266Y-75859776D01*
X53261267Y-75859777D01*
X53340223Y-75938733D01*
X53439714Y-75989426D01*
X53439717Y-75989427D01*
X53549997Y-76006894D01*
X53550000Y-76006894D01*
X53550003Y-76006894D01*
X53660282Y-75989427D01*
X53660283Y-75989426D01*
X53660286Y-75989426D01*
X53759777Y-75938733D01*
X53838733Y-75859777D01*
X53843713Y-75850003D01*
X54743106Y-75850003D01*
X54760572Y-75960282D01*
X54760574Y-75960287D01*
X54811266Y-76059776D01*
X54811267Y-76059777D01*
X54890223Y-76138733D01*
X54989714Y-76189426D01*
X54989717Y-76189427D01*
X55099997Y-76206894D01*
X55100000Y-76206894D01*
X55100003Y-76206894D01*
X55210282Y-76189427D01*
X55210283Y-76189426D01*
X55210286Y-76189426D01*
X55309777Y-76138733D01*
X55388733Y-76059777D01*
X55439426Y-75960286D01*
X55441055Y-75950003D01*
X55456894Y-75850003D01*
X55456894Y-75849996D01*
X55439427Y-75739717D01*
X55439425Y-75739712D01*
X55388733Y-75640223D01*
X55309776Y-75561266D01*
X55210287Y-75510574D01*
X55210282Y-75510572D01*
X55100003Y-75493106D01*
X55099997Y-75493106D01*
X54989717Y-75510572D01*
X54989712Y-75510574D01*
X54890223Y-75561266D01*
X54811266Y-75640223D01*
X54760574Y-75739712D01*
X54760572Y-75739717D01*
X54743106Y-75849996D01*
X54743106Y-75850003D01*
X53843713Y-75850003D01*
X53889426Y-75760286D01*
X53889427Y-75760282D01*
X53906894Y-75650003D01*
X53906894Y-75649996D01*
X53889427Y-75539717D01*
X53889425Y-75539712D01*
X53838733Y-75440223D01*
X53759776Y-75361266D01*
X53660287Y-75310574D01*
X53660282Y-75310572D01*
X53550003Y-75293106D01*
X53549997Y-75293106D01*
X53439717Y-75310572D01*
X53439712Y-75310574D01*
X53340223Y-75361266D01*
X53261266Y-75440223D01*
X53210574Y-75539712D01*
X53210572Y-75539717D01*
X53193106Y-75649996D01*
X53193106Y-75650003D01*
X50000000Y-75650003D01*
X50000000Y-73900003D01*
X52193106Y-73900003D01*
X52210572Y-74010282D01*
X52210574Y-74010287D01*
X52261266Y-74109776D01*
X52261267Y-74109777D01*
X52340223Y-74188733D01*
X52439714Y-74239426D01*
X52439717Y-74239427D01*
X52549997Y-74256894D01*
X52550000Y-74256894D01*
X52550003Y-74256894D01*
X52660282Y-74239427D01*
X52660283Y-74239426D01*
X52660286Y-74239426D01*
X52759777Y-74188733D01*
X52838733Y-74109777D01*
X52889426Y-74010286D01*
X52889427Y-74010282D01*
X52906894Y-73900003D01*
X52906894Y-73899996D01*
X52889427Y-73789717D01*
X52889425Y-73789712D01*
X52838733Y-73690223D01*
X52759776Y-73611266D01*
X52660287Y-73560574D01*
X52660282Y-73560572D01*
X52593550Y-73550003D01*
X54293106Y-73550003D01*
X54310572Y-73660282D01*
X54310574Y-73660287D01*
X54361266Y-73759776D01*
X54361267Y-73759777D01*
X54440223Y-73838733D01*
X54539714Y-73889426D01*
X54539717Y-73889427D01*
X54649997Y-73906894D01*
X54650000Y-73906894D01*
X54650003Y-73906894D01*
X54760282Y-73889427D01*
X54760283Y-73889426D01*
X54760286Y-73889426D01*
X54859777Y-73838733D01*
X54938733Y-73759777D01*
X54989426Y-73660286D01*
X54989507Y-73659776D01*
X55006894Y-73550003D01*
X55293106Y-73550003D01*
X55310572Y-73660282D01*
X55310574Y-73660287D01*
X55361266Y-73759776D01*
X55361267Y-73759777D01*
X55440223Y-73838733D01*
X55539714Y-73889426D01*
X55539717Y-73889427D01*
X55649997Y-73906894D01*
X55650000Y-73906894D01*
X55650003Y-73906894D01*
X55760282Y-73889427D01*
X55760283Y-73889426D01*
X55760286Y-73889426D01*
X55859777Y-73838733D01*
X55938733Y-73759777D01*
X55989426Y-73660286D01*
X55989507Y-73659776D01*
X56006894Y-73550003D01*
X56006894Y-73549996D01*
X55989427Y-73439717D01*
X55989425Y-73439712D01*
X55938733Y-73340223D01*
X55859776Y-73261266D01*
X55760287Y-73210574D01*
X55760282Y-73210572D01*
X55650003Y-73193106D01*
X55649997Y-73193106D01*
X55539717Y-73210572D01*
X55539712Y-73210574D01*
X55440223Y-73261266D01*
X55361266Y-73340223D01*
X55310574Y-73439712D01*
X55310572Y-73439717D01*
X55293106Y-73549996D01*
X55293106Y-73550003D01*
X55006894Y-73550003D01*
X55006894Y-73549996D01*
X54989427Y-73439717D01*
X54989425Y-73439712D01*
X54938733Y-73340223D01*
X54859776Y-73261266D01*
X54760287Y-73210574D01*
X54760282Y-73210572D01*
X54650003Y-73193106D01*
X54649997Y-73193106D01*
X54539717Y-73210572D01*
X54539712Y-73210574D01*
X54440223Y-73261266D01*
X54361266Y-73340223D01*
X54310574Y-73439712D01*
X54310572Y-73439717D01*
X54293106Y-73549996D01*
X54293106Y-73550003D01*
X52593550Y-73550003D01*
X52550003Y-73543106D01*
X52549997Y-73543106D01*
X52439717Y-73560572D01*
X52439712Y-73560574D01*
X52340223Y-73611266D01*
X52261266Y-73690223D01*
X52210574Y-73789712D01*
X52210572Y-73789717D01*
X52193106Y-73899996D01*
X52193106Y-73900003D01*
X50000000Y-73900003D01*
X50000000Y-72475003D01*
X50293106Y-72475003D01*
X50310572Y-72585282D01*
X50310574Y-72585287D01*
X50361266Y-72684776D01*
X50361267Y-72684777D01*
X50440223Y-72763733D01*
X50539714Y-72814426D01*
X50539717Y-72814427D01*
X50649997Y-72831894D01*
X50650000Y-72831894D01*
X50650003Y-72831894D01*
X50760282Y-72814427D01*
X50760283Y-72814426D01*
X50760286Y-72814426D01*
X50859777Y-72763733D01*
X50888673Y-72734837D01*
X56577940Y-72734837D01*
X56595406Y-72845116D01*
X56595408Y-72845121D01*
X56646100Y-72944610D01*
X56725057Y-73023567D01*
X56822787Y-73073363D01*
X56824548Y-73074260D01*
X56824551Y-73074261D01*
X56934831Y-73091728D01*
X56934834Y-73091728D01*
X56934837Y-73091728D01*
X57005429Y-73080546D01*
X57045120Y-73074260D01*
X57045128Y-73074255D01*
X57047878Y-73073363D01*
X57049821Y-73073515D01*
X57049979Y-73073491D01*
X57049984Y-73073528D01*
X57095566Y-73077113D01*
X57126636Y-73113485D01*
X57126639Y-73152111D01*
X57125739Y-73154881D01*
X57108272Y-73265162D01*
X57108272Y-73265169D01*
X57125738Y-73375448D01*
X57125740Y-73375453D01*
X57163725Y-73450003D01*
X57176433Y-73474943D01*
X57255389Y-73553899D01*
X57354880Y-73604592D01*
X57354883Y-73604593D01*
X57465163Y-73622060D01*
X57465166Y-73622060D01*
X57465169Y-73622060D01*
X57575448Y-73604593D01*
X57575449Y-73604592D01*
X57575452Y-73604592D01*
X57674943Y-73553899D01*
X57753899Y-73474943D01*
X57766607Y-73450003D01*
X62193106Y-73450003D01*
X62210572Y-73560282D01*
X62210574Y-73560287D01*
X62261266Y-73659776D01*
X62340223Y-73738733D01*
X62426719Y-73782805D01*
X62439714Y-73789426D01*
X62439717Y-73789427D01*
X62549997Y-73806894D01*
X62550000Y-73806894D01*
X62550003Y-73806894D01*
X62660282Y-73789427D01*
X62660283Y-73789426D01*
X62660286Y-73789426D01*
X62759777Y-73738733D01*
X62838733Y-73659777D01*
X62889426Y-73560286D01*
X62891055Y-73550003D01*
X63293106Y-73550003D01*
X63310572Y-73660282D01*
X63310574Y-73660287D01*
X63361266Y-73759776D01*
X63361267Y-73759777D01*
X63440223Y-73838733D01*
X63539714Y-73889426D01*
X63539717Y-73889427D01*
X63649997Y-73906894D01*
X63650000Y-73906894D01*
X63650003Y-73906894D01*
X63760282Y-73889427D01*
X63760283Y-73889426D01*
X63760286Y-73889426D01*
X63859777Y-73838733D01*
X63938733Y-73759777D01*
X63989426Y-73660286D01*
X63989507Y-73659776D01*
X64006894Y-73550003D01*
X64006894Y-73549996D01*
X63989427Y-73439717D01*
X63989425Y-73439712D01*
X63938733Y-73340223D01*
X63863679Y-73265169D01*
X66477940Y-73265169D01*
X66495406Y-73375448D01*
X66495408Y-73375453D01*
X66533393Y-73450003D01*
X66546101Y-73474943D01*
X66625057Y-73553899D01*
X66724548Y-73604592D01*
X66724551Y-73604593D01*
X66834831Y-73622060D01*
X66834834Y-73622060D01*
X66834837Y-73622060D01*
X66945116Y-73604593D01*
X66945117Y-73604592D01*
X66945120Y-73604592D01*
X67044611Y-73553899D01*
X67123567Y-73474943D01*
X67174260Y-73375452D01*
X67179920Y-73339717D01*
X67186210Y-73300003D01*
X68193106Y-73300003D01*
X68210572Y-73410282D01*
X68210574Y-73410287D01*
X68261266Y-73509776D01*
X68261267Y-73509777D01*
X68340223Y-73588733D01*
X68439714Y-73639426D01*
X68439717Y-73639427D01*
X68549997Y-73656894D01*
X68550000Y-73656894D01*
X68550003Y-73656894D01*
X68660282Y-73639427D01*
X68660283Y-73639426D01*
X68660286Y-73639426D01*
X68759777Y-73588733D01*
X68798507Y-73550003D01*
X69243106Y-73550003D01*
X69260572Y-73660282D01*
X69260574Y-73660287D01*
X69311266Y-73759776D01*
X69311267Y-73759777D01*
X69390223Y-73838733D01*
X69489714Y-73889426D01*
X69489717Y-73889427D01*
X69599997Y-73906894D01*
X69600000Y-73906894D01*
X69600003Y-73906894D01*
X69710282Y-73889427D01*
X69710283Y-73889426D01*
X69710286Y-73889426D01*
X69809777Y-73838733D01*
X69888733Y-73759777D01*
X69939426Y-73660286D01*
X69939507Y-73659776D01*
X69956894Y-73550003D01*
X70793106Y-73550003D01*
X70810572Y-73660282D01*
X70810574Y-73660287D01*
X70861266Y-73759776D01*
X70861267Y-73759777D01*
X70940223Y-73838733D01*
X71039714Y-73889426D01*
X71039717Y-73889427D01*
X71149997Y-73906894D01*
X71150000Y-73906894D01*
X71150003Y-73906894D01*
X71260282Y-73889427D01*
X71260283Y-73889426D01*
X71260286Y-73889426D01*
X71359777Y-73838733D01*
X71438733Y-73759777D01*
X71489426Y-73660286D01*
X71489507Y-73659776D01*
X71506894Y-73550003D01*
X72243106Y-73550003D01*
X72260572Y-73660282D01*
X72260574Y-73660287D01*
X72311266Y-73759776D01*
X72311267Y-73759777D01*
X72390223Y-73838733D01*
X72489714Y-73889426D01*
X72489717Y-73889427D01*
X72599997Y-73906894D01*
X72600000Y-73906894D01*
X72600003Y-73906894D01*
X72643510Y-73900003D01*
X74843106Y-73900003D01*
X74860572Y-74010282D01*
X74860574Y-74010287D01*
X74911266Y-74109776D01*
X74911267Y-74109777D01*
X74990223Y-74188733D01*
X75089714Y-74239426D01*
X75089717Y-74239427D01*
X75199997Y-74256894D01*
X75200000Y-74256894D01*
X75200003Y-74256894D01*
X75310282Y-74239427D01*
X75310283Y-74239426D01*
X75310286Y-74239426D01*
X75409777Y-74188733D01*
X75488733Y-74109777D01*
X75539426Y-74010286D01*
X75556894Y-73900000D01*
X75556893Y-73899997D01*
X75557475Y-73896327D01*
X75582469Y-73855540D01*
X75628983Y-73844373D01*
X75663400Y-73861910D01*
X75740223Y-73938733D01*
X75839714Y-73989426D01*
X75839717Y-73989427D01*
X75949997Y-74006894D01*
X75950000Y-74006894D01*
X75950003Y-74006894D01*
X76060282Y-73989427D01*
X76060283Y-73989426D01*
X76060286Y-73989426D01*
X76159777Y-73938733D01*
X76238733Y-73859777D01*
X76289426Y-73760286D01*
X76292840Y-73738733D01*
X76306894Y-73650003D01*
X76306894Y-73649996D01*
X76289427Y-73539717D01*
X76289425Y-73539712D01*
X76238733Y-73440223D01*
X76159776Y-73361266D01*
X76060287Y-73310574D01*
X76060282Y-73310572D01*
X75950003Y-73293106D01*
X75949997Y-73293106D01*
X75839717Y-73310572D01*
X75839712Y-73310574D01*
X75740223Y-73361266D01*
X75661266Y-73440223D01*
X75610574Y-73539712D01*
X75610573Y-73539716D01*
X75592523Y-73653673D01*
X75567529Y-73694459D01*
X75521015Y-73705625D01*
X75486599Y-73688089D01*
X75409776Y-73611266D01*
X75310287Y-73560574D01*
X75310282Y-73560572D01*
X75200003Y-73543106D01*
X75199997Y-73543106D01*
X75089717Y-73560572D01*
X75089712Y-73560574D01*
X74990223Y-73611266D01*
X74911266Y-73690223D01*
X74860574Y-73789712D01*
X74860572Y-73789717D01*
X74843106Y-73899996D01*
X74843106Y-73900003D01*
X72643510Y-73900003D01*
X72710282Y-73889427D01*
X72710283Y-73889426D01*
X72710286Y-73889426D01*
X72809777Y-73838733D01*
X72888733Y-73759777D01*
X72939426Y-73660286D01*
X72939507Y-73659776D01*
X72956894Y-73550003D01*
X72956894Y-73549996D01*
X72939427Y-73439717D01*
X72939425Y-73439712D01*
X72888733Y-73340223D01*
X72809776Y-73261266D01*
X72710287Y-73210574D01*
X72710282Y-73210572D01*
X72600003Y-73193106D01*
X72599997Y-73193106D01*
X72489717Y-73210572D01*
X72489712Y-73210574D01*
X72390223Y-73261266D01*
X72311266Y-73340223D01*
X72260574Y-73439712D01*
X72260572Y-73439717D01*
X72243106Y-73549996D01*
X72243106Y-73550003D01*
X71506894Y-73550003D01*
X71506894Y-73549996D01*
X71489427Y-73439717D01*
X71489425Y-73439712D01*
X71438733Y-73340223D01*
X71359776Y-73261266D01*
X71260287Y-73210574D01*
X71260282Y-73210572D01*
X71150003Y-73193106D01*
X71149997Y-73193106D01*
X71039717Y-73210572D01*
X71039712Y-73210574D01*
X70940223Y-73261266D01*
X70861266Y-73340223D01*
X70810574Y-73439712D01*
X70810572Y-73439717D01*
X70793106Y-73549996D01*
X70793106Y-73550003D01*
X69956894Y-73550003D01*
X69956894Y-73549996D01*
X69939427Y-73439717D01*
X69939425Y-73439712D01*
X69888733Y-73340223D01*
X69809776Y-73261266D01*
X69710287Y-73210574D01*
X69710282Y-73210572D01*
X69600003Y-73193106D01*
X69599997Y-73193106D01*
X69489717Y-73210572D01*
X69489712Y-73210574D01*
X69390223Y-73261266D01*
X69311266Y-73340223D01*
X69260574Y-73439712D01*
X69260572Y-73439717D01*
X69243106Y-73549996D01*
X69243106Y-73550003D01*
X68798507Y-73550003D01*
X68838733Y-73509777D01*
X68889426Y-73410286D01*
X68889427Y-73410282D01*
X68906894Y-73300003D01*
X68906894Y-73299996D01*
X68889427Y-73189717D01*
X68889425Y-73189712D01*
X68838733Y-73090223D01*
X68798513Y-73050003D01*
X71543106Y-73050003D01*
X71560572Y-73160282D01*
X71560574Y-73160287D01*
X71611266Y-73259776D01*
X71690223Y-73338733D01*
X71762280Y-73375448D01*
X71789714Y-73389426D01*
X71789717Y-73389427D01*
X71899997Y-73406894D01*
X71900000Y-73406894D01*
X71900003Y-73406894D01*
X72010282Y-73389427D01*
X72010283Y-73389426D01*
X72010286Y-73389426D01*
X72109777Y-73338733D01*
X72188733Y-73259777D01*
X72239426Y-73160286D01*
X72240282Y-73154881D01*
X72256894Y-73050003D01*
X72256894Y-73049996D01*
X72239427Y-72939717D01*
X72239425Y-72939712D01*
X72193716Y-72850003D01*
X76393106Y-72850003D01*
X76410572Y-72960282D01*
X76410574Y-72960287D01*
X76459031Y-73055389D01*
X76461267Y-73059777D01*
X76540223Y-73138733D01*
X76639714Y-73189426D01*
X76639717Y-73189427D01*
X76749997Y-73206894D01*
X76750000Y-73206894D01*
X76750003Y-73206894D01*
X76860282Y-73189427D01*
X76860283Y-73189426D01*
X76860286Y-73189426D01*
X76959777Y-73138733D01*
X77038733Y-73059777D01*
X77089426Y-72960286D01*
X77092684Y-72939717D01*
X77106894Y-72850003D01*
X77106894Y-72849996D01*
X77089427Y-72739717D01*
X77089425Y-72739712D01*
X77038733Y-72640223D01*
X76959776Y-72561266D01*
X76860287Y-72510574D01*
X76860282Y-72510572D01*
X76750003Y-72493106D01*
X76749997Y-72493106D01*
X76639717Y-72510572D01*
X76639712Y-72510574D01*
X76540223Y-72561266D01*
X76461266Y-72640223D01*
X76410574Y-72739712D01*
X76410572Y-72739717D01*
X76393106Y-72849996D01*
X76393106Y-72850003D01*
X72193716Y-72850003D01*
X72188733Y-72840223D01*
X72109776Y-72761266D01*
X72010287Y-72710574D01*
X72010282Y-72710572D01*
X71900003Y-72693106D01*
X71899997Y-72693106D01*
X71789717Y-72710572D01*
X71789712Y-72710574D01*
X71690223Y-72761266D01*
X71611266Y-72840223D01*
X71560574Y-72939712D01*
X71560572Y-72939717D01*
X71543106Y-73049996D01*
X71543106Y-73050003D01*
X68798513Y-73050003D01*
X68759776Y-73011266D01*
X68660287Y-72960574D01*
X68660282Y-72960572D01*
X68550003Y-72943106D01*
X68549997Y-72943106D01*
X68439717Y-72960572D01*
X68439712Y-72960574D01*
X68340223Y-73011266D01*
X68261266Y-73090223D01*
X68210574Y-73189712D01*
X68210572Y-73189717D01*
X68193106Y-73299996D01*
X68193106Y-73300003D01*
X67186210Y-73300003D01*
X67191728Y-73265169D01*
X67191728Y-73265162D01*
X67179732Y-73189425D01*
X67174260Y-73154880D01*
X67174258Y-73154876D01*
X67173363Y-73152119D01*
X67173515Y-73150177D01*
X67173491Y-73150021D01*
X67173528Y-73150015D01*
X67177114Y-73104430D01*
X67213487Y-73073363D01*
X67252119Y-73073363D01*
X67254876Y-73074258D01*
X67254880Y-73074260D01*
X67298994Y-73081247D01*
X67365163Y-73091728D01*
X67365166Y-73091728D01*
X67365169Y-73091728D01*
X67475448Y-73074261D01*
X67475449Y-73074260D01*
X67475452Y-73074260D01*
X67574943Y-73023567D01*
X67653899Y-72944611D01*
X67704592Y-72845120D01*
X67704592Y-72845117D01*
X67704593Y-72845116D01*
X67722060Y-72734837D01*
X67722060Y-72734830D01*
X67704593Y-72624551D01*
X67704591Y-72624546D01*
X67653899Y-72525057D01*
X67574942Y-72446100D01*
X67475453Y-72395408D01*
X67475448Y-72395406D01*
X67365169Y-72377940D01*
X67365163Y-72377940D01*
X67254883Y-72395406D01*
X67254878Y-72395408D01*
X67155389Y-72446100D01*
X67076432Y-72525057D01*
X67025740Y-72624546D01*
X67025738Y-72624551D01*
X67008272Y-72734830D01*
X67008272Y-72734837D01*
X67025739Y-72845117D01*
X67026638Y-72847885D01*
X67026485Y-72849827D01*
X67026509Y-72849979D01*
X67026472Y-72849984D01*
X67022883Y-72895573D01*
X66986507Y-72926638D01*
X66947885Y-72926638D01*
X66945117Y-72925739D01*
X66834837Y-72908272D01*
X66834831Y-72908272D01*
X66724551Y-72925738D01*
X66724546Y-72925740D01*
X66625057Y-72976432D01*
X66546100Y-73055389D01*
X66495408Y-73154878D01*
X66495406Y-73154883D01*
X66477940Y-73265162D01*
X66477940Y-73265169D01*
X63863679Y-73265169D01*
X63859776Y-73261266D01*
X63760287Y-73210574D01*
X63760282Y-73210572D01*
X63650003Y-73193106D01*
X63649997Y-73193106D01*
X63539717Y-73210572D01*
X63539712Y-73210574D01*
X63440223Y-73261266D01*
X63361266Y-73340223D01*
X63310574Y-73439712D01*
X63310572Y-73439717D01*
X63293106Y-73549996D01*
X63293106Y-73550003D01*
X62891055Y-73550003D01*
X62906894Y-73450003D01*
X62906894Y-73449996D01*
X62889427Y-73339717D01*
X62889425Y-73339712D01*
X62838733Y-73240223D01*
X62759776Y-73161266D01*
X62660287Y-73110574D01*
X62660282Y-73110572D01*
X62550003Y-73093106D01*
X62549997Y-73093106D01*
X62439717Y-73110572D01*
X62439712Y-73110574D01*
X62340223Y-73161266D01*
X62261266Y-73240223D01*
X62210574Y-73339712D01*
X62210572Y-73339717D01*
X62193106Y-73449996D01*
X62193106Y-73450003D01*
X57766607Y-73450003D01*
X57804592Y-73375452D01*
X57810252Y-73339717D01*
X57822060Y-73265169D01*
X57822060Y-73265162D01*
X57804593Y-73154883D01*
X57804591Y-73154878D01*
X57753899Y-73055389D01*
X57674942Y-72976432D01*
X57575453Y-72925740D01*
X57575448Y-72925738D01*
X57465169Y-72908272D01*
X57465163Y-72908272D01*
X57354881Y-72925739D01*
X57352111Y-72926639D01*
X57350167Y-72926485D01*
X57350021Y-72926509D01*
X57350015Y-72926473D01*
X57304424Y-72922881D01*
X57273360Y-72886504D01*
X57273363Y-72847878D01*
X57274255Y-72845128D01*
X57274260Y-72845120D01*
X57287151Y-72763733D01*
X57291728Y-72734837D01*
X57291728Y-72734830D01*
X57274261Y-72624551D01*
X57274259Y-72624546D01*
X57223567Y-72525057D01*
X57144610Y-72446100D01*
X57045121Y-72395408D01*
X57045116Y-72395406D01*
X56934837Y-72377940D01*
X56934831Y-72377940D01*
X56824551Y-72395406D01*
X56824546Y-72395408D01*
X56725057Y-72446100D01*
X56646100Y-72525057D01*
X56595408Y-72624546D01*
X56595406Y-72624551D01*
X56577940Y-72734830D01*
X56577940Y-72734837D01*
X50888673Y-72734837D01*
X50938733Y-72684777D01*
X50989426Y-72585286D01*
X50989427Y-72585282D01*
X51006894Y-72475003D01*
X51006894Y-72474996D01*
X50989427Y-72364717D01*
X50989425Y-72364712D01*
X50938733Y-72265223D01*
X50873513Y-72200003D01*
X53193106Y-72200003D01*
X53210572Y-72310282D01*
X53210574Y-72310287D01*
X53261266Y-72409776D01*
X53261267Y-72409777D01*
X53340223Y-72488733D01*
X53439714Y-72539426D01*
X53439717Y-72539427D01*
X53549997Y-72556894D01*
X53550000Y-72556894D01*
X53550003Y-72556894D01*
X53660282Y-72539427D01*
X53660283Y-72539426D01*
X53660286Y-72539426D01*
X53759777Y-72488733D01*
X53838733Y-72409777D01*
X53889426Y-72310286D01*
X53889427Y-72310282D01*
X53898975Y-72250003D01*
X73843106Y-72250003D01*
X73860572Y-72360282D01*
X73860574Y-72360287D01*
X73911266Y-72459776D01*
X73911267Y-72459777D01*
X73990223Y-72538733D01*
X74089714Y-72589426D01*
X74089717Y-72589427D01*
X74199997Y-72606894D01*
X74200000Y-72606894D01*
X74200003Y-72606894D01*
X74310282Y-72589427D01*
X74310283Y-72589426D01*
X74310286Y-72589426D01*
X74409777Y-72538733D01*
X74488733Y-72459777D01*
X74539426Y-72360286D01*
X74539427Y-72360282D01*
X74556894Y-72250003D01*
X74556894Y-72249996D01*
X74539427Y-72139717D01*
X74539425Y-72139712D01*
X74488733Y-72040223D01*
X74409776Y-71961266D01*
X74310287Y-71910574D01*
X74310282Y-71910572D01*
X74200003Y-71893106D01*
X74199997Y-71893106D01*
X74089717Y-71910572D01*
X74089712Y-71910574D01*
X73990223Y-71961266D01*
X73911266Y-72040223D01*
X73860574Y-72139712D01*
X73860572Y-72139717D01*
X73843106Y-72249996D01*
X73843106Y-72250003D01*
X53898975Y-72250003D01*
X53906894Y-72200003D01*
X53906894Y-72199996D01*
X53889427Y-72089717D01*
X53889425Y-72089712D01*
X53838733Y-71990223D01*
X53759776Y-71911266D01*
X53660287Y-71860574D01*
X53660282Y-71860572D01*
X53550003Y-71843106D01*
X53549997Y-71843106D01*
X53439717Y-71860572D01*
X53439712Y-71860574D01*
X53340223Y-71911266D01*
X53261266Y-71990223D01*
X53210574Y-72089712D01*
X53210572Y-72089717D01*
X53193106Y-72199996D01*
X53193106Y-72200003D01*
X50873513Y-72200003D01*
X50859776Y-72186266D01*
X50760287Y-72135574D01*
X50760282Y-72135572D01*
X50650003Y-72118106D01*
X50649997Y-72118106D01*
X50539717Y-72135572D01*
X50539712Y-72135574D01*
X50440223Y-72186266D01*
X50361266Y-72265223D01*
X50310574Y-72364712D01*
X50310572Y-72364717D01*
X50293106Y-72474996D01*
X50293106Y-72475003D01*
X50000000Y-72475003D01*
X50000000Y-71650003D01*
X60293106Y-71650003D01*
X60310572Y-71760282D01*
X60310574Y-71760287D01*
X60361266Y-71859776D01*
X60361267Y-71859777D01*
X60440223Y-71938733D01*
X60539714Y-71989426D01*
X60539717Y-71989427D01*
X60649997Y-72006894D01*
X60650000Y-72006894D01*
X60650003Y-72006894D01*
X60760282Y-71989427D01*
X60760283Y-71989426D01*
X60760286Y-71989426D01*
X60859777Y-71938733D01*
X60938733Y-71859777D01*
X60989426Y-71760286D01*
X61006894Y-71650000D01*
X61006894Y-71649996D01*
X60989427Y-71539717D01*
X60989425Y-71539712D01*
X60938733Y-71440223D01*
X60859776Y-71361266D01*
X60760287Y-71310574D01*
X60760282Y-71310572D01*
X60650003Y-71293106D01*
X60649997Y-71293106D01*
X60539717Y-71310572D01*
X60539712Y-71310574D01*
X60440223Y-71361266D01*
X60361266Y-71440223D01*
X60310574Y-71539712D01*
X60310572Y-71539717D01*
X60293106Y-71649996D01*
X60293106Y-71650003D01*
X50000000Y-71650003D01*
X50000000Y-69425000D01*
X52824417Y-69425000D01*
X52844699Y-69630930D01*
X52844700Y-69630935D01*
X52904766Y-69828949D01*
X52904768Y-69828954D01*
X53002311Y-70011444D01*
X53002319Y-70011455D01*
X53116663Y-70150785D01*
X53133590Y-70171410D01*
X53293550Y-70302685D01*
X53293553Y-70302686D01*
X53293555Y-70302688D01*
X53368912Y-70342967D01*
X53476046Y-70400232D01*
X53674066Y-70460300D01*
X53828392Y-70475500D01*
X53828396Y-70475500D01*
X53931604Y-70475500D01*
X53931608Y-70475500D01*
X54085934Y-70460300D01*
X54283954Y-70400232D01*
X54466450Y-70302685D01*
X54626410Y-70171410D01*
X54757685Y-70011450D01*
X54855232Y-69828954D01*
X54915300Y-69630934D01*
X54935583Y-69425000D01*
X73074435Y-69425000D01*
X73094631Y-69604252D01*
X73154213Y-69774527D01*
X73154214Y-69774528D01*
X73250182Y-69927260D01*
X73377739Y-70054817D01*
X73530471Y-70150785D01*
X73530472Y-70150786D01*
X73530474Y-70150786D01*
X73530478Y-70150789D01*
X73700745Y-70210368D01*
X73835046Y-70225500D01*
X73835049Y-70225500D01*
X73924951Y-70225500D01*
X73924954Y-70225500D01*
X74059255Y-70210368D01*
X74229522Y-70150789D01*
X74382262Y-70054816D01*
X74509816Y-69927262D01*
X74605789Y-69774522D01*
X74665368Y-69604255D01*
X74685565Y-69425000D01*
X74665368Y-69245745D01*
X74605789Y-69075478D01*
X74605786Y-69075474D01*
X74605786Y-69075472D01*
X74605785Y-69075471D01*
X74509817Y-68922739D01*
X74382260Y-68795182D01*
X74229528Y-68699214D01*
X74229527Y-68699213D01*
X74229522Y-68699211D01*
X74059255Y-68639632D01*
X74059254Y-68639631D01*
X74059252Y-68639631D01*
X73970347Y-68629614D01*
X73924954Y-68624500D01*
X73835046Y-68624500D01*
X73794249Y-68629096D01*
X73700747Y-68639631D01*
X73530472Y-68699213D01*
X73530471Y-68699214D01*
X73377739Y-68795182D01*
X73250182Y-68922739D01*
X73154214Y-69075471D01*
X73154213Y-69075472D01*
X73094631Y-69245747D01*
X73074435Y-69424999D01*
X73074435Y-69425000D01*
X54935583Y-69425000D01*
X54915300Y-69219066D01*
X54855232Y-69021046D01*
X54757685Y-68838550D01*
X54626410Y-68678590D01*
X54578939Y-68639632D01*
X54466455Y-68547319D01*
X54466453Y-68547318D01*
X54466450Y-68547315D01*
X54466448Y-68547313D01*
X54466444Y-68547311D01*
X54283954Y-68449768D01*
X54283949Y-68449766D01*
X54085935Y-68389700D01*
X54085930Y-68389699D01*
X53992404Y-68380487D01*
X53931608Y-68374500D01*
X53828392Y-68374500D01*
X53773047Y-68379951D01*
X53674069Y-68389699D01*
X53674064Y-68389700D01*
X53476050Y-68449766D01*
X53476045Y-68449768D01*
X53293555Y-68547311D01*
X53293544Y-68547319D01*
X53133591Y-68678588D01*
X53133588Y-68678591D01*
X53002319Y-68838544D01*
X53002311Y-68838555D01*
X52904768Y-69021045D01*
X52904766Y-69021050D01*
X52844700Y-69219064D01*
X52844699Y-69219069D01*
X52824417Y-69424999D01*
X52824417Y-69425000D01*
X50000000Y-69425000D01*
X50000000Y-64062500D01*
X50018306Y-64018306D01*
X50062499Y-64000000D01*
X77940735Y-64000000D01*
X77984927Y-64018306D01*
G37*
%TD.AperFunction*%
%TD*%
M02*
