%TF.GenerationSoftware,KiCad,Pcbnew,7.0.11-2.fc39*%
%TF.CreationDate,2024-03-17T16:29:43+01:00*%
%TF.ProjectId,mini-pcie-m.2-key-m-adapter,6d696e69-2d70-4636-9965-2d6d2e322d6b,rev?*%
%TF.SameCoordinates,Original*%
%TF.FileFunction,Copper,L2,Inr*%
%TF.FilePolarity,Positive*%
%FSLAX46Y46*%
G04 Gerber Fmt 4.6, Leading zero omitted, Abs format (unit mm)*
G04 Created by KiCad (PCBNEW 7.0.11-2.fc39) date 2024-03-17 16:29:43*
%MOMM*%
%LPD*%
G01*
G04 APERTURE LIST*
%TA.AperFunction,ComponentPad*%
%ADD10C,5.000000*%
%TD*%
%TA.AperFunction,ViaPad*%
%ADD11C,0.450000*%
%TD*%
G04 APERTURE END LIST*
D10*
%TO.N,GND*%
%TO.C,*%
X63875000Y-41175000D03*
%TD*%
%TO.N,GND*%
%TO.C,*%
X63875000Y-29175000D03*
%TD*%
%TO.N,GND*%
%TO.C,*%
X63875000Y-11175000D03*
%TD*%
%TO.N,GND*%
%TO.C,*%
X63875000Y8825000D03*
%TD*%
D11*
%TO.N,GND*%
X55100000Y-75850000D03*
X53550000Y-72200000D03*
X69100000Y-76700000D03*
X53250000Y-76950000D03*
X61450000Y-76050000D03*
X74250000Y-75650000D03*
X50650000Y-72475000D03*
X55650000Y-73550000D03*
X68550000Y-73300000D03*
X65150000Y-75850000D03*
X66200000Y-76800000D03*
X52550000Y-73900000D03*
X71800000Y-76100000D03*
X75950000Y-73650000D03*
X54650000Y-73550000D03*
X66400000Y-76150000D03*
X58550000Y-75950000D03*
X65350000Y-76750000D03*
X63650000Y-73550000D03*
X76750000Y-72850000D03*
X53550000Y-75650000D03*
X71150000Y-73550000D03*
X70000000Y-76700000D03*
X74200000Y-72250000D03*
X74250000Y-76950000D03*
X75200000Y-73900000D03*
X57650000Y-76950000D03*
X72600000Y-73550000D03*
X69600000Y-73550000D03*
X73150000Y-75850000D03*
X77600000Y-73600000D03*
X62550000Y-73450000D03*
X62550000Y-76850000D03*
X55250000Y-76950000D03*
X61450000Y-76700000D03*
%TO.N,/TX-*%
X67275000Y-76515678D03*
X66834834Y-73265166D03*
%TO.N,/TX+*%
X68025000Y-76515678D03*
X67365166Y-72734834D03*
%TO.N,+3V3*%
X72900000Y-68300000D03*
X72400000Y-66000000D03*
X70750000Y-76700000D03*
X52450000Y-76950000D03*
X69900000Y-66000000D03*
X70400000Y-68250000D03*
X71500000Y-76700000D03*
X54900000Y-68300000D03*
X75900000Y-75200000D03*
X64350000Y-75950000D03*
X75650000Y-76700000D03*
X76750000Y-76000000D03*
X77600000Y-75150000D03*
X69400000Y-68250000D03*
X68900000Y-66000000D03*
X55400000Y-66000000D03*
X50650000Y-75675000D03*
X55900000Y-68300000D03*
%TO.N,/CLK+*%
X57465166Y-73265166D03*
X56825000Y-76300000D03*
%TO.N,/CLK-*%
X56075000Y-76300000D03*
X56934834Y-72734834D03*
%TO.N,/~{RST}*%
X60650000Y-71650000D03*
%TO.N,/~{LED}*%
X71900000Y-73050000D03*
%TD*%
%TA.AperFunction,Conductor*%
%TO.N,GND*%
G36*
X67470991Y8526382D02*
G01*
X67477123Y8518352D01*
X67492855Y8493873D01*
X67492857Y8493870D01*
X67516811Y8473114D01*
X67523114Y8466811D01*
X67543870Y8442857D01*
X67543873Y8442855D01*
X67570540Y8425717D01*
X67577675Y8420376D01*
X67601626Y8399623D01*
X67630454Y8386457D01*
X67638277Y8382185D01*
X67664945Y8365047D01*
X67695358Y8356117D01*
X67703712Y8353001D01*
X67732542Y8339835D01*
X67763922Y8335321D01*
X67772628Y8333427D01*
X67803035Y8324500D01*
X67803039Y8324500D01*
X67839201Y8324500D01*
X72312000Y8324500D01*
X72356194Y8306194D01*
X72374500Y8262000D01*
X72374500Y5753035D01*
X72383427Y5722628D01*
X72385321Y5713922D01*
X72389835Y5682542D01*
X72403001Y5653712D01*
X72406117Y5645358D01*
X72415047Y5614945D01*
X72415047Y5614944D01*
X72432185Y5588277D01*
X72436458Y5580452D01*
X72446627Y5558186D01*
X72448335Y5510381D01*
X72440835Y5496179D01*
X72404028Y5444036D01*
X72355653Y5307920D01*
X72345796Y5163805D01*
X72345796Y5163801D01*
X72375186Y5022365D01*
X72375186Y5022364D01*
X72441645Y4894106D01*
X72441648Y4894101D01*
X72465948Y4868082D01*
X72482734Y4823289D01*
X72471331Y4789382D01*
X72404029Y4694037D01*
X72404028Y4694034D01*
X72404027Y4694033D01*
X72355653Y4557920D01*
X72345796Y4413805D01*
X72345796Y4413801D01*
X72375186Y4272365D01*
X72375186Y4272364D01*
X72441645Y4144106D01*
X72441648Y4144101D01*
X72465948Y4118082D01*
X72482734Y4073289D01*
X72471331Y4039382D01*
X72404029Y3944037D01*
X72404028Y3944034D01*
X72404027Y3944033D01*
X72355653Y3807920D01*
X72345796Y3663805D01*
X72345796Y3663801D01*
X72375186Y3522365D01*
X72375186Y3522364D01*
X72441645Y3394106D01*
X72441648Y3394101D01*
X72465948Y3368082D01*
X72482734Y3323289D01*
X72471331Y3289382D01*
X72404029Y3194037D01*
X72404028Y3194034D01*
X72404027Y3194033D01*
X72355653Y3057920D01*
X72345796Y2913805D01*
X72345796Y2913801D01*
X72375186Y2772365D01*
X72375186Y2772364D01*
X72441645Y2644106D01*
X72486313Y2596277D01*
X72503099Y2551483D01*
X72488571Y2516413D01*
X72489800Y2515546D01*
X72404028Y2394036D01*
X72355653Y2257920D01*
X72345796Y2113805D01*
X72345796Y2113801D01*
X72375186Y1972365D01*
X72375186Y1972364D01*
X72441645Y1844106D01*
X72441648Y1844101D01*
X72465948Y1818082D01*
X72482734Y1773289D01*
X72471331Y1739382D01*
X72404029Y1644037D01*
X72404028Y1644034D01*
X72404027Y1644033D01*
X72355653Y1507920D01*
X72345796Y1363805D01*
X72345796Y1363801D01*
X72375186Y1222365D01*
X72375186Y1222364D01*
X72430072Y1116441D01*
X72434151Y1068780D01*
X72427158Y1053898D01*
X72415046Y1035051D01*
X72406117Y1004641D01*
X72403002Y996289D01*
X72396851Y982822D01*
X72389836Y967460D01*
X72389834Y967453D01*
X72385322Y936079D01*
X72383428Y927371D01*
X72374500Y896961D01*
X72374500Y-7087000D01*
X72356194Y-7131194D01*
X72312000Y-7149500D01*
X72264045Y-7149500D01*
X72156890Y-7164228D01*
X72024392Y-7221780D01*
X72024389Y-7221782D01*
X71968165Y-7267523D01*
X71922330Y-7281213D01*
X71889248Y-7264777D01*
X71888069Y-7266227D01*
X71884754Y-7263530D01*
X71761328Y-7188473D01*
X71622230Y-7149500D01*
X71622228Y-7149500D01*
X71514051Y-7149500D01*
X71514045Y-7149500D01*
X71406890Y-7164228D01*
X71351074Y-7188473D01*
X71274391Y-7221781D01*
X71274389Y-7221782D01*
X71274388Y-7221783D01*
X71189754Y-7290638D01*
X71143919Y-7304328D01*
X71104634Y-7284816D01*
X71084753Y-7263529D01*
X70961328Y-7188473D01*
X70822230Y-7149500D01*
X70822228Y-7149500D01*
X70714051Y-7149500D01*
X70714045Y-7149500D01*
X70606890Y-7164228D01*
X70474392Y-7221780D01*
X70474389Y-7221782D01*
X70418165Y-7267523D01*
X70372330Y-7281213D01*
X70339248Y-7264777D01*
X70338069Y-7266227D01*
X70334754Y-7263530D01*
X70211328Y-7188473D01*
X70072230Y-7149500D01*
X70072228Y-7149500D01*
X69964051Y-7149500D01*
X69964045Y-7149500D01*
X69856890Y-7164228D01*
X69724392Y-7221780D01*
X69724389Y-7221782D01*
X69668165Y-7267523D01*
X69622330Y-7281213D01*
X69589248Y-7264777D01*
X69588069Y-7266227D01*
X69584754Y-7263530D01*
X69461328Y-7188473D01*
X69322230Y-7149500D01*
X69322228Y-7149500D01*
X69214051Y-7149500D01*
X69214045Y-7149500D01*
X69106890Y-7164228D01*
X68974392Y-7221780D01*
X68974389Y-7221782D01*
X68918165Y-7267523D01*
X68872330Y-7281213D01*
X68839248Y-7264777D01*
X68838069Y-7266227D01*
X68834754Y-7263530D01*
X68711328Y-7188473D01*
X68572230Y-7149500D01*
X68572228Y-7149500D01*
X68464051Y-7149500D01*
X68464045Y-7149500D01*
X68356890Y-7164228D01*
X68301074Y-7188473D01*
X68224391Y-7221781D01*
X68224389Y-7221782D01*
X68224388Y-7221783D01*
X68112336Y-7312945D01*
X68112333Y-7312948D01*
X68029028Y-7430963D01*
X67980653Y-7567079D01*
X67970796Y-7711194D01*
X67970796Y-7711199D01*
X68000186Y-7852634D01*
X68000186Y-7852635D01*
X68066645Y-7980893D01*
X68066648Y-7980897D01*
X68165244Y-8086468D01*
X68165245Y-8086469D01*
X68288671Y-8161526D01*
X68375500Y-8185854D01*
X68427769Y-8200499D01*
X68427769Y-8200500D01*
X68427772Y-8200500D01*
X68535948Y-8200500D01*
X68535949Y-8200500D01*
X68643111Y-8185771D01*
X68775609Y-8128219D01*
X68831833Y-8082476D01*
X68877666Y-8068786D01*
X68910756Y-8085216D01*
X68911931Y-8083773D01*
X68915245Y-8086469D01*
X69038671Y-8161526D01*
X69125500Y-8185854D01*
X69177769Y-8200499D01*
X69177769Y-8200500D01*
X69177772Y-8200500D01*
X69285948Y-8200500D01*
X69285949Y-8200500D01*
X69393111Y-8185771D01*
X69525609Y-8128219D01*
X69581833Y-8082476D01*
X69627666Y-8068786D01*
X69660756Y-8085216D01*
X69661931Y-8083773D01*
X69665245Y-8086469D01*
X69788671Y-8161526D01*
X69875500Y-8185854D01*
X69927769Y-8200499D01*
X69927769Y-8200500D01*
X69927772Y-8200500D01*
X70035948Y-8200500D01*
X70035949Y-8200500D01*
X70143111Y-8185771D01*
X70275609Y-8128219D01*
X70331833Y-8082476D01*
X70377666Y-8068786D01*
X70410756Y-8085216D01*
X70411931Y-8083773D01*
X70415245Y-8086469D01*
X70538671Y-8161526D01*
X70625500Y-8185854D01*
X70677769Y-8200499D01*
X70677769Y-8200500D01*
X70677772Y-8200500D01*
X70785948Y-8200500D01*
X70785949Y-8200500D01*
X70893111Y-8185771D01*
X71025609Y-8128219D01*
X71110246Y-8059360D01*
X71156080Y-8045671D01*
X71195365Y-8065183D01*
X71215245Y-8086469D01*
X71215247Y-8086470D01*
X71338671Y-8161526D01*
X71425500Y-8185854D01*
X71477769Y-8200499D01*
X71477769Y-8200500D01*
X71477772Y-8200500D01*
X71585948Y-8200500D01*
X71585949Y-8200500D01*
X71693111Y-8185771D01*
X71825609Y-8128219D01*
X71881833Y-8082476D01*
X71927666Y-8068786D01*
X71960756Y-8085216D01*
X71961931Y-8083773D01*
X71965245Y-8086469D01*
X72088671Y-8161526D01*
X72175500Y-8185854D01*
X72227769Y-8200499D01*
X72227769Y-8200500D01*
X72312000Y-8200500D01*
X72356194Y-8218806D01*
X72374500Y-8263000D01*
X72374500Y-25087000D01*
X72356194Y-25131194D01*
X72312000Y-25149500D01*
X72264045Y-25149500D01*
X72156890Y-25164228D01*
X72024392Y-25221780D01*
X72024389Y-25221782D01*
X71968165Y-25267523D01*
X71922330Y-25281213D01*
X71889248Y-25264777D01*
X71888069Y-25266227D01*
X71884754Y-25263530D01*
X71761328Y-25188473D01*
X71622230Y-25149500D01*
X71622228Y-25149500D01*
X71514051Y-25149500D01*
X71514045Y-25149500D01*
X71406890Y-25164228D01*
X71351074Y-25188473D01*
X71274391Y-25221781D01*
X71274389Y-25221782D01*
X71274388Y-25221783D01*
X71189754Y-25290638D01*
X71143919Y-25304328D01*
X71104634Y-25284816D01*
X71084753Y-25263529D01*
X70961328Y-25188473D01*
X70822230Y-25149500D01*
X70822228Y-25149500D01*
X70714051Y-25149500D01*
X70714045Y-25149500D01*
X70606890Y-25164228D01*
X70474392Y-25221780D01*
X70474389Y-25221782D01*
X70418165Y-25267523D01*
X70372330Y-25281213D01*
X70339248Y-25264777D01*
X70338069Y-25266227D01*
X70334754Y-25263530D01*
X70211328Y-25188473D01*
X70072230Y-25149500D01*
X70072228Y-25149500D01*
X69964051Y-25149500D01*
X69964045Y-25149500D01*
X69856890Y-25164228D01*
X69724392Y-25221780D01*
X69724389Y-25221782D01*
X69668165Y-25267523D01*
X69622330Y-25281213D01*
X69589248Y-25264777D01*
X69588069Y-25266227D01*
X69584754Y-25263530D01*
X69461328Y-25188473D01*
X69322230Y-25149500D01*
X69322228Y-25149500D01*
X69214051Y-25149500D01*
X69214045Y-25149500D01*
X69106890Y-25164228D01*
X68974392Y-25221780D01*
X68974389Y-25221782D01*
X68918165Y-25267523D01*
X68872330Y-25281213D01*
X68839248Y-25264777D01*
X68838069Y-25266227D01*
X68834754Y-25263530D01*
X68711328Y-25188473D01*
X68572230Y-25149500D01*
X68572228Y-25149500D01*
X68464051Y-25149500D01*
X68464045Y-25149500D01*
X68356890Y-25164228D01*
X68301074Y-25188473D01*
X68224391Y-25221781D01*
X68224389Y-25221782D01*
X68224388Y-25221783D01*
X68112336Y-25312945D01*
X68112333Y-25312948D01*
X68029028Y-25430963D01*
X67980653Y-25567079D01*
X67970796Y-25711194D01*
X67970796Y-25711199D01*
X68000186Y-25852634D01*
X68000186Y-25852635D01*
X68066645Y-25980893D01*
X68066648Y-25980897D01*
X68165244Y-26086468D01*
X68165245Y-26086469D01*
X68288671Y-26161526D01*
X68375500Y-26185854D01*
X68427769Y-26200499D01*
X68427769Y-26200500D01*
X68427772Y-26200500D01*
X68535948Y-26200500D01*
X68535949Y-26200500D01*
X68643111Y-26185771D01*
X68775609Y-26128219D01*
X68831833Y-26082476D01*
X68877666Y-26068786D01*
X68910756Y-26085216D01*
X68911931Y-26083773D01*
X68915245Y-26086469D01*
X69038671Y-26161526D01*
X69125500Y-26185854D01*
X69177769Y-26200499D01*
X69177769Y-26200500D01*
X69177772Y-26200500D01*
X69285948Y-26200500D01*
X69285949Y-26200500D01*
X69393111Y-26185771D01*
X69525609Y-26128219D01*
X69581833Y-26082476D01*
X69627666Y-26068786D01*
X69660756Y-26085216D01*
X69661931Y-26083773D01*
X69665245Y-26086469D01*
X69788671Y-26161526D01*
X69875500Y-26185854D01*
X69927769Y-26200499D01*
X69927769Y-26200500D01*
X69927772Y-26200500D01*
X70035948Y-26200500D01*
X70035949Y-26200500D01*
X70143111Y-26185771D01*
X70275609Y-26128219D01*
X70331833Y-26082476D01*
X70377666Y-26068786D01*
X70410756Y-26085216D01*
X70411931Y-26083773D01*
X70415245Y-26086469D01*
X70538671Y-26161526D01*
X70625500Y-26185854D01*
X70677769Y-26200499D01*
X70677769Y-26200500D01*
X70677772Y-26200500D01*
X70785948Y-26200500D01*
X70785949Y-26200500D01*
X70893111Y-26185771D01*
X71025609Y-26128219D01*
X71110246Y-26059360D01*
X71156080Y-26045671D01*
X71195365Y-26065183D01*
X71215245Y-26086469D01*
X71215247Y-26086470D01*
X71338671Y-26161526D01*
X71425500Y-26185854D01*
X71477769Y-26200499D01*
X71477769Y-26200500D01*
X71477772Y-26200500D01*
X71585948Y-26200500D01*
X71585949Y-26200500D01*
X71693111Y-26185771D01*
X71825609Y-26128219D01*
X71881833Y-26082476D01*
X71927666Y-26068786D01*
X71960756Y-26085216D01*
X71961931Y-26083773D01*
X71965245Y-26086469D01*
X72088671Y-26161526D01*
X72175500Y-26185854D01*
X72227769Y-26200499D01*
X72227769Y-26200500D01*
X72312000Y-26200500D01*
X72356194Y-26218806D01*
X72374500Y-26263000D01*
X72374500Y-29121961D01*
X72383428Y-29152371D01*
X72385322Y-29161079D01*
X72387325Y-29175006D01*
X72389835Y-29192457D01*
X72402998Y-29221281D01*
X72403001Y-29221286D01*
X72406117Y-29229641D01*
X72415046Y-29260052D01*
X72432184Y-29286720D01*
X72436456Y-29294544D01*
X72449619Y-29323366D01*
X72449621Y-29323369D01*
X72449623Y-29323373D01*
X72463473Y-29339357D01*
X72478580Y-29384743D01*
X72467300Y-29416327D01*
X72404028Y-29505964D01*
X72355653Y-29642079D01*
X72345796Y-29786194D01*
X72345796Y-29786199D01*
X72375186Y-29927634D01*
X72375186Y-29927635D01*
X72437291Y-30047490D01*
X72441646Y-30055895D01*
X72461845Y-30077523D01*
X72465948Y-30081916D01*
X72482734Y-30126709D01*
X72471331Y-30160617D01*
X72404028Y-30255964D01*
X72355653Y-30392079D01*
X72345796Y-30536194D01*
X72345796Y-30536199D01*
X72375186Y-30677634D01*
X72375186Y-30677635D01*
X72431159Y-30785656D01*
X72441646Y-30805895D01*
X72486312Y-30853721D01*
X72503099Y-30898514D01*
X72488578Y-30933592D01*
X72489800Y-30934454D01*
X72404028Y-31055963D01*
X72355653Y-31192079D01*
X72345796Y-31336194D01*
X72345796Y-31336199D01*
X72375186Y-31477634D01*
X72375186Y-31477635D01*
X72437291Y-31597490D01*
X72441646Y-31605895D01*
X72462001Y-31627690D01*
X72465948Y-31631916D01*
X72482734Y-31676709D01*
X72471331Y-31710617D01*
X72404028Y-31805964D01*
X72355653Y-31942079D01*
X72345796Y-32086194D01*
X72345796Y-32086199D01*
X72375186Y-32227634D01*
X72375186Y-32227635D01*
X72437291Y-32347490D01*
X72441646Y-32355895D01*
X72461165Y-32376794D01*
X72465948Y-32381916D01*
X72482734Y-32426709D01*
X72471331Y-32460617D01*
X72404028Y-32555964D01*
X72355653Y-32692079D01*
X72345796Y-32836194D01*
X72345796Y-32836199D01*
X72375186Y-32977634D01*
X72375186Y-32977635D01*
X72437291Y-33097490D01*
X72441646Y-33105895D01*
X72449536Y-33114343D01*
X72465948Y-33131916D01*
X72482734Y-33176709D01*
X72471331Y-33210617D01*
X72404028Y-33305964D01*
X72355653Y-33442079D01*
X72345796Y-33586194D01*
X72345796Y-33586199D01*
X72375186Y-33727634D01*
X72375186Y-33727635D01*
X72441645Y-33855893D01*
X72441648Y-33855897D01*
X72540244Y-33961468D01*
X72540245Y-33961469D01*
X72663572Y-34036466D01*
X72691821Y-34075069D01*
X72684499Y-34122341D01*
X72655999Y-34147192D01*
X72599389Y-34171781D01*
X72487336Y-34262945D01*
X72487333Y-34262948D01*
X72404028Y-34380963D01*
X72355653Y-34517079D01*
X72345796Y-34661194D01*
X72345796Y-34661199D01*
X72375186Y-34802634D01*
X72375186Y-34802635D01*
X72409629Y-34869105D01*
X72441646Y-34930895D01*
X72462001Y-34952690D01*
X72465948Y-34956916D01*
X72482734Y-35001709D01*
X72471331Y-35035617D01*
X72404028Y-35130964D01*
X72355653Y-35267079D01*
X72345796Y-35411194D01*
X72345796Y-35411199D01*
X72375186Y-35552634D01*
X72375186Y-35552635D01*
X72409629Y-35619105D01*
X72441646Y-35680895D01*
X72486312Y-35728721D01*
X72503099Y-35773514D01*
X72488578Y-35808592D01*
X72489800Y-35809454D01*
X72404028Y-35930963D01*
X72355653Y-36067079D01*
X72345796Y-36211194D01*
X72345796Y-36211199D01*
X72375186Y-36352634D01*
X72375186Y-36352635D01*
X72409629Y-36419105D01*
X72441646Y-36480895D01*
X72441710Y-36480963D01*
X72465948Y-36506916D01*
X72482734Y-36551709D01*
X72471331Y-36585617D01*
X72404028Y-36680964D01*
X72355653Y-36817079D01*
X72345796Y-36961194D01*
X72345796Y-36961199D01*
X72375186Y-37102634D01*
X72375186Y-37102635D01*
X72419665Y-37188474D01*
X72441646Y-37230895D01*
X72457029Y-37247366D01*
X72465948Y-37256916D01*
X72482734Y-37301709D01*
X72471331Y-37335617D01*
X72453538Y-37360824D01*
X72413096Y-37386373D01*
X72366435Y-37375843D01*
X72356800Y-37367441D01*
X72259755Y-37263531D01*
X72259754Y-37263530D01*
X72136328Y-37188473D01*
X71997230Y-37149500D01*
X71997228Y-37149500D01*
X71889051Y-37149500D01*
X71889045Y-37149500D01*
X71781890Y-37164228D01*
X71649392Y-37221780D01*
X71649389Y-37221782D01*
X71593165Y-37267523D01*
X71547330Y-37281213D01*
X71514248Y-37264777D01*
X71513069Y-37266227D01*
X71509754Y-37263530D01*
X71386328Y-37188473D01*
X71247230Y-37149500D01*
X71247228Y-37149500D01*
X71139051Y-37149500D01*
X71139045Y-37149500D01*
X71031890Y-37164228D01*
X70993363Y-37180963D01*
X70899391Y-37221781D01*
X70899389Y-37221782D01*
X70899388Y-37221783D01*
X70814754Y-37290638D01*
X70768919Y-37304328D01*
X70729634Y-37284816D01*
X70709753Y-37263529D01*
X70586328Y-37188473D01*
X70447230Y-37149500D01*
X70447228Y-37149500D01*
X70339051Y-37149500D01*
X70339045Y-37149500D01*
X70231890Y-37164228D01*
X70099392Y-37221780D01*
X70099389Y-37221782D01*
X70043165Y-37267523D01*
X69997330Y-37281213D01*
X69964248Y-37264777D01*
X69963069Y-37266227D01*
X69959754Y-37263530D01*
X69836328Y-37188473D01*
X69697230Y-37149500D01*
X69697228Y-37149500D01*
X69589051Y-37149500D01*
X69589045Y-37149500D01*
X69481890Y-37164228D01*
X69349392Y-37221780D01*
X69349389Y-37221782D01*
X69293165Y-37267523D01*
X69247330Y-37281213D01*
X69214248Y-37264777D01*
X69213069Y-37266227D01*
X69209754Y-37263530D01*
X69086328Y-37188473D01*
X68947230Y-37149500D01*
X68947228Y-37149500D01*
X68839051Y-37149500D01*
X68839045Y-37149500D01*
X68731890Y-37164228D01*
X68599392Y-37221780D01*
X68599389Y-37221782D01*
X68543165Y-37267523D01*
X68497330Y-37281213D01*
X68464248Y-37264777D01*
X68463069Y-37266227D01*
X68459754Y-37263530D01*
X68336328Y-37188473D01*
X68197230Y-37149500D01*
X68197228Y-37149500D01*
X68089051Y-37149500D01*
X68089045Y-37149500D01*
X67981890Y-37164228D01*
X67943363Y-37180963D01*
X67849391Y-37221781D01*
X67849389Y-37221782D01*
X67849388Y-37221783D01*
X67737336Y-37312945D01*
X67737333Y-37312948D01*
X67654028Y-37430963D01*
X67605653Y-37567079D01*
X67595796Y-37711194D01*
X67595796Y-37711199D01*
X67625186Y-37852634D01*
X67625186Y-37852635D01*
X67691645Y-37980893D01*
X67691648Y-37980897D01*
X67790244Y-38086468D01*
X67790245Y-38086469D01*
X67913671Y-38161526D01*
X68002322Y-38186364D01*
X68052769Y-38200499D01*
X68052769Y-38200500D01*
X68052772Y-38200500D01*
X68160948Y-38200500D01*
X68160949Y-38200500D01*
X68268111Y-38185771D01*
X68400609Y-38128219D01*
X68456833Y-38082476D01*
X68502666Y-38068786D01*
X68535756Y-38085216D01*
X68536931Y-38083773D01*
X68540245Y-38086469D01*
X68663671Y-38161526D01*
X68752322Y-38186364D01*
X68802769Y-38200499D01*
X68802769Y-38200500D01*
X68802772Y-38200500D01*
X68910948Y-38200500D01*
X68910949Y-38200500D01*
X69018111Y-38185771D01*
X69150609Y-38128219D01*
X69206833Y-38082476D01*
X69252666Y-38068786D01*
X69285756Y-38085216D01*
X69286931Y-38083773D01*
X69290245Y-38086469D01*
X69413671Y-38161526D01*
X69502322Y-38186364D01*
X69552769Y-38200499D01*
X69552769Y-38200500D01*
X69552772Y-38200500D01*
X69660948Y-38200500D01*
X69660949Y-38200500D01*
X69768111Y-38185771D01*
X69900609Y-38128219D01*
X69956833Y-38082476D01*
X70002666Y-38068786D01*
X70035756Y-38085216D01*
X70036931Y-38083773D01*
X70040245Y-38086469D01*
X70163671Y-38161526D01*
X70252322Y-38186364D01*
X70302769Y-38200499D01*
X70302769Y-38200500D01*
X70302772Y-38200500D01*
X70410948Y-38200500D01*
X70410949Y-38200500D01*
X70518111Y-38185771D01*
X70650609Y-38128219D01*
X70735246Y-38059360D01*
X70781080Y-38045671D01*
X70820365Y-38065183D01*
X70840245Y-38086469D01*
X70872620Y-38106156D01*
X70963671Y-38161526D01*
X71052322Y-38186364D01*
X71102769Y-38200499D01*
X71102769Y-38200500D01*
X71102772Y-38200500D01*
X71210948Y-38200500D01*
X71210949Y-38200500D01*
X71318111Y-38185771D01*
X71450609Y-38128219D01*
X71506833Y-38082476D01*
X71552666Y-38068786D01*
X71585756Y-38085216D01*
X71586931Y-38083773D01*
X71590245Y-38086469D01*
X71713671Y-38161526D01*
X71802322Y-38186364D01*
X71852769Y-38200499D01*
X71852769Y-38200500D01*
X71852772Y-38200500D01*
X71960948Y-38200500D01*
X71960949Y-38200500D01*
X72068111Y-38185771D01*
X72200609Y-38128219D01*
X72312665Y-38037054D01*
X72346462Y-37989173D01*
X72386902Y-37963626D01*
X72433564Y-37974156D01*
X72443195Y-37982554D01*
X72462190Y-38002892D01*
X72465948Y-38006916D01*
X72482734Y-38051710D01*
X72471331Y-38085617D01*
X72404028Y-38180964D01*
X72355653Y-38317079D01*
X72345796Y-38461194D01*
X72345796Y-38461199D01*
X72375186Y-38602634D01*
X72375186Y-38602635D01*
X72441645Y-38730893D01*
X72441648Y-38730897D01*
X72540244Y-38836468D01*
X72540245Y-38836469D01*
X72593617Y-38868925D01*
X72621866Y-38907528D01*
X72614544Y-38954800D01*
X72600586Y-38970808D01*
X72487336Y-39062944D01*
X72487333Y-39062948D01*
X72404028Y-39180963D01*
X72355653Y-39317079D01*
X72345796Y-39461194D01*
X72345796Y-39461199D01*
X72375186Y-39602634D01*
X72375186Y-39602635D01*
X72437291Y-39722490D01*
X72441646Y-39730895D01*
X72462001Y-39752690D01*
X72465948Y-39756916D01*
X72482734Y-39801709D01*
X72471331Y-39835617D01*
X72404028Y-39930964D01*
X72355653Y-40067079D01*
X72345796Y-40211194D01*
X72345796Y-40211199D01*
X72375186Y-40352634D01*
X72375186Y-40352635D01*
X72423722Y-40446304D01*
X72441646Y-40480895D01*
X72486312Y-40528721D01*
X72503099Y-40573514D01*
X72488578Y-40608592D01*
X72489800Y-40609454D01*
X72404028Y-40730963D01*
X72355653Y-40867079D01*
X72345796Y-41011194D01*
X72345796Y-41011199D01*
X72375186Y-41152634D01*
X72375186Y-41152635D01*
X72437291Y-41272490D01*
X72441646Y-41280895D01*
X72462001Y-41302690D01*
X72465948Y-41306916D01*
X72482734Y-41351709D01*
X72471331Y-41385617D01*
X72404028Y-41480964D01*
X72355653Y-41617079D01*
X72345796Y-41761194D01*
X72345796Y-41761199D01*
X72375186Y-41902634D01*
X72375186Y-41902635D01*
X72437291Y-42022490D01*
X72441646Y-42030895D01*
X72462001Y-42052690D01*
X72465948Y-42056916D01*
X72482734Y-42101709D01*
X72471331Y-42135617D01*
X72404028Y-42230964D01*
X72355653Y-42367079D01*
X72345796Y-42511194D01*
X72345796Y-42511199D01*
X72375186Y-42652634D01*
X72375186Y-42652635D01*
X72437291Y-42772490D01*
X72441646Y-42780895D01*
X72460695Y-42801291D01*
X72465948Y-42806916D01*
X72482734Y-42851709D01*
X72471331Y-42885617D01*
X72404028Y-42980964D01*
X72355653Y-43117079D01*
X72345796Y-43261194D01*
X72345796Y-43261199D01*
X72375186Y-43402634D01*
X72375186Y-43402635D01*
X72437291Y-43522490D01*
X72441646Y-43530895D01*
X72464994Y-43555895D01*
X72540244Y-43636468D01*
X72540245Y-43636469D01*
X72663669Y-43711525D01*
X72663671Y-43711525D01*
X72663672Y-43711526D01*
X72679533Y-43715970D01*
X72717150Y-43745518D01*
X72722855Y-43793012D01*
X72693306Y-43830630D01*
X72687573Y-43833477D01*
X72599389Y-43871781D01*
X72487336Y-43962945D01*
X72487333Y-43962948D01*
X72404028Y-44080963D01*
X72355653Y-44217079D01*
X72345796Y-44361194D01*
X72345796Y-44361199D01*
X72375186Y-44502634D01*
X72375186Y-44502635D01*
X72427302Y-44603213D01*
X72441646Y-44630895D01*
X72462001Y-44652690D01*
X72465948Y-44656916D01*
X72482734Y-44701709D01*
X72471331Y-44735617D01*
X72404028Y-44830964D01*
X72355653Y-44967079D01*
X72345796Y-45111194D01*
X72345796Y-45111199D01*
X72375186Y-45252634D01*
X72375186Y-45252635D01*
X72437291Y-45372490D01*
X72441646Y-45380895D01*
X72486312Y-45428721D01*
X72503099Y-45473514D01*
X72488578Y-45508592D01*
X72489800Y-45509454D01*
X72404028Y-45630963D01*
X72355653Y-45767079D01*
X72345796Y-45911194D01*
X72345796Y-45911199D01*
X72375186Y-46052634D01*
X72375186Y-46052635D01*
X72437291Y-46172490D01*
X72441646Y-46180895D01*
X72462001Y-46202690D01*
X72465948Y-46206916D01*
X72482734Y-46251709D01*
X72471331Y-46285617D01*
X72404028Y-46380964D01*
X72355653Y-46517079D01*
X72345796Y-46661194D01*
X72345796Y-46661199D01*
X72375186Y-46802634D01*
X72375186Y-46802635D01*
X72437291Y-46922490D01*
X72441646Y-46930895D01*
X72462001Y-46952690D01*
X72465948Y-46956916D01*
X72482734Y-47001709D01*
X72471331Y-47035617D01*
X72404028Y-47130964D01*
X72355653Y-47267079D01*
X72345796Y-47411194D01*
X72345796Y-47411199D01*
X72375186Y-47552634D01*
X72375186Y-47552635D01*
X72437291Y-47672490D01*
X72441646Y-47680895D01*
X72462001Y-47702690D01*
X72465948Y-47706916D01*
X72482734Y-47751709D01*
X72471331Y-47785617D01*
X72404028Y-47880964D01*
X72355653Y-48017079D01*
X72345796Y-48161194D01*
X72345796Y-48161199D01*
X72375186Y-48302634D01*
X72375186Y-48302635D01*
X72441645Y-48430893D01*
X72441648Y-48430897D01*
X72540244Y-48536468D01*
X72540245Y-48536469D01*
X72663671Y-48611526D01*
X72714520Y-48625773D01*
X72752137Y-48655323D01*
X72757840Y-48702817D01*
X72728290Y-48740434D01*
X72722559Y-48743280D01*
X72599389Y-48796781D01*
X72487336Y-48887945D01*
X72487333Y-48887948D01*
X72404028Y-49005963D01*
X72355653Y-49142079D01*
X72345796Y-49286194D01*
X72345796Y-49286199D01*
X72375186Y-49427634D01*
X72375186Y-49427635D01*
X72437291Y-49547490D01*
X72441646Y-49555895D01*
X72462001Y-49577690D01*
X72465948Y-49581916D01*
X72482734Y-49626709D01*
X72471331Y-49660617D01*
X72404028Y-49755964D01*
X72355653Y-49892079D01*
X72345796Y-50036194D01*
X72345796Y-50036199D01*
X72375186Y-50177634D01*
X72375186Y-50177635D01*
X72437291Y-50297490D01*
X72441646Y-50305895D01*
X72486312Y-50353721D01*
X72503099Y-50398514D01*
X72488578Y-50433592D01*
X72489800Y-50434454D01*
X72404028Y-50555963D01*
X72355653Y-50692079D01*
X72345796Y-50836194D01*
X72345796Y-50836199D01*
X72375186Y-50977634D01*
X72375186Y-50977635D01*
X72437291Y-51097490D01*
X72441646Y-51105895D01*
X72462001Y-51127690D01*
X72465948Y-51131916D01*
X72482734Y-51176709D01*
X72471331Y-51210617D01*
X72404028Y-51305964D01*
X72355653Y-51442079D01*
X72345796Y-51586194D01*
X72345796Y-51586199D01*
X72375186Y-51727634D01*
X72375186Y-51727635D01*
X72437291Y-51847490D01*
X72441646Y-51855895D01*
X72462001Y-51877690D01*
X72465948Y-51881916D01*
X72482734Y-51926709D01*
X72471331Y-51960617D01*
X72404028Y-52055964D01*
X72355653Y-52192079D01*
X72345796Y-52336194D01*
X72345796Y-52336199D01*
X72375186Y-52477634D01*
X72375186Y-52477635D01*
X72437291Y-52597490D01*
X72441646Y-52605895D01*
X72462001Y-52627690D01*
X72465948Y-52631916D01*
X72482734Y-52676709D01*
X72471331Y-52710617D01*
X72404028Y-52805964D01*
X72355653Y-52942079D01*
X72345796Y-53086194D01*
X72345796Y-53086199D01*
X72375186Y-53227634D01*
X72375186Y-53227635D01*
X72441645Y-53355893D01*
X72441648Y-53355897D01*
X72540244Y-53461468D01*
X72540245Y-53461469D01*
X72663671Y-53536526D01*
X72752322Y-53561364D01*
X72802769Y-53575499D01*
X72802769Y-53575500D01*
X72802772Y-53575500D01*
X72910948Y-53575500D01*
X72910949Y-53575500D01*
X73018111Y-53560771D01*
X73150609Y-53503219D01*
X73262665Y-53412054D01*
X73345971Y-53294037D01*
X73360902Y-53252023D01*
X73392949Y-53216512D01*
X73440722Y-53214062D01*
X73476235Y-53246110D01*
X73480986Y-53260238D01*
X73500186Y-53352633D01*
X73500186Y-53352635D01*
X73566645Y-53480893D01*
X73566648Y-53480897D01*
X73665244Y-53586468D01*
X73665245Y-53586469D01*
X73788671Y-53661526D01*
X73877322Y-53686364D01*
X73927769Y-53700499D01*
X73927769Y-53700500D01*
X73927772Y-53700500D01*
X74035948Y-53700500D01*
X74035949Y-53700500D01*
X74143111Y-53685771D01*
X74275609Y-53628219D01*
X74331833Y-53582476D01*
X74377666Y-53568786D01*
X74410756Y-53585216D01*
X74411931Y-53583773D01*
X74415245Y-53586469D01*
X74538671Y-53661526D01*
X74627322Y-53686364D01*
X74677769Y-53700499D01*
X74677769Y-53700500D01*
X74677772Y-53700500D01*
X74785948Y-53700500D01*
X74785949Y-53700500D01*
X74893111Y-53685771D01*
X75025609Y-53628219D01*
X75081833Y-53582476D01*
X75127666Y-53568786D01*
X75160756Y-53585216D01*
X75161931Y-53583773D01*
X75165245Y-53586469D01*
X75288671Y-53661526D01*
X75377322Y-53686364D01*
X75427769Y-53700499D01*
X75427769Y-53700500D01*
X75427772Y-53700500D01*
X75535948Y-53700500D01*
X75535949Y-53700500D01*
X75643111Y-53685771D01*
X75775609Y-53628219D01*
X75831833Y-53582476D01*
X75877666Y-53568786D01*
X75910756Y-53585216D01*
X75911931Y-53583773D01*
X75915245Y-53586469D01*
X76038671Y-53661526D01*
X76127322Y-53686364D01*
X76177769Y-53700499D01*
X76177769Y-53700500D01*
X76177772Y-53700500D01*
X76285948Y-53700500D01*
X76285949Y-53700500D01*
X76393111Y-53685771D01*
X76525609Y-53628219D01*
X76610246Y-53559360D01*
X76656080Y-53545671D01*
X76695365Y-53565183D01*
X76715245Y-53586469D01*
X76715247Y-53586470D01*
X76838671Y-53661526D01*
X76927322Y-53686364D01*
X76977769Y-53700499D01*
X76977769Y-53700500D01*
X76977772Y-53700500D01*
X77085948Y-53700500D01*
X77085949Y-53700500D01*
X77193111Y-53685771D01*
X77325609Y-53628219D01*
X77381833Y-53582476D01*
X77427666Y-53568786D01*
X77460756Y-53585216D01*
X77461931Y-53583773D01*
X77465245Y-53586469D01*
X77588671Y-53661526D01*
X77677322Y-53686364D01*
X77727769Y-53700499D01*
X77727769Y-53700500D01*
X77727772Y-53700500D01*
X77835948Y-53700500D01*
X77835949Y-53700500D01*
X77943111Y-53685771D01*
X78075609Y-53628219D01*
X78187665Y-53537054D01*
X78235941Y-53468662D01*
X78276381Y-53443116D01*
X78323043Y-53453646D01*
X78348591Y-53494088D01*
X78349500Y-53504707D01*
X78349500Y-66771961D01*
X78358428Y-66802371D01*
X78360322Y-66811079D01*
X78364834Y-66842453D01*
X78364836Y-66842460D01*
X78378001Y-66871286D01*
X78381117Y-66879641D01*
X78390046Y-66910052D01*
X78407184Y-66936720D01*
X78411456Y-66944543D01*
X78421626Y-66966810D01*
X78423335Y-67014615D01*
X78415836Y-67028818D01*
X78379028Y-67080964D01*
X78330653Y-67217079D01*
X78320796Y-67361194D01*
X78320796Y-67361199D01*
X78350186Y-67502634D01*
X78350186Y-67502635D01*
X78390738Y-67580895D01*
X78416646Y-67630895D01*
X78433220Y-67648641D01*
X78440948Y-67656916D01*
X78457734Y-67701709D01*
X78446331Y-67735617D01*
X78379028Y-67830964D01*
X78330653Y-67967079D01*
X78320796Y-68111194D01*
X78320796Y-68111199D01*
X78350186Y-68252634D01*
X78350186Y-68252635D01*
X78390738Y-68330895D01*
X78416646Y-68380895D01*
X78437001Y-68402690D01*
X78440948Y-68406916D01*
X78457734Y-68451709D01*
X78446331Y-68485617D01*
X78379028Y-68580964D01*
X78330653Y-68717079D01*
X78320796Y-68861194D01*
X78320796Y-68861199D01*
X78350186Y-69002634D01*
X78350186Y-69002635D01*
X78387927Y-69075471D01*
X78416646Y-69130895D01*
X78437001Y-69152690D01*
X78440948Y-69156916D01*
X78457734Y-69201709D01*
X78446331Y-69235617D01*
X78379028Y-69330964D01*
X78330653Y-69467079D01*
X78320796Y-69611194D01*
X78320796Y-69611199D01*
X78350186Y-69752634D01*
X78350186Y-69752635D01*
X78389732Y-69828954D01*
X78416646Y-69880895D01*
X78461312Y-69928721D01*
X78478099Y-69973514D01*
X78463578Y-70008592D01*
X78464800Y-70009454D01*
X78379028Y-70130963D01*
X78330653Y-70267079D01*
X78320796Y-70411194D01*
X78320796Y-70411199D01*
X78350186Y-70552634D01*
X78350186Y-70552635D01*
X78390738Y-70630895D01*
X78416646Y-70680895D01*
X78433220Y-70698641D01*
X78440948Y-70706916D01*
X78457734Y-70751709D01*
X78446331Y-70785617D01*
X78379028Y-70880964D01*
X78330653Y-71017079D01*
X78320796Y-71161194D01*
X78320796Y-71161199D01*
X78350186Y-71302634D01*
X78350186Y-71302635D01*
X78405071Y-71408558D01*
X78409150Y-71456219D01*
X78402157Y-71471100D01*
X78390049Y-71489941D01*
X78390047Y-71489945D01*
X78381117Y-71520358D01*
X78378001Y-71528712D01*
X78364835Y-71557542D01*
X78360321Y-71588922D01*
X78358427Y-71597628D01*
X78349500Y-71628035D01*
X78349500Y-76137000D01*
X78331194Y-76181194D01*
X78287000Y-76199500D01*
X77515892Y-76199500D01*
X77450000Y-76199500D01*
X77347648Y-76199500D01*
X77347646Y-76199500D01*
X77347636Y-76199501D01*
X77145466Y-76231522D01*
X77143074Y-76232097D01*
X77142767Y-76230821D01*
X77098837Y-76226358D01*
X77068604Y-76189288D01*
X77072779Y-76142956D01*
X77089426Y-76110286D01*
X77092604Y-76090223D01*
X77106894Y-76000003D01*
X77106894Y-75999996D01*
X77089427Y-75889717D01*
X77089425Y-75889712D01*
X77038733Y-75790223D01*
X76959776Y-75711266D01*
X76860287Y-75660574D01*
X76860282Y-75660572D01*
X76750003Y-75643106D01*
X76749997Y-75643106D01*
X76639717Y-75660572D01*
X76639712Y-75660574D01*
X76540223Y-75711266D01*
X76461266Y-75790223D01*
X76410574Y-75889712D01*
X76410572Y-75889717D01*
X76393106Y-75999996D01*
X76393106Y-76000003D01*
X76410572Y-76110282D01*
X76410574Y-76110287D01*
X76461266Y-76209776D01*
X76540223Y-76288733D01*
X76639712Y-76339425D01*
X76639714Y-76339426D01*
X76650894Y-76341196D01*
X76691680Y-76366189D01*
X76702848Y-76412703D01*
X76677855Y-76453490D01*
X76677854Y-76453490D01*
X76602781Y-76508033D01*
X76602773Y-76508040D01*
X76458035Y-76652778D01*
X76337715Y-76818386D01*
X76244780Y-77000779D01*
X76244779Y-77000782D01*
X76194082Y-77156814D01*
X76163015Y-77193188D01*
X76134641Y-77200000D01*
X61313000Y-77200000D01*
X61268806Y-77181694D01*
X61250500Y-77137500D01*
X61250500Y-76646384D01*
X61250500Y-76646381D01*
X61228690Y-76515681D01*
X66918106Y-76515681D01*
X66935572Y-76625960D01*
X66935574Y-76625965D01*
X66986266Y-76725454D01*
X66986267Y-76725455D01*
X67065223Y-76804411D01*
X67164714Y-76855104D01*
X67164717Y-76855105D01*
X67274997Y-76872572D01*
X67275000Y-76872572D01*
X67275003Y-76872572D01*
X67385282Y-76855105D01*
X67385283Y-76855104D01*
X67385286Y-76855104D01*
X67484777Y-76804411D01*
X67563733Y-76725455D01*
X67594312Y-76665439D01*
X67630686Y-76634373D01*
X67678374Y-76638126D01*
X67705688Y-76665440D01*
X67730532Y-76714201D01*
X67736267Y-76725455D01*
X67815223Y-76804411D01*
X67914714Y-76855104D01*
X67914717Y-76855105D01*
X68024997Y-76872572D01*
X68025000Y-76872572D01*
X68025003Y-76872572D01*
X68135282Y-76855105D01*
X68135283Y-76855104D01*
X68135286Y-76855104D01*
X68234777Y-76804411D01*
X68313733Y-76725455D01*
X68326701Y-76700003D01*
X70393106Y-76700003D01*
X70410572Y-76810282D01*
X70410574Y-76810287D01*
X70433410Y-76855105D01*
X70461267Y-76909777D01*
X70540223Y-76988733D01*
X70639714Y-77039426D01*
X70639717Y-77039427D01*
X70749997Y-77056894D01*
X70750000Y-77056894D01*
X70750003Y-77056894D01*
X70860282Y-77039427D01*
X70860283Y-77039426D01*
X70860286Y-77039426D01*
X70959777Y-76988733D01*
X71038733Y-76909777D01*
X71069312Y-76849761D01*
X71105686Y-76818695D01*
X71153374Y-76822448D01*
X71180687Y-76849761D01*
X71211267Y-76909777D01*
X71290223Y-76988733D01*
X71389714Y-77039426D01*
X71389717Y-77039427D01*
X71499997Y-77056894D01*
X71500000Y-77056894D01*
X71500003Y-77056894D01*
X71610282Y-77039427D01*
X71610283Y-77039426D01*
X71610286Y-77039426D01*
X71709777Y-76988733D01*
X71788733Y-76909777D01*
X71839426Y-76810286D01*
X71840357Y-76804411D01*
X71856894Y-76700003D01*
X75293106Y-76700003D01*
X75310572Y-76810282D01*
X75310574Y-76810287D01*
X75333410Y-76855105D01*
X75361267Y-76909777D01*
X75440223Y-76988733D01*
X75539714Y-77039426D01*
X75539717Y-77039427D01*
X75649997Y-77056894D01*
X75650000Y-77056894D01*
X75650003Y-77056894D01*
X75760282Y-77039427D01*
X75760283Y-77039426D01*
X75760286Y-77039426D01*
X75859777Y-76988733D01*
X75938733Y-76909777D01*
X75989426Y-76810286D01*
X75990357Y-76804411D01*
X76006894Y-76700003D01*
X76006894Y-76699996D01*
X75989427Y-76589717D01*
X75989425Y-76589712D01*
X75938733Y-76490223D01*
X75859776Y-76411266D01*
X75760287Y-76360574D01*
X75760282Y-76360572D01*
X75650003Y-76343106D01*
X75649997Y-76343106D01*
X75539717Y-76360572D01*
X75539712Y-76360574D01*
X75440223Y-76411266D01*
X75361266Y-76490223D01*
X75310574Y-76589712D01*
X75310572Y-76589717D01*
X75293106Y-76699996D01*
X75293106Y-76700003D01*
X71856894Y-76700003D01*
X71856894Y-76699996D01*
X71839427Y-76589717D01*
X71839425Y-76589712D01*
X71788733Y-76490223D01*
X71709776Y-76411266D01*
X71610287Y-76360574D01*
X71610282Y-76360572D01*
X71500003Y-76343106D01*
X71499997Y-76343106D01*
X71389717Y-76360572D01*
X71389712Y-76360574D01*
X71290223Y-76411266D01*
X71211266Y-76490223D01*
X71180688Y-76550237D01*
X71144313Y-76581304D01*
X71096626Y-76577551D01*
X71069312Y-76550237D01*
X71038733Y-76490223D01*
X70959776Y-76411266D01*
X70860287Y-76360574D01*
X70860282Y-76360572D01*
X70750003Y-76343106D01*
X70749997Y-76343106D01*
X70639717Y-76360572D01*
X70639712Y-76360574D01*
X70540223Y-76411266D01*
X70461266Y-76490223D01*
X70410574Y-76589712D01*
X70410572Y-76589717D01*
X70393106Y-76699996D01*
X70393106Y-76700003D01*
X68326701Y-76700003D01*
X68364426Y-76625964D01*
X68366864Y-76610572D01*
X68381894Y-76515681D01*
X68381894Y-76515674D01*
X68364427Y-76405395D01*
X68364425Y-76405390D01*
X68313733Y-76305901D01*
X68234776Y-76226944D01*
X68135287Y-76176252D01*
X68135282Y-76176250D01*
X68025003Y-76158784D01*
X68024997Y-76158784D01*
X67914717Y-76176250D01*
X67914712Y-76176252D01*
X67815223Y-76226944D01*
X67736266Y-76305901D01*
X67705688Y-76365915D01*
X67669313Y-76396982D01*
X67621626Y-76393229D01*
X67594312Y-76365915D01*
X67563733Y-76305901D01*
X67484776Y-76226944D01*
X67385287Y-76176252D01*
X67385282Y-76176250D01*
X67275003Y-76158784D01*
X67274997Y-76158784D01*
X67164717Y-76176250D01*
X67164712Y-76176252D01*
X67065223Y-76226944D01*
X66986266Y-76305901D01*
X66935574Y-76405390D01*
X66935572Y-76405395D01*
X66918106Y-76515674D01*
X66918106Y-76515681D01*
X61228690Y-76515681D01*
X61216390Y-76441968D01*
X61149100Y-76245958D01*
X61050465Y-76063697D01*
X61050464Y-76063695D01*
X60961973Y-75950003D01*
X63993106Y-75950003D01*
X64010572Y-76060282D01*
X64010574Y-76060287D01*
X64052695Y-76142954D01*
X64061267Y-76159777D01*
X64140223Y-76238733D01*
X64239714Y-76289426D01*
X64239717Y-76289427D01*
X64349997Y-76306894D01*
X64350000Y-76306894D01*
X64350003Y-76306894D01*
X64460282Y-76289427D01*
X64460283Y-76289426D01*
X64460286Y-76289426D01*
X64559777Y-76238733D01*
X64638733Y-76159777D01*
X64689426Y-76060286D01*
X64697190Y-76011267D01*
X64706894Y-75950003D01*
X64706894Y-75949996D01*
X64689427Y-75839717D01*
X64689425Y-75839712D01*
X64638733Y-75740223D01*
X64559776Y-75661266D01*
X64460287Y-75610574D01*
X64460282Y-75610572D01*
X64350003Y-75593106D01*
X64349997Y-75593106D01*
X64239717Y-75610572D01*
X64239712Y-75610574D01*
X64140223Y-75661266D01*
X64061266Y-75740223D01*
X64010574Y-75839712D01*
X64010572Y-75839717D01*
X63993106Y-75949996D01*
X63993106Y-75950003D01*
X60961973Y-75950003D01*
X60923179Y-75900161D01*
X60923176Y-75900157D01*
X60770706Y-75759798D01*
X60696422Y-75711266D01*
X60597217Y-75646452D01*
X60597214Y-75646450D01*
X60589591Y-75643106D01*
X60407428Y-75563202D01*
X60206531Y-75512328D01*
X60000000Y-75495214D01*
X59793469Y-75512328D01*
X59592572Y-75563202D01*
X59592570Y-75563202D01*
X59592569Y-75563203D01*
X59402785Y-75646450D01*
X59402782Y-75646452D01*
X59229296Y-75759796D01*
X59076829Y-75900152D01*
X59076820Y-75900161D01*
X58949535Y-76063695D01*
X58949534Y-76063697D01*
X58898076Y-76158784D01*
X58858402Y-76232097D01*
X58850901Y-76245957D01*
X58850900Y-76245958D01*
X58791600Y-76418695D01*
X58783610Y-76441968D01*
X58749500Y-76646381D01*
X58749500Y-76646384D01*
X58749500Y-77137500D01*
X58731194Y-77181694D01*
X58687000Y-77200000D01*
X52820229Y-77200000D01*
X52776035Y-77181694D01*
X52757729Y-77137500D01*
X52764541Y-77109126D01*
X52789425Y-77060287D01*
X52789426Y-77060286D01*
X52789427Y-77060282D01*
X52806894Y-76950003D01*
X52806894Y-76949996D01*
X52789427Y-76839717D01*
X52789425Y-76839712D01*
X52738733Y-76740223D01*
X52659776Y-76661266D01*
X52560287Y-76610574D01*
X52560282Y-76610572D01*
X52450003Y-76593106D01*
X52449997Y-76593106D01*
X52339717Y-76610572D01*
X52339712Y-76610574D01*
X52240223Y-76661266D01*
X52161266Y-76740223D01*
X52110574Y-76839712D01*
X52110572Y-76839717D01*
X52093106Y-76949996D01*
X52093106Y-76950003D01*
X52110572Y-77060282D01*
X52110574Y-77060287D01*
X52135459Y-77109126D01*
X52139212Y-77156814D01*
X52108145Y-77193188D01*
X52079771Y-77200000D01*
X51565359Y-77200000D01*
X51521165Y-77181694D01*
X51505918Y-77156814D01*
X51455220Y-77000781D01*
X51362287Y-76818390D01*
X51276272Y-76700000D01*
X51241964Y-76652778D01*
X51097221Y-76508035D01*
X50931613Y-76387715D01*
X50931612Y-76387714D01*
X50931610Y-76387713D01*
X50836840Y-76339425D01*
X50759471Y-76300003D01*
X55718106Y-76300003D01*
X55735572Y-76410282D01*
X55735574Y-76410287D01*
X55786266Y-76509776D01*
X55786267Y-76509777D01*
X55865223Y-76588733D01*
X55964714Y-76639426D01*
X55964717Y-76639427D01*
X56074997Y-76656894D01*
X56075000Y-76656894D01*
X56075003Y-76656894D01*
X56185282Y-76639427D01*
X56185283Y-76639426D01*
X56185286Y-76639426D01*
X56284777Y-76588733D01*
X56363733Y-76509777D01*
X56394312Y-76449761D01*
X56430686Y-76418695D01*
X56478374Y-76422448D01*
X56505688Y-76449762D01*
X56535381Y-76508040D01*
X56536267Y-76509777D01*
X56615223Y-76588733D01*
X56714714Y-76639426D01*
X56714717Y-76639427D01*
X56824997Y-76656894D01*
X56825000Y-76656894D01*
X56825003Y-76656894D01*
X56935282Y-76639427D01*
X56935283Y-76639426D01*
X56935286Y-76639426D01*
X57034777Y-76588733D01*
X57113733Y-76509777D01*
X57164426Y-76410286D01*
X57165201Y-76405395D01*
X57181894Y-76300003D01*
X57181894Y-76299996D01*
X57164427Y-76189717D01*
X57164425Y-76189712D01*
X57113733Y-76090223D01*
X57034776Y-76011266D01*
X56935287Y-75960574D01*
X56935282Y-75960572D01*
X56825003Y-75943106D01*
X56824997Y-75943106D01*
X56714717Y-75960572D01*
X56714712Y-75960574D01*
X56615223Y-76011266D01*
X56536266Y-76090223D01*
X56505688Y-76150237D01*
X56469313Y-76181304D01*
X56421626Y-76177551D01*
X56394312Y-76150237D01*
X56363733Y-76090223D01*
X56284776Y-76011266D01*
X56185287Y-75960574D01*
X56185282Y-75960572D01*
X56075003Y-75943106D01*
X56074997Y-75943106D01*
X55964717Y-75960572D01*
X55964712Y-75960574D01*
X55865223Y-76011266D01*
X55786266Y-76090223D01*
X55735574Y-76189712D01*
X55735572Y-76189717D01*
X55718106Y-76299996D01*
X55718106Y-76300003D01*
X50759471Y-76300003D01*
X50749220Y-76294780D01*
X50749217Y-76294779D01*
X50554532Y-76231522D01*
X50554533Y-76231522D01*
X50352363Y-76199501D01*
X50352353Y-76199500D01*
X50352352Y-76199500D01*
X50285799Y-76199500D01*
X49565645Y-76199500D01*
X49521451Y-76181194D01*
X49503145Y-76137000D01*
X49503145Y-75675003D01*
X50293106Y-75675003D01*
X50310572Y-75785282D01*
X50310574Y-75785287D01*
X50361266Y-75884776D01*
X50361267Y-75884777D01*
X50440223Y-75963733D01*
X50539714Y-76014426D01*
X50539717Y-76014427D01*
X50649997Y-76031894D01*
X50650000Y-76031894D01*
X50650003Y-76031894D01*
X50760282Y-76014427D01*
X50760283Y-76014426D01*
X50760286Y-76014426D01*
X50859777Y-75963733D01*
X50938733Y-75884777D01*
X50989426Y-75785286D01*
X50993463Y-75759798D01*
X51006894Y-75675003D01*
X51006894Y-75674996D01*
X50989427Y-75564717D01*
X50989425Y-75564712D01*
X50938733Y-75465223D01*
X50859776Y-75386266D01*
X50760287Y-75335574D01*
X50760282Y-75335572D01*
X50650003Y-75318106D01*
X50649997Y-75318106D01*
X50539717Y-75335572D01*
X50539712Y-75335574D01*
X50440223Y-75386266D01*
X50361266Y-75465223D01*
X50310574Y-75564712D01*
X50310572Y-75564717D01*
X50293106Y-75674996D01*
X50293106Y-75675003D01*
X49503145Y-75675003D01*
X49503145Y-75200003D01*
X75543106Y-75200003D01*
X75560572Y-75310282D01*
X75560574Y-75310287D01*
X75599288Y-75386267D01*
X75611267Y-75409777D01*
X75690223Y-75488733D01*
X75789714Y-75539426D01*
X75789717Y-75539427D01*
X75899997Y-75556894D01*
X75900000Y-75556894D01*
X75900003Y-75556894D01*
X76010282Y-75539427D01*
X76010283Y-75539426D01*
X76010286Y-75539426D01*
X76109777Y-75488733D01*
X76188733Y-75409777D01*
X76239426Y-75310286D01*
X76239427Y-75310282D01*
X76256894Y-75200003D01*
X76256894Y-75199996D01*
X76248976Y-75150003D01*
X77243106Y-75150003D01*
X77260572Y-75260282D01*
X77260574Y-75260287D01*
X77298935Y-75335574D01*
X77311267Y-75359777D01*
X77390223Y-75438733D01*
X77489714Y-75489426D01*
X77489717Y-75489427D01*
X77599997Y-75506894D01*
X77600000Y-75506894D01*
X77600003Y-75506894D01*
X77710282Y-75489427D01*
X77710283Y-75489426D01*
X77710286Y-75489426D01*
X77809777Y-75438733D01*
X77888733Y-75359777D01*
X77939426Y-75260286D01*
X77939427Y-75260282D01*
X77956894Y-75150003D01*
X77956894Y-75149996D01*
X77939427Y-75039717D01*
X77939425Y-75039712D01*
X77888733Y-74940223D01*
X77809776Y-74861266D01*
X77710287Y-74810574D01*
X77710282Y-74810572D01*
X77600003Y-74793106D01*
X77599997Y-74793106D01*
X77489717Y-74810572D01*
X77489712Y-74810574D01*
X77390223Y-74861266D01*
X77311266Y-74940223D01*
X77260574Y-75039712D01*
X77260572Y-75039717D01*
X77243106Y-75149996D01*
X77243106Y-75150003D01*
X76248976Y-75150003D01*
X76239427Y-75089717D01*
X76239425Y-75089712D01*
X76188733Y-74990223D01*
X76109776Y-74911266D01*
X76010287Y-74860574D01*
X76010282Y-74860572D01*
X75900003Y-74843106D01*
X75899997Y-74843106D01*
X75789717Y-74860572D01*
X75789712Y-74860574D01*
X75690223Y-74911266D01*
X75611266Y-74990223D01*
X75560574Y-75089712D01*
X75560572Y-75089717D01*
X75543106Y-75199996D01*
X75543106Y-75200003D01*
X49503145Y-75200003D01*
X49503145Y-72734837D01*
X56577940Y-72734837D01*
X56595406Y-72845116D01*
X56595408Y-72845121D01*
X56646100Y-72944610D01*
X56725057Y-73023567D01*
X56822787Y-73073363D01*
X56824548Y-73074260D01*
X56824551Y-73074261D01*
X56934831Y-73091728D01*
X56934834Y-73091728D01*
X56934837Y-73091728D01*
X57005429Y-73080546D01*
X57045120Y-73074260D01*
X57045128Y-73074255D01*
X57047878Y-73073363D01*
X57049821Y-73073515D01*
X57049979Y-73073491D01*
X57049984Y-73073528D01*
X57095566Y-73077113D01*
X57126636Y-73113485D01*
X57126639Y-73152111D01*
X57125739Y-73154881D01*
X57108272Y-73265162D01*
X57108272Y-73265169D01*
X57125738Y-73375448D01*
X57125740Y-73375453D01*
X57141760Y-73406894D01*
X57176433Y-73474943D01*
X57255389Y-73553899D01*
X57354880Y-73604592D01*
X57354883Y-73604593D01*
X57465163Y-73622060D01*
X57465166Y-73622060D01*
X57465169Y-73622060D01*
X57575448Y-73604593D01*
X57575449Y-73604592D01*
X57575452Y-73604592D01*
X57674943Y-73553899D01*
X57753899Y-73474943D01*
X57804592Y-73375452D01*
X57822060Y-73265169D01*
X66477940Y-73265169D01*
X66495406Y-73375448D01*
X66495408Y-73375453D01*
X66511428Y-73406894D01*
X66546101Y-73474943D01*
X66625057Y-73553899D01*
X66724548Y-73604592D01*
X66724551Y-73604593D01*
X66834831Y-73622060D01*
X66834834Y-73622060D01*
X66834837Y-73622060D01*
X66945116Y-73604593D01*
X66945117Y-73604592D01*
X66945120Y-73604592D01*
X67044611Y-73553899D01*
X67123567Y-73474943D01*
X67174260Y-73375452D01*
X67191728Y-73265166D01*
X67191728Y-73265162D01*
X67175116Y-73160286D01*
X67174260Y-73154880D01*
X67174258Y-73154876D01*
X67173363Y-73152119D01*
X67173515Y-73150177D01*
X67173491Y-73150021D01*
X67173528Y-73150015D01*
X67177114Y-73104430D01*
X67213487Y-73073363D01*
X67252119Y-73073363D01*
X67254876Y-73074258D01*
X67254880Y-73074260D01*
X67298994Y-73081247D01*
X67365163Y-73091728D01*
X67365166Y-73091728D01*
X67365169Y-73091728D01*
X67475448Y-73074261D01*
X67475449Y-73074260D01*
X67475452Y-73074260D01*
X67523059Y-73050003D01*
X71543106Y-73050003D01*
X71560572Y-73160282D01*
X71560574Y-73160287D01*
X71611266Y-73259776D01*
X71690223Y-73338733D01*
X71762280Y-73375448D01*
X71789714Y-73389426D01*
X71789717Y-73389427D01*
X71899997Y-73406894D01*
X71900000Y-73406894D01*
X71900003Y-73406894D01*
X72010282Y-73389427D01*
X72010283Y-73389426D01*
X72010286Y-73389426D01*
X72109777Y-73338733D01*
X72188733Y-73259777D01*
X72239426Y-73160286D01*
X72240282Y-73154881D01*
X72256894Y-73050003D01*
X72256894Y-73049996D01*
X72239427Y-72939717D01*
X72239425Y-72939712D01*
X72188733Y-72840223D01*
X72109776Y-72761266D01*
X72010287Y-72710574D01*
X72010282Y-72710572D01*
X71900003Y-72693106D01*
X71899997Y-72693106D01*
X71789717Y-72710572D01*
X71789712Y-72710574D01*
X71690223Y-72761266D01*
X71611266Y-72840223D01*
X71560574Y-72939712D01*
X71560572Y-72939717D01*
X71543106Y-73049996D01*
X71543106Y-73050003D01*
X67523059Y-73050003D01*
X67574943Y-73023567D01*
X67653899Y-72944611D01*
X67704592Y-72845120D01*
X67704592Y-72845117D01*
X67704593Y-72845116D01*
X67722060Y-72734837D01*
X67722060Y-72734830D01*
X67704593Y-72624551D01*
X67704591Y-72624546D01*
X67653899Y-72525057D01*
X67574942Y-72446100D01*
X67475453Y-72395408D01*
X67475448Y-72395406D01*
X67365169Y-72377940D01*
X67365163Y-72377940D01*
X67254883Y-72395406D01*
X67254878Y-72395408D01*
X67155389Y-72446100D01*
X67076432Y-72525057D01*
X67025740Y-72624546D01*
X67025738Y-72624551D01*
X67008272Y-72734830D01*
X67008272Y-72734837D01*
X67025739Y-72845117D01*
X67026638Y-72847885D01*
X67026485Y-72849827D01*
X67026509Y-72849979D01*
X67026472Y-72849984D01*
X67022883Y-72895573D01*
X66986507Y-72926638D01*
X66947885Y-72926638D01*
X66945117Y-72925739D01*
X66834837Y-72908272D01*
X66834831Y-72908272D01*
X66724551Y-72925738D01*
X66724546Y-72925740D01*
X66625057Y-72976432D01*
X66546100Y-73055389D01*
X66495408Y-73154878D01*
X66495406Y-73154883D01*
X66477940Y-73265162D01*
X66477940Y-73265169D01*
X57822060Y-73265169D01*
X57822060Y-73265166D01*
X57822060Y-73265162D01*
X57804593Y-73154883D01*
X57804591Y-73154878D01*
X57753899Y-73055389D01*
X57674942Y-72976432D01*
X57575453Y-72925740D01*
X57575448Y-72925738D01*
X57465169Y-72908272D01*
X57465163Y-72908272D01*
X57354881Y-72925739D01*
X57352111Y-72926639D01*
X57350167Y-72926485D01*
X57350021Y-72926509D01*
X57350015Y-72926473D01*
X57304424Y-72922881D01*
X57273360Y-72886504D01*
X57273363Y-72847878D01*
X57274255Y-72845128D01*
X57274260Y-72845120D01*
X57280546Y-72805429D01*
X57291728Y-72734837D01*
X57291728Y-72734830D01*
X57274261Y-72624551D01*
X57274259Y-72624546D01*
X57223567Y-72525057D01*
X57144610Y-72446100D01*
X57045121Y-72395408D01*
X57045116Y-72395406D01*
X56934837Y-72377940D01*
X56934831Y-72377940D01*
X56824551Y-72395406D01*
X56824546Y-72395408D01*
X56725057Y-72446100D01*
X56646100Y-72525057D01*
X56595408Y-72624546D01*
X56595406Y-72624551D01*
X56577940Y-72734830D01*
X56577940Y-72734837D01*
X49503145Y-72734837D01*
X49503145Y-71650003D01*
X60293106Y-71650003D01*
X60310572Y-71760282D01*
X60310574Y-71760287D01*
X60361266Y-71859776D01*
X60361267Y-71859777D01*
X60440223Y-71938733D01*
X60539714Y-71989426D01*
X60539717Y-71989427D01*
X60649997Y-72006894D01*
X60650000Y-72006894D01*
X60650003Y-72006894D01*
X60760282Y-71989427D01*
X60760283Y-71989426D01*
X60760286Y-71989426D01*
X60859777Y-71938733D01*
X60938733Y-71859777D01*
X60989426Y-71760286D01*
X61006894Y-71650000D01*
X61006894Y-71649996D01*
X60989427Y-71539717D01*
X60989425Y-71539712D01*
X60938733Y-71440223D01*
X60859776Y-71361266D01*
X60760287Y-71310574D01*
X60760282Y-71310572D01*
X60650003Y-71293106D01*
X60649997Y-71293106D01*
X60539717Y-71310572D01*
X60539712Y-71310574D01*
X60440223Y-71361266D01*
X60361266Y-71440223D01*
X60310574Y-71539712D01*
X60310572Y-71539717D01*
X60293106Y-71649996D01*
X60293106Y-71650003D01*
X49503145Y-71650003D01*
X49503145Y-69425000D01*
X52824417Y-69425000D01*
X52844699Y-69630930D01*
X52844700Y-69630935D01*
X52904766Y-69828949D01*
X52904768Y-69828954D01*
X53002311Y-70011444D01*
X53002319Y-70011455D01*
X53116663Y-70150785D01*
X53133590Y-70171410D01*
X53293550Y-70302685D01*
X53293553Y-70302686D01*
X53293555Y-70302688D01*
X53361118Y-70338801D01*
X53476046Y-70400232D01*
X53674066Y-70460300D01*
X53828392Y-70475500D01*
X53828396Y-70475500D01*
X53931604Y-70475500D01*
X53931608Y-70475500D01*
X54085934Y-70460300D01*
X54283954Y-70400232D01*
X54466450Y-70302685D01*
X54626410Y-70171410D01*
X54757685Y-70011450D01*
X54855232Y-69828954D01*
X54915300Y-69630934D01*
X54935583Y-69425000D01*
X73074435Y-69425000D01*
X73094631Y-69604252D01*
X73094631Y-69604254D01*
X73094632Y-69604255D01*
X73146552Y-69752635D01*
X73154213Y-69774527D01*
X73154214Y-69774528D01*
X73250182Y-69927260D01*
X73377739Y-70054817D01*
X73530471Y-70150785D01*
X73530472Y-70150786D01*
X73530474Y-70150786D01*
X73530478Y-70150789D01*
X73700745Y-70210368D01*
X73835046Y-70225500D01*
X73835049Y-70225500D01*
X73924951Y-70225500D01*
X73924954Y-70225500D01*
X74059255Y-70210368D01*
X74229522Y-70150789D01*
X74382262Y-70054816D01*
X74509816Y-69927262D01*
X74605789Y-69774522D01*
X74665368Y-69604255D01*
X74685565Y-69425000D01*
X74665368Y-69245745D01*
X74605789Y-69075478D01*
X74605786Y-69075474D01*
X74605786Y-69075472D01*
X74605785Y-69075471D01*
X74509817Y-68922739D01*
X74382260Y-68795182D01*
X74229528Y-68699214D01*
X74229527Y-68699213D01*
X74229522Y-68699211D01*
X74059255Y-68639632D01*
X74059254Y-68639631D01*
X74059252Y-68639631D01*
X73970347Y-68629614D01*
X73924954Y-68624500D01*
X73835046Y-68624500D01*
X73794249Y-68629096D01*
X73700747Y-68639631D01*
X73530472Y-68699213D01*
X73530471Y-68699214D01*
X73377739Y-68795182D01*
X73250182Y-68922739D01*
X73154214Y-69075471D01*
X73154213Y-69075472D01*
X73094631Y-69245747D01*
X73074435Y-69424999D01*
X73074435Y-69425000D01*
X54935583Y-69425000D01*
X54915300Y-69219066D01*
X54855232Y-69021046D01*
X54757685Y-68838550D01*
X54657997Y-68717079D01*
X54643392Y-68699282D01*
X54629506Y-68653507D01*
X54652056Y-68611320D01*
X54697831Y-68597434D01*
X54720076Y-68603943D01*
X54789714Y-68639426D01*
X54789715Y-68639426D01*
X54789717Y-68639427D01*
X54899997Y-68656894D01*
X54900000Y-68656894D01*
X54900003Y-68656894D01*
X55010282Y-68639427D01*
X55010283Y-68639426D01*
X55010286Y-68639426D01*
X55109777Y-68588733D01*
X55188733Y-68509777D01*
X55239426Y-68410286D01*
X55243106Y-68387054D01*
X55256894Y-68300003D01*
X55543106Y-68300003D01*
X55560572Y-68410282D01*
X55560574Y-68410287D01*
X55611266Y-68509776D01*
X55611267Y-68509777D01*
X55690223Y-68588733D01*
X55789714Y-68639426D01*
X55789717Y-68639427D01*
X55899997Y-68656894D01*
X55900000Y-68656894D01*
X55900003Y-68656894D01*
X56010282Y-68639427D01*
X56010283Y-68639426D01*
X56010286Y-68639426D01*
X56109777Y-68588733D01*
X56188733Y-68509777D01*
X56239426Y-68410286D01*
X56243106Y-68387054D01*
X56256894Y-68300003D01*
X56256894Y-68299996D01*
X56248976Y-68250003D01*
X69043106Y-68250003D01*
X69060572Y-68360282D01*
X69060574Y-68360287D01*
X69106166Y-68449766D01*
X69111267Y-68459777D01*
X69190223Y-68538733D01*
X69289714Y-68589426D01*
X69289717Y-68589427D01*
X69399997Y-68606894D01*
X69400000Y-68606894D01*
X69400003Y-68606894D01*
X69510282Y-68589427D01*
X69510283Y-68589426D01*
X69510286Y-68589426D01*
X69609777Y-68538733D01*
X69688733Y-68459777D01*
X69739426Y-68360286D01*
X69739427Y-68360282D01*
X69756894Y-68250003D01*
X70043106Y-68250003D01*
X70060572Y-68360282D01*
X70060574Y-68360287D01*
X70106166Y-68449766D01*
X70111267Y-68459777D01*
X70190223Y-68538733D01*
X70289714Y-68589426D01*
X70289717Y-68589427D01*
X70399997Y-68606894D01*
X70400000Y-68606894D01*
X70400003Y-68606894D01*
X70510282Y-68589427D01*
X70510283Y-68589426D01*
X70510286Y-68589426D01*
X70609777Y-68538733D01*
X70688733Y-68459777D01*
X70739426Y-68360286D01*
X70739427Y-68360282D01*
X70748975Y-68300003D01*
X72543106Y-68300003D01*
X72560572Y-68410282D01*
X72560574Y-68410287D01*
X72611266Y-68509776D01*
X72611267Y-68509777D01*
X72690223Y-68588733D01*
X72789714Y-68639426D01*
X72789717Y-68639427D01*
X72899997Y-68656894D01*
X72900000Y-68656894D01*
X72900003Y-68656894D01*
X73010282Y-68639427D01*
X73010283Y-68639426D01*
X73010286Y-68639426D01*
X73109777Y-68588733D01*
X73188733Y-68509777D01*
X73239426Y-68410286D01*
X73243106Y-68387054D01*
X73256894Y-68300003D01*
X73256894Y-68299996D01*
X73239427Y-68189717D01*
X73239425Y-68189712D01*
X73188733Y-68090223D01*
X73109776Y-68011266D01*
X73010287Y-67960574D01*
X73010282Y-67960572D01*
X72900003Y-67943106D01*
X72899997Y-67943106D01*
X72789717Y-67960572D01*
X72789712Y-67960574D01*
X72690223Y-68011266D01*
X72611266Y-68090223D01*
X72560574Y-68189712D01*
X72560572Y-68189717D01*
X72543106Y-68299996D01*
X72543106Y-68300003D01*
X70748975Y-68300003D01*
X70756894Y-68250003D01*
X70756894Y-68249996D01*
X70739427Y-68139717D01*
X70739425Y-68139712D01*
X70688733Y-68040223D01*
X70609776Y-67961266D01*
X70510287Y-67910574D01*
X70510282Y-67910572D01*
X70400003Y-67893106D01*
X70399997Y-67893106D01*
X70289717Y-67910572D01*
X70289712Y-67910574D01*
X70190223Y-67961266D01*
X70111266Y-68040223D01*
X70060574Y-68139712D01*
X70060572Y-68139717D01*
X70043106Y-68249996D01*
X70043106Y-68250003D01*
X69756894Y-68250003D01*
X69756894Y-68249996D01*
X69739427Y-68139717D01*
X69739425Y-68139712D01*
X69688733Y-68040223D01*
X69609776Y-67961266D01*
X69510287Y-67910574D01*
X69510282Y-67910572D01*
X69400003Y-67893106D01*
X69399997Y-67893106D01*
X69289717Y-67910572D01*
X69289712Y-67910574D01*
X69190223Y-67961266D01*
X69111266Y-68040223D01*
X69060574Y-68139712D01*
X69060572Y-68139717D01*
X69043106Y-68249996D01*
X69043106Y-68250003D01*
X56248976Y-68250003D01*
X56239427Y-68189717D01*
X56239425Y-68189712D01*
X56188733Y-68090223D01*
X56109776Y-68011266D01*
X56010287Y-67960574D01*
X56010282Y-67960572D01*
X55900003Y-67943106D01*
X55899997Y-67943106D01*
X55789717Y-67960572D01*
X55789712Y-67960574D01*
X55690223Y-68011266D01*
X55611266Y-68090223D01*
X55560574Y-68189712D01*
X55560572Y-68189717D01*
X55543106Y-68299996D01*
X55543106Y-68300003D01*
X55256894Y-68300003D01*
X55256894Y-68299996D01*
X55239427Y-68189717D01*
X55239425Y-68189712D01*
X55188733Y-68090223D01*
X55109776Y-68011266D01*
X55010287Y-67960574D01*
X55010282Y-67960572D01*
X54900003Y-67943106D01*
X54899997Y-67943106D01*
X54789717Y-67960572D01*
X54789712Y-67960574D01*
X54690223Y-68011266D01*
X54611266Y-68090223D01*
X54560574Y-68189712D01*
X54560572Y-68189717D01*
X54543106Y-68299996D01*
X54543106Y-68300003D01*
X54560572Y-68410282D01*
X54560574Y-68410287D01*
X54612542Y-68512281D01*
X54616295Y-68559969D01*
X54585228Y-68596343D01*
X54537540Y-68600096D01*
X54517205Y-68588969D01*
X54466450Y-68547315D01*
X54466444Y-68547311D01*
X54283954Y-68449768D01*
X54283949Y-68449766D01*
X54085935Y-68389700D01*
X54085930Y-68389699D01*
X53992404Y-68380487D01*
X53931608Y-68374500D01*
X53828392Y-68374500D01*
X53773047Y-68379951D01*
X53674069Y-68389699D01*
X53674064Y-68389700D01*
X53476050Y-68449766D01*
X53476045Y-68449768D01*
X53293555Y-68547311D01*
X53293544Y-68547319D01*
X53133591Y-68678588D01*
X53133588Y-68678591D01*
X53002319Y-68838544D01*
X53002311Y-68838555D01*
X52904768Y-69021045D01*
X52904766Y-69021050D01*
X52844700Y-69219064D01*
X52844699Y-69219069D01*
X52824417Y-69424999D01*
X52824417Y-69425000D01*
X49503145Y-69425000D01*
X49503145Y-66000003D01*
X55043106Y-66000003D01*
X55060572Y-66110282D01*
X55060574Y-66110287D01*
X55111266Y-66209776D01*
X55111267Y-66209777D01*
X55190223Y-66288733D01*
X55289714Y-66339426D01*
X55289717Y-66339427D01*
X55399997Y-66356894D01*
X55400000Y-66356894D01*
X55400003Y-66356894D01*
X55510282Y-66339427D01*
X55510283Y-66339426D01*
X55510286Y-66339426D01*
X55609777Y-66288733D01*
X55688733Y-66209777D01*
X55739426Y-66110286D01*
X55756894Y-66000003D01*
X68543106Y-66000003D01*
X68560572Y-66110282D01*
X68560574Y-66110287D01*
X68611266Y-66209776D01*
X68611267Y-66209777D01*
X68690223Y-66288733D01*
X68789714Y-66339426D01*
X68789717Y-66339427D01*
X68899997Y-66356894D01*
X68900000Y-66356894D01*
X68900003Y-66356894D01*
X69010282Y-66339427D01*
X69010283Y-66339426D01*
X69010286Y-66339426D01*
X69109777Y-66288733D01*
X69188733Y-66209777D01*
X69239426Y-66110286D01*
X69256894Y-66000003D01*
X69543106Y-66000003D01*
X69560572Y-66110282D01*
X69560574Y-66110287D01*
X69611266Y-66209776D01*
X69611267Y-66209777D01*
X69690223Y-66288733D01*
X69789714Y-66339426D01*
X69789717Y-66339427D01*
X69899997Y-66356894D01*
X69900000Y-66356894D01*
X69900003Y-66356894D01*
X70010282Y-66339427D01*
X70010283Y-66339426D01*
X70010286Y-66339426D01*
X70109777Y-66288733D01*
X70188733Y-66209777D01*
X70239426Y-66110286D01*
X70256894Y-66000003D01*
X72043106Y-66000003D01*
X72060572Y-66110282D01*
X72060574Y-66110287D01*
X72111266Y-66209776D01*
X72111267Y-66209777D01*
X72190223Y-66288733D01*
X72289714Y-66339426D01*
X72289717Y-66339427D01*
X72399997Y-66356894D01*
X72400000Y-66356894D01*
X72400003Y-66356894D01*
X72510282Y-66339427D01*
X72510283Y-66339426D01*
X72510286Y-66339426D01*
X72609777Y-66288733D01*
X72688733Y-66209777D01*
X72739426Y-66110286D01*
X72756894Y-66000000D01*
X72756894Y-65999996D01*
X72739427Y-65889717D01*
X72739425Y-65889712D01*
X72688733Y-65790223D01*
X72609776Y-65711266D01*
X72510287Y-65660574D01*
X72510282Y-65660572D01*
X72400003Y-65643106D01*
X72399997Y-65643106D01*
X72289717Y-65660572D01*
X72289712Y-65660574D01*
X72190223Y-65711266D01*
X72111266Y-65790223D01*
X72060574Y-65889712D01*
X72060572Y-65889717D01*
X72043106Y-65999996D01*
X72043106Y-66000003D01*
X70256894Y-66000003D01*
X70256894Y-66000000D01*
X70256894Y-65999996D01*
X70239427Y-65889717D01*
X70239425Y-65889712D01*
X70188733Y-65790223D01*
X70109776Y-65711266D01*
X70010287Y-65660574D01*
X70010282Y-65660572D01*
X69900003Y-65643106D01*
X69899997Y-65643106D01*
X69789717Y-65660572D01*
X69789712Y-65660574D01*
X69690223Y-65711266D01*
X69611266Y-65790223D01*
X69560574Y-65889712D01*
X69560572Y-65889717D01*
X69543106Y-65999996D01*
X69543106Y-66000003D01*
X69256894Y-66000003D01*
X69256894Y-66000000D01*
X69256894Y-65999996D01*
X69239427Y-65889717D01*
X69239425Y-65889712D01*
X69188733Y-65790223D01*
X69109776Y-65711266D01*
X69010287Y-65660574D01*
X69010282Y-65660572D01*
X68900003Y-65643106D01*
X68899997Y-65643106D01*
X68789717Y-65660572D01*
X68789712Y-65660574D01*
X68690223Y-65711266D01*
X68611266Y-65790223D01*
X68560574Y-65889712D01*
X68560572Y-65889717D01*
X68543106Y-65999996D01*
X68543106Y-66000003D01*
X55756894Y-66000003D01*
X55756894Y-66000000D01*
X55756894Y-65999996D01*
X55739427Y-65889717D01*
X55739425Y-65889712D01*
X55688733Y-65790223D01*
X55609776Y-65711266D01*
X55510287Y-65660574D01*
X55510282Y-65660572D01*
X55400003Y-65643106D01*
X55399997Y-65643106D01*
X55289717Y-65660572D01*
X55289712Y-65660574D01*
X55190223Y-65711266D01*
X55111266Y-65790223D01*
X55060574Y-65889712D01*
X55060572Y-65889717D01*
X55043106Y-65999996D01*
X55043106Y-66000003D01*
X49503145Y-66000003D01*
X49503145Y-56162635D01*
X50195717Y-56162635D01*
X50225890Y-56411136D01*
X50225894Y-56411156D01*
X50295535Y-56651587D01*
X50295541Y-56651604D01*
X50402859Y-56877772D01*
X50497665Y-57015122D01*
X50545069Y-57083799D01*
X50545070Y-57083800D01*
X50718482Y-57264340D01*
X50718486Y-57264343D01*
X50819729Y-57340421D01*
X50918615Y-57414730D01*
X51140279Y-57531069D01*
X51377734Y-57610343D01*
X51624831Y-57650500D01*
X51624833Y-57650500D01*
X51812477Y-57650500D01*
X51812481Y-57650500D01*
X51812485Y-57650499D01*
X51812501Y-57650499D01*
X51999520Y-57635401D01*
X51999523Y-57635400D01*
X51999527Y-57635400D01*
X52242591Y-57575490D01*
X52472897Y-57477366D01*
X52684481Y-57343568D01*
X52871862Y-57177563D01*
X53030188Y-56983650D01*
X53155357Y-56766850D01*
X53244128Y-56532780D01*
X53294202Y-56287500D01*
X53299234Y-56162635D01*
X74395717Y-56162635D01*
X74425890Y-56411136D01*
X74425894Y-56411156D01*
X74495535Y-56651587D01*
X74495541Y-56651604D01*
X74602859Y-56877772D01*
X74697665Y-57015122D01*
X74745069Y-57083799D01*
X74745070Y-57083800D01*
X74918482Y-57264340D01*
X74918486Y-57264343D01*
X75019729Y-57340421D01*
X75118615Y-57414730D01*
X75340279Y-57531069D01*
X75577734Y-57610343D01*
X75824831Y-57650500D01*
X75824833Y-57650500D01*
X76012477Y-57650500D01*
X76012481Y-57650500D01*
X76012485Y-57650499D01*
X76012501Y-57650499D01*
X76199520Y-57635401D01*
X76199523Y-57635400D01*
X76199527Y-57635400D01*
X76442591Y-57575490D01*
X76672897Y-57477366D01*
X76884481Y-57343568D01*
X77071862Y-57177563D01*
X77230188Y-56983650D01*
X77355357Y-56766850D01*
X77444128Y-56532780D01*
X77494202Y-56287500D01*
X77504282Y-56037365D01*
X77489120Y-55912495D01*
X77474109Y-55788863D01*
X77474105Y-55788843D01*
X77404464Y-55548412D01*
X77404461Y-55548406D01*
X77404459Y-55548396D01*
X77297141Y-55322228D01*
X77154932Y-55116203D01*
X77154930Y-55116200D01*
X77154929Y-55116199D01*
X76981517Y-54935659D01*
X76981513Y-54935656D01*
X76781394Y-54785277D01*
X76781385Y-54785270D01*
X76559721Y-54668931D01*
X76322266Y-54589657D01*
X76322264Y-54589656D01*
X76322262Y-54589656D01*
X76075170Y-54549500D01*
X76075169Y-54549500D01*
X75887519Y-54549500D01*
X75887498Y-54549500D01*
X75700479Y-54564598D01*
X75700470Y-54564600D01*
X75457409Y-54624510D01*
X75227100Y-54722635D01*
X75015526Y-54856426D01*
X75015514Y-54856436D01*
X74828138Y-55022436D01*
X74669814Y-55216346D01*
X74544642Y-55433151D01*
X74455873Y-55667213D01*
X74405798Y-55912495D01*
X74405797Y-55912507D01*
X74395717Y-56162632D01*
X74395717Y-56162635D01*
X53299234Y-56162635D01*
X53304282Y-56037365D01*
X53289120Y-55912495D01*
X53274109Y-55788863D01*
X53274105Y-55788843D01*
X53204464Y-55548412D01*
X53204461Y-55548406D01*
X53204459Y-55548396D01*
X53097141Y-55322228D01*
X52954932Y-55116203D01*
X52954930Y-55116200D01*
X52954929Y-55116199D01*
X52781517Y-54935659D01*
X52781513Y-54935656D01*
X52581394Y-54785277D01*
X52581385Y-54785270D01*
X52359721Y-54668931D01*
X52122266Y-54589657D01*
X52122264Y-54589656D01*
X52122262Y-54589656D01*
X51875170Y-54549500D01*
X51875169Y-54549500D01*
X51687519Y-54549500D01*
X51687498Y-54549500D01*
X51500479Y-54564598D01*
X51500470Y-54564600D01*
X51257409Y-54624510D01*
X51027100Y-54722635D01*
X50815526Y-54856426D01*
X50815514Y-54856436D01*
X50628138Y-55022436D01*
X50469814Y-55216346D01*
X50344642Y-55433151D01*
X50255873Y-55667213D01*
X50205798Y-55912495D01*
X50205797Y-55912507D01*
X50195717Y-56162632D01*
X50195717Y-56162635D01*
X49503145Y-56162635D01*
X49503145Y-53624928D01*
X49521451Y-53580734D01*
X49565645Y-53562428D01*
X49609839Y-53580734D01*
X49611322Y-53582269D01*
X49615244Y-53586468D01*
X49615245Y-53586469D01*
X49738671Y-53661526D01*
X49827322Y-53686364D01*
X49877769Y-53700499D01*
X49877769Y-53700500D01*
X49877772Y-53700500D01*
X49985948Y-53700500D01*
X49985949Y-53700500D01*
X50093111Y-53685771D01*
X50225609Y-53628219D01*
X50281833Y-53582476D01*
X50327666Y-53568786D01*
X50360756Y-53585216D01*
X50361931Y-53583773D01*
X50365245Y-53586469D01*
X50488671Y-53661526D01*
X50577322Y-53686364D01*
X50627769Y-53700499D01*
X50627769Y-53700500D01*
X50627772Y-53700500D01*
X50735948Y-53700500D01*
X50735949Y-53700500D01*
X50843111Y-53685771D01*
X50975609Y-53628219D01*
X51060246Y-53559360D01*
X51106080Y-53545671D01*
X51145365Y-53565183D01*
X51165245Y-53586469D01*
X51165247Y-53586470D01*
X51288671Y-53661526D01*
X51377322Y-53686364D01*
X51427769Y-53700499D01*
X51427769Y-53700500D01*
X51427772Y-53700500D01*
X51535948Y-53700500D01*
X51535949Y-53700500D01*
X51643111Y-53685771D01*
X51775609Y-53628219D01*
X51831833Y-53582476D01*
X51877666Y-53568786D01*
X51910756Y-53585216D01*
X51911931Y-53583773D01*
X51915245Y-53586469D01*
X52038671Y-53661526D01*
X52127322Y-53686364D01*
X52177769Y-53700499D01*
X52177769Y-53700500D01*
X52177772Y-53700500D01*
X52285948Y-53700500D01*
X52285949Y-53700500D01*
X52393111Y-53685771D01*
X52525609Y-53628219D01*
X52581833Y-53582476D01*
X52627666Y-53568786D01*
X52660756Y-53585216D01*
X52661931Y-53583773D01*
X52665245Y-53586469D01*
X52788671Y-53661526D01*
X52877322Y-53686364D01*
X52927769Y-53700499D01*
X52927769Y-53700500D01*
X52927772Y-53700500D01*
X53035948Y-53700500D01*
X53035949Y-53700500D01*
X53143111Y-53685771D01*
X53275609Y-53628219D01*
X53331833Y-53582476D01*
X53377666Y-53568786D01*
X53410756Y-53585216D01*
X53411931Y-53583773D01*
X53415245Y-53586469D01*
X53538671Y-53661526D01*
X53627322Y-53686364D01*
X53677769Y-53700499D01*
X53677769Y-53700500D01*
X53677772Y-53700500D01*
X53785948Y-53700500D01*
X53785949Y-53700500D01*
X53893111Y-53685771D01*
X54025609Y-53628219D01*
X54137665Y-53537054D01*
X54220971Y-53419037D01*
X54269346Y-53282921D01*
X54269807Y-53276188D01*
X54291084Y-53233345D01*
X54336423Y-53218096D01*
X54379266Y-53239373D01*
X54387654Y-53251696D01*
X54441645Y-53355893D01*
X54441648Y-53355897D01*
X54540244Y-53461468D01*
X54540245Y-53461469D01*
X54663671Y-53536526D01*
X54752322Y-53561364D01*
X54802769Y-53575499D01*
X54802769Y-53575500D01*
X54802772Y-53575500D01*
X54910948Y-53575500D01*
X54910949Y-53575500D01*
X55018111Y-53560771D01*
X55150609Y-53503219D01*
X55262665Y-53412054D01*
X55345971Y-53294037D01*
X55375411Y-53211199D01*
X55920796Y-53211199D01*
X55950186Y-53352634D01*
X55950186Y-53352635D01*
X56016645Y-53480893D01*
X56016648Y-53480897D01*
X56115244Y-53586468D01*
X56115245Y-53586469D01*
X56238671Y-53661526D01*
X56327322Y-53686364D01*
X56377769Y-53700499D01*
X56377769Y-53700500D01*
X56377772Y-53700500D01*
X56485948Y-53700500D01*
X56485949Y-53700500D01*
X56593111Y-53685771D01*
X56725609Y-53628219D01*
X56781833Y-53582476D01*
X56827666Y-53568786D01*
X56860756Y-53585216D01*
X56861931Y-53583773D01*
X56865245Y-53586469D01*
X56988671Y-53661526D01*
X57077322Y-53686364D01*
X57127769Y-53700499D01*
X57127769Y-53700500D01*
X57127772Y-53700500D01*
X57235948Y-53700500D01*
X57235949Y-53700500D01*
X57343111Y-53685771D01*
X57475609Y-53628219D01*
X57560246Y-53559360D01*
X57606080Y-53545671D01*
X57645365Y-53565183D01*
X57665245Y-53586469D01*
X57665247Y-53586470D01*
X57788671Y-53661526D01*
X57877322Y-53686364D01*
X57927769Y-53700499D01*
X57927769Y-53700500D01*
X57927772Y-53700500D01*
X58035948Y-53700500D01*
X58035949Y-53700500D01*
X58143111Y-53685771D01*
X58275609Y-53628219D01*
X58331833Y-53582476D01*
X58377666Y-53568786D01*
X58410756Y-53585216D01*
X58411931Y-53583773D01*
X58415245Y-53586469D01*
X58538671Y-53661526D01*
X58627322Y-53686364D01*
X58677769Y-53700499D01*
X58677769Y-53700500D01*
X58677772Y-53700500D01*
X58785948Y-53700500D01*
X58785949Y-53700500D01*
X58893111Y-53685771D01*
X59025609Y-53628219D01*
X59081833Y-53582476D01*
X59127666Y-53568786D01*
X59160756Y-53585216D01*
X59161931Y-53583773D01*
X59165245Y-53586469D01*
X59288671Y-53661526D01*
X59377322Y-53686364D01*
X59427769Y-53700499D01*
X59427769Y-53700500D01*
X59427772Y-53700500D01*
X59535948Y-53700500D01*
X59535949Y-53700500D01*
X59643111Y-53685771D01*
X59775609Y-53628219D01*
X59831833Y-53582476D01*
X59877666Y-53568786D01*
X59910756Y-53585216D01*
X59911931Y-53583773D01*
X59915245Y-53586469D01*
X60038671Y-53661526D01*
X60127322Y-53686364D01*
X60177769Y-53700499D01*
X60177769Y-53700500D01*
X60177772Y-53700500D01*
X60285948Y-53700500D01*
X60285949Y-53700500D01*
X60393111Y-53685771D01*
X60525609Y-53628219D01*
X60637665Y-53537054D01*
X60720971Y-53419037D01*
X60769346Y-53282921D01*
X60774252Y-53211199D01*
X61420796Y-53211199D01*
X61450186Y-53352634D01*
X61450186Y-53352635D01*
X61516645Y-53480893D01*
X61516648Y-53480897D01*
X61615244Y-53586468D01*
X61615245Y-53586469D01*
X61738671Y-53661526D01*
X61827322Y-53686364D01*
X61877769Y-53700499D01*
X61877769Y-53700500D01*
X61877772Y-53700500D01*
X61985948Y-53700500D01*
X61985949Y-53700500D01*
X62093111Y-53685771D01*
X62225609Y-53628219D01*
X62281833Y-53582476D01*
X62327666Y-53568786D01*
X62360756Y-53585216D01*
X62361931Y-53583773D01*
X62365245Y-53586469D01*
X62488671Y-53661526D01*
X62577322Y-53686364D01*
X62627769Y-53700499D01*
X62627769Y-53700500D01*
X62627772Y-53700500D01*
X62735948Y-53700500D01*
X62735949Y-53700500D01*
X62843111Y-53685771D01*
X62975609Y-53628219D01*
X63060246Y-53559360D01*
X63106080Y-53545671D01*
X63145365Y-53565183D01*
X63165245Y-53586469D01*
X63165247Y-53586470D01*
X63288671Y-53661526D01*
X63377322Y-53686364D01*
X63427769Y-53700499D01*
X63427769Y-53700500D01*
X63427772Y-53700500D01*
X63535948Y-53700500D01*
X63535949Y-53700500D01*
X63643111Y-53685771D01*
X63775609Y-53628219D01*
X63831833Y-53582476D01*
X63877666Y-53568786D01*
X63910756Y-53585216D01*
X63911931Y-53583773D01*
X63915245Y-53586469D01*
X64038671Y-53661526D01*
X64127322Y-53686364D01*
X64177769Y-53700499D01*
X64177769Y-53700500D01*
X64177772Y-53700500D01*
X64285948Y-53700500D01*
X64285949Y-53700500D01*
X64393111Y-53685771D01*
X64525609Y-53628219D01*
X64581833Y-53582476D01*
X64627666Y-53568786D01*
X64660756Y-53585216D01*
X64661931Y-53583773D01*
X64665245Y-53586469D01*
X64788671Y-53661526D01*
X64877322Y-53686364D01*
X64927769Y-53700499D01*
X64927769Y-53700500D01*
X64927772Y-53700500D01*
X65035948Y-53700500D01*
X65035949Y-53700500D01*
X65143111Y-53685771D01*
X65275609Y-53628219D01*
X65331833Y-53582476D01*
X65377666Y-53568786D01*
X65410756Y-53585216D01*
X65411931Y-53583773D01*
X65415245Y-53586469D01*
X65538671Y-53661526D01*
X65627322Y-53686364D01*
X65677769Y-53700499D01*
X65677769Y-53700500D01*
X65677772Y-53700500D01*
X65785948Y-53700500D01*
X65785949Y-53700500D01*
X65893111Y-53685771D01*
X66025609Y-53628219D01*
X66137665Y-53537054D01*
X66220971Y-53419037D01*
X66269346Y-53282921D01*
X66274252Y-53211199D01*
X66920796Y-53211199D01*
X66950186Y-53352634D01*
X66950186Y-53352635D01*
X67016645Y-53480893D01*
X67016648Y-53480897D01*
X67115244Y-53586468D01*
X67115245Y-53586469D01*
X67238671Y-53661526D01*
X67327322Y-53686364D01*
X67377769Y-53700499D01*
X67377769Y-53700500D01*
X67377772Y-53700500D01*
X67485948Y-53700500D01*
X67485949Y-53700500D01*
X67593111Y-53685771D01*
X67725609Y-53628219D01*
X67781833Y-53582476D01*
X67827666Y-53568786D01*
X67860756Y-53585216D01*
X67861931Y-53583773D01*
X67865245Y-53586469D01*
X67988671Y-53661526D01*
X68077322Y-53686364D01*
X68127769Y-53700499D01*
X68127769Y-53700500D01*
X68127772Y-53700500D01*
X68235948Y-53700500D01*
X68235949Y-53700500D01*
X68343111Y-53685771D01*
X68475609Y-53628219D01*
X68560246Y-53559360D01*
X68606080Y-53545671D01*
X68645365Y-53565183D01*
X68665245Y-53586469D01*
X68665247Y-53586470D01*
X68788671Y-53661526D01*
X68877322Y-53686364D01*
X68927769Y-53700499D01*
X68927769Y-53700500D01*
X68927772Y-53700500D01*
X69035948Y-53700500D01*
X69035949Y-53700500D01*
X69143111Y-53685771D01*
X69275609Y-53628219D01*
X69331833Y-53582476D01*
X69377666Y-53568786D01*
X69410756Y-53585216D01*
X69411931Y-53583773D01*
X69415245Y-53586469D01*
X69538671Y-53661526D01*
X69627322Y-53686364D01*
X69677769Y-53700499D01*
X69677769Y-53700500D01*
X69677772Y-53700500D01*
X69785948Y-53700500D01*
X69785949Y-53700500D01*
X69893111Y-53685771D01*
X70025609Y-53628219D01*
X70081833Y-53582476D01*
X70127666Y-53568786D01*
X70160756Y-53585216D01*
X70161931Y-53583773D01*
X70165245Y-53586469D01*
X70288671Y-53661526D01*
X70377322Y-53686364D01*
X70427769Y-53700499D01*
X70427769Y-53700500D01*
X70427772Y-53700500D01*
X70535948Y-53700500D01*
X70535949Y-53700500D01*
X70643111Y-53685771D01*
X70775609Y-53628219D01*
X70831833Y-53582476D01*
X70877666Y-53568786D01*
X70910756Y-53585216D01*
X70911931Y-53583773D01*
X70915245Y-53586469D01*
X71038671Y-53661526D01*
X71127322Y-53686364D01*
X71177769Y-53700499D01*
X71177769Y-53700500D01*
X71177772Y-53700500D01*
X71285948Y-53700500D01*
X71285949Y-53700500D01*
X71393111Y-53685771D01*
X71525609Y-53628219D01*
X71637665Y-53537054D01*
X71720971Y-53419037D01*
X71769346Y-53282921D01*
X71779204Y-53138801D01*
X71749814Y-52997366D01*
X71683354Y-52869105D01*
X71584755Y-52763531D01*
X71584754Y-52763530D01*
X71461328Y-52688473D01*
X71322230Y-52649500D01*
X71322228Y-52649500D01*
X71214051Y-52649500D01*
X71214045Y-52649500D01*
X71106890Y-52664228D01*
X70974392Y-52721780D01*
X70974389Y-52721782D01*
X70918165Y-52767523D01*
X70872330Y-52781213D01*
X70839248Y-52764777D01*
X70838069Y-52766227D01*
X70834754Y-52763530D01*
X70711328Y-52688473D01*
X70572230Y-52649500D01*
X70572228Y-52649500D01*
X70464051Y-52649500D01*
X70464045Y-52649500D01*
X70356890Y-52664228D01*
X70224392Y-52721780D01*
X70224389Y-52721782D01*
X70168165Y-52767523D01*
X70122330Y-52781213D01*
X70089248Y-52764777D01*
X70088069Y-52766227D01*
X70084754Y-52763530D01*
X69961328Y-52688473D01*
X69822230Y-52649500D01*
X69822228Y-52649500D01*
X69714051Y-52649500D01*
X69714045Y-52649500D01*
X69606890Y-52664228D01*
X69474392Y-52721780D01*
X69474389Y-52721782D01*
X69418165Y-52767523D01*
X69372330Y-52781213D01*
X69339248Y-52764777D01*
X69338069Y-52766227D01*
X69334754Y-52763530D01*
X69211328Y-52688473D01*
X69072230Y-52649500D01*
X69072228Y-52649500D01*
X68964051Y-52649500D01*
X68964045Y-52649500D01*
X68856890Y-52664228D01*
X68802287Y-52687946D01*
X68724391Y-52721781D01*
X68724389Y-52721782D01*
X68724388Y-52721783D01*
X68639754Y-52790638D01*
X68593919Y-52804328D01*
X68554634Y-52784816D01*
X68534753Y-52763529D01*
X68411328Y-52688473D01*
X68272230Y-52649500D01*
X68272228Y-52649500D01*
X68164051Y-52649500D01*
X68164045Y-52649500D01*
X68056890Y-52664228D01*
X67924392Y-52721780D01*
X67924389Y-52721782D01*
X67868165Y-52767523D01*
X67822330Y-52781213D01*
X67789248Y-52764777D01*
X67788069Y-52766227D01*
X67784754Y-52763530D01*
X67661328Y-52688473D01*
X67522230Y-52649500D01*
X67522228Y-52649500D01*
X67414051Y-52649500D01*
X67414045Y-52649500D01*
X67306890Y-52664228D01*
X67252287Y-52687946D01*
X67174391Y-52721781D01*
X67174389Y-52721782D01*
X67174388Y-52721783D01*
X67062336Y-52812945D01*
X67062333Y-52812948D01*
X66979028Y-52930963D01*
X66930653Y-53067079D01*
X66920796Y-53211194D01*
X66920796Y-53211199D01*
X66274252Y-53211199D01*
X66279204Y-53138801D01*
X66249814Y-52997366D01*
X66183354Y-52869105D01*
X66084755Y-52763531D01*
X66084754Y-52763530D01*
X65961328Y-52688473D01*
X65822230Y-52649500D01*
X65822228Y-52649500D01*
X65714051Y-52649500D01*
X65714045Y-52649500D01*
X65606890Y-52664228D01*
X65474392Y-52721780D01*
X65474389Y-52721782D01*
X65418165Y-52767523D01*
X65372330Y-52781213D01*
X65339248Y-52764777D01*
X65338069Y-52766227D01*
X65334754Y-52763530D01*
X65211328Y-52688473D01*
X65072230Y-52649500D01*
X65072228Y-52649500D01*
X64964051Y-52649500D01*
X64964045Y-52649500D01*
X64856890Y-52664228D01*
X64724392Y-52721780D01*
X64724389Y-52721782D01*
X64668165Y-52767523D01*
X64622330Y-52781213D01*
X64589248Y-52764777D01*
X64588069Y-52766227D01*
X64584754Y-52763530D01*
X64461328Y-52688473D01*
X64322230Y-52649500D01*
X64322228Y-52649500D01*
X64214051Y-52649500D01*
X64214045Y-52649500D01*
X64106890Y-52664228D01*
X63974392Y-52721780D01*
X63974389Y-52721782D01*
X63918165Y-52767523D01*
X63872330Y-52781213D01*
X63839248Y-52764777D01*
X63838069Y-52766227D01*
X63834754Y-52763530D01*
X63711328Y-52688473D01*
X63572230Y-52649500D01*
X63572228Y-52649500D01*
X63464051Y-52649500D01*
X63464045Y-52649500D01*
X63356890Y-52664228D01*
X63302287Y-52687946D01*
X63224391Y-52721781D01*
X63224389Y-52721782D01*
X63224388Y-52721783D01*
X63139754Y-52790638D01*
X63093919Y-52804328D01*
X63054634Y-52784816D01*
X63034753Y-52763529D01*
X62911328Y-52688473D01*
X62772230Y-52649500D01*
X62772228Y-52649500D01*
X62664051Y-52649500D01*
X62664045Y-52649500D01*
X62556890Y-52664228D01*
X62424392Y-52721780D01*
X62424389Y-52721782D01*
X62368165Y-52767523D01*
X62322330Y-52781213D01*
X62289248Y-52764777D01*
X62288069Y-52766227D01*
X62284754Y-52763530D01*
X62161328Y-52688473D01*
X62022230Y-52649500D01*
X62022228Y-52649500D01*
X61914051Y-52649500D01*
X61914045Y-52649500D01*
X61806890Y-52664228D01*
X61752287Y-52687946D01*
X61674391Y-52721781D01*
X61674389Y-52721782D01*
X61674388Y-52721783D01*
X61562336Y-52812945D01*
X61562333Y-52812948D01*
X61479028Y-52930963D01*
X61430653Y-53067079D01*
X61420796Y-53211194D01*
X61420796Y-53211199D01*
X60774252Y-53211199D01*
X60779204Y-53138801D01*
X60749814Y-52997366D01*
X60683354Y-52869105D01*
X60584755Y-52763531D01*
X60584754Y-52763530D01*
X60461328Y-52688473D01*
X60322230Y-52649500D01*
X60322228Y-52649500D01*
X60214051Y-52649500D01*
X60214045Y-52649500D01*
X60106890Y-52664228D01*
X59974392Y-52721780D01*
X59974389Y-52721782D01*
X59918165Y-52767523D01*
X59872330Y-52781213D01*
X59839248Y-52764777D01*
X59838069Y-52766227D01*
X59834754Y-52763530D01*
X59711328Y-52688473D01*
X59572230Y-52649500D01*
X59572228Y-52649500D01*
X59464051Y-52649500D01*
X59464045Y-52649500D01*
X59356890Y-52664228D01*
X59224392Y-52721780D01*
X59224389Y-52721782D01*
X59168165Y-52767523D01*
X59122330Y-52781213D01*
X59089248Y-52764777D01*
X59088069Y-52766227D01*
X59084754Y-52763530D01*
X58961328Y-52688473D01*
X58822230Y-52649500D01*
X58822228Y-52649500D01*
X58714051Y-52649500D01*
X58714045Y-52649500D01*
X58606890Y-52664228D01*
X58474392Y-52721780D01*
X58474389Y-52721782D01*
X58418165Y-52767523D01*
X58372330Y-52781213D01*
X58339248Y-52764777D01*
X58338069Y-52766227D01*
X58334754Y-52763530D01*
X58211328Y-52688473D01*
X58072230Y-52649500D01*
X58072228Y-52649500D01*
X57964051Y-52649500D01*
X57964045Y-52649500D01*
X57856890Y-52664228D01*
X57802287Y-52687946D01*
X57724391Y-52721781D01*
X57724389Y-52721782D01*
X57724388Y-52721783D01*
X57639754Y-52790638D01*
X57593919Y-52804328D01*
X57554634Y-52784816D01*
X57534753Y-52763529D01*
X57411328Y-52688473D01*
X57272230Y-52649500D01*
X57272228Y-52649500D01*
X57164051Y-52649500D01*
X57164045Y-52649500D01*
X57056890Y-52664228D01*
X56924392Y-52721780D01*
X56924389Y-52721782D01*
X56868165Y-52767523D01*
X56822330Y-52781213D01*
X56789248Y-52764777D01*
X56788069Y-52766227D01*
X56784754Y-52763530D01*
X56661328Y-52688473D01*
X56522230Y-52649500D01*
X56522228Y-52649500D01*
X56414051Y-52649500D01*
X56414045Y-52649500D01*
X56306890Y-52664228D01*
X56252287Y-52687946D01*
X56174391Y-52721781D01*
X56174389Y-52721782D01*
X56174388Y-52721783D01*
X56062336Y-52812945D01*
X56062333Y-52812948D01*
X55979028Y-52930963D01*
X55930653Y-53067079D01*
X55920796Y-53211194D01*
X55920796Y-53211199D01*
X55375411Y-53211199D01*
X55394346Y-53157921D01*
X55404204Y-53013801D01*
X55374814Y-52872366D01*
X55308354Y-52744105D01*
X55284051Y-52718083D01*
X55267265Y-52673290D01*
X55278669Y-52639381D01*
X55345971Y-52544037D01*
X55394346Y-52407921D01*
X55404204Y-52263801D01*
X55374814Y-52122366D01*
X55308354Y-51994105D01*
X55284051Y-51968083D01*
X55267265Y-51923290D01*
X55278669Y-51889381D01*
X55345971Y-51794037D01*
X55394346Y-51657921D01*
X55404204Y-51513801D01*
X55374814Y-51372366D01*
X55308354Y-51244105D01*
X55284051Y-51218083D01*
X55267265Y-51173290D01*
X55278669Y-51139381D01*
X55345971Y-51044037D01*
X55394346Y-50907921D01*
X55404204Y-50763801D01*
X55374814Y-50622366D01*
X55308354Y-50494105D01*
X55263686Y-50446277D01*
X55246900Y-50401484D01*
X55261432Y-50366415D01*
X55260200Y-50365546D01*
X55268548Y-50353720D01*
X55345971Y-50244037D01*
X55394346Y-50107921D01*
X55404204Y-49963801D01*
X55374814Y-49822366D01*
X55308354Y-49694105D01*
X55284051Y-49668083D01*
X55267265Y-49623290D01*
X55278669Y-49589381D01*
X55345971Y-49494037D01*
X55394346Y-49357921D01*
X55404204Y-49213801D01*
X55374814Y-49072366D01*
X55308354Y-48944105D01*
X55209755Y-48838531D01*
X55209754Y-48838530D01*
X55086328Y-48763473D01*
X55035478Y-48749226D01*
X54997862Y-48719676D01*
X54992159Y-48672181D01*
X55021709Y-48634565D01*
X55027434Y-48631721D01*
X55150609Y-48578219D01*
X55262665Y-48487054D01*
X55345971Y-48369037D01*
X55394346Y-48232921D01*
X55404204Y-48088801D01*
X55374814Y-47947366D01*
X55308354Y-47819105D01*
X55284051Y-47793083D01*
X55267265Y-47748290D01*
X55278669Y-47714381D01*
X55345971Y-47619037D01*
X55394346Y-47482921D01*
X55404204Y-47338801D01*
X55374814Y-47197366D01*
X55308354Y-47069105D01*
X55284051Y-47043083D01*
X55267265Y-46998290D01*
X55278669Y-46964381D01*
X55345971Y-46869037D01*
X55394346Y-46732921D01*
X55404204Y-46588801D01*
X55374814Y-46447366D01*
X55308354Y-46319105D01*
X55284051Y-46293083D01*
X55267265Y-46248290D01*
X55278669Y-46214381D01*
X55345971Y-46119037D01*
X55394346Y-45982921D01*
X55404204Y-45838801D01*
X55374814Y-45697366D01*
X55308354Y-45569105D01*
X55263686Y-45521277D01*
X55246900Y-45476484D01*
X55261432Y-45441415D01*
X55260200Y-45440546D01*
X55268548Y-45428720D01*
X55345971Y-45319037D01*
X55394346Y-45182921D01*
X55404204Y-45038801D01*
X55374814Y-44897366D01*
X55308354Y-44769105D01*
X55284051Y-44743083D01*
X55267265Y-44698290D01*
X55278669Y-44664381D01*
X55281336Y-44660603D01*
X55345971Y-44569037D01*
X55394346Y-44432921D01*
X55404204Y-44288801D01*
X55374814Y-44147366D01*
X55308354Y-44019105D01*
X55209755Y-43913531D01*
X55209754Y-43913530D01*
X55086427Y-43838533D01*
X55058178Y-43799930D01*
X55065500Y-43752658D01*
X55093997Y-43727808D01*
X55150609Y-43703219D01*
X55262665Y-43612054D01*
X55345971Y-43494037D01*
X55394346Y-43357921D01*
X55404204Y-43213801D01*
X55374814Y-43072366D01*
X55308354Y-42944105D01*
X55284051Y-42918083D01*
X55267265Y-42873290D01*
X55278669Y-42839381D01*
X55280312Y-42837054D01*
X55345971Y-42744037D01*
X55394346Y-42607921D01*
X55404204Y-42463801D01*
X55374814Y-42322366D01*
X55308354Y-42194105D01*
X55284051Y-42168083D01*
X55267265Y-42123290D01*
X55278669Y-42089381D01*
X55280312Y-42087054D01*
X55345971Y-41994037D01*
X55394346Y-41857921D01*
X55404204Y-41713801D01*
X55374814Y-41572366D01*
X55308354Y-41444105D01*
X55284051Y-41418083D01*
X55267265Y-41373290D01*
X55278669Y-41339381D01*
X55280312Y-41337054D01*
X55345971Y-41244037D01*
X55370504Y-41175006D01*
X60370197Y-41175006D01*
X60389396Y-41541346D01*
X60446784Y-41903689D01*
X60446786Y-41903695D01*
X60541730Y-42258031D01*
X60541731Y-42258036D01*
X60673205Y-42600536D01*
X60839747Y-42927394D01*
X61039558Y-43235078D01*
X61070100Y-43272792D01*
X62296696Y-42046195D01*
X62311783Y-42077523D01*
X62463757Y-42300428D01*
X62647256Y-42498193D01*
X62858181Y-42666400D01*
X63005595Y-42751509D01*
X61777206Y-43979898D01*
X61777206Y-43979899D01*
X61814919Y-44010439D01*
X61814932Y-44010448D01*
X62122605Y-44210252D01*
X62449463Y-44376794D01*
X62791963Y-44508268D01*
X62791968Y-44508269D01*
X63146304Y-44603213D01*
X63146310Y-44603215D01*
X63508653Y-44660603D01*
X63874993Y-44679803D01*
X63875007Y-44679803D01*
X64241346Y-44660603D01*
X64603689Y-44603215D01*
X64603695Y-44603213D01*
X64958031Y-44508269D01*
X64958036Y-44508268D01*
X65300536Y-44376794D01*
X65627394Y-44210252D01*
X65935067Y-44010447D01*
X65935079Y-44010438D01*
X65972792Y-43979899D01*
X64744403Y-42751510D01*
X64891819Y-42666400D01*
X65102744Y-42498193D01*
X65286243Y-42300428D01*
X65438217Y-42077524D01*
X65453303Y-42046196D01*
X66679899Y-43272792D01*
X66710438Y-43235079D01*
X66710447Y-43235067D01*
X66910252Y-42927394D01*
X67076794Y-42600536D01*
X67208268Y-42258036D01*
X67208269Y-42258031D01*
X67303213Y-41903695D01*
X67303215Y-41903689D01*
X67360603Y-41541346D01*
X67379803Y-41175006D01*
X67379803Y-41174993D01*
X67360603Y-40808653D01*
X67303215Y-40446310D01*
X67303213Y-40446304D01*
X67208269Y-40091968D01*
X67208268Y-40091963D01*
X67076794Y-39749463D01*
X66910252Y-39422606D01*
X66710441Y-39114921D01*
X66679898Y-39077206D01*
X65453302Y-40303802D01*
X65438217Y-40272477D01*
X65286243Y-40049572D01*
X65102744Y-39851807D01*
X64891819Y-39683600D01*
X64744403Y-39598489D01*
X65972792Y-38370100D01*
X65972792Y-38370099D01*
X65935080Y-38339560D01*
X65935067Y-38339551D01*
X65881882Y-38305012D01*
X65854788Y-38265589D01*
X65863505Y-38218555D01*
X65902928Y-38191461D01*
X65907398Y-38190679D01*
X65943111Y-38185771D01*
X66075609Y-38128219D01*
X66187665Y-38037054D01*
X66270971Y-37919037D01*
X66319346Y-37782921D01*
X66329204Y-37638801D01*
X66299814Y-37497366D01*
X66233354Y-37369105D01*
X66134755Y-37263531D01*
X66134754Y-37263530D01*
X66011328Y-37188473D01*
X65872230Y-37149500D01*
X65872228Y-37149500D01*
X65764051Y-37149500D01*
X65764045Y-37149500D01*
X65656890Y-37164228D01*
X65524392Y-37221780D01*
X65524389Y-37221782D01*
X65468165Y-37267523D01*
X65422330Y-37281213D01*
X65389248Y-37264777D01*
X65388069Y-37266227D01*
X65384754Y-37263530D01*
X65261328Y-37188473D01*
X65122230Y-37149500D01*
X65122228Y-37149500D01*
X65014051Y-37149500D01*
X65014045Y-37149500D01*
X64906890Y-37164228D01*
X64868363Y-37180963D01*
X64774391Y-37221781D01*
X64774389Y-37221782D01*
X64774388Y-37221783D01*
X64689754Y-37290638D01*
X64643919Y-37304328D01*
X64604634Y-37284816D01*
X64584753Y-37263529D01*
X64461328Y-37188473D01*
X64322230Y-37149500D01*
X64322228Y-37149500D01*
X64214051Y-37149500D01*
X64214045Y-37149500D01*
X64106890Y-37164228D01*
X63974392Y-37221780D01*
X63974389Y-37221782D01*
X63918165Y-37267523D01*
X63872330Y-37281213D01*
X63839248Y-37264777D01*
X63838069Y-37266227D01*
X63834754Y-37263530D01*
X63711328Y-37188473D01*
X63572230Y-37149500D01*
X63572228Y-37149500D01*
X63464051Y-37149500D01*
X63464045Y-37149500D01*
X63356890Y-37164228D01*
X63224392Y-37221780D01*
X63224389Y-37221782D01*
X63168165Y-37267523D01*
X63122330Y-37281213D01*
X63089248Y-37264777D01*
X63088069Y-37266227D01*
X63084754Y-37263530D01*
X62961328Y-37188473D01*
X62822230Y-37149500D01*
X62822228Y-37149500D01*
X62714051Y-37149500D01*
X62714045Y-37149500D01*
X62606890Y-37164228D01*
X62474392Y-37221780D01*
X62474389Y-37221782D01*
X62418165Y-37267523D01*
X62372330Y-37281213D01*
X62339248Y-37264777D01*
X62338069Y-37266227D01*
X62334754Y-37263530D01*
X62211328Y-37188473D01*
X62072230Y-37149500D01*
X62072228Y-37149500D01*
X61964051Y-37149500D01*
X61964045Y-37149500D01*
X61856890Y-37164228D01*
X61818363Y-37180963D01*
X61724391Y-37221781D01*
X61724389Y-37221782D01*
X61724388Y-37221783D01*
X61612336Y-37312945D01*
X61612333Y-37312948D01*
X61529028Y-37430963D01*
X61480653Y-37567079D01*
X61470796Y-37711194D01*
X61470796Y-37711199D01*
X61500186Y-37852634D01*
X61500186Y-37852635D01*
X61566645Y-37980893D01*
X61566648Y-37980897D01*
X61665244Y-38086468D01*
X61665245Y-38086469D01*
X61788671Y-38161526D01*
X61865398Y-38183024D01*
X61903015Y-38212574D01*
X61908718Y-38260068D01*
X61882576Y-38295623D01*
X61814933Y-38339551D01*
X61814922Y-38339559D01*
X61777207Y-38370100D01*
X63005596Y-39598489D01*
X62858181Y-39683600D01*
X62647256Y-39851807D01*
X62463757Y-40049572D01*
X62311783Y-40272476D01*
X62296696Y-40303803D01*
X61070100Y-39077207D01*
X61039559Y-39114922D01*
X61039551Y-39114933D01*
X60839747Y-39422606D01*
X60673205Y-39749463D01*
X60541731Y-40091963D01*
X60541730Y-40091968D01*
X60446786Y-40446304D01*
X60446784Y-40446310D01*
X60389396Y-40808653D01*
X60370197Y-41174993D01*
X60370197Y-41175006D01*
X55370504Y-41175006D01*
X55394346Y-41107921D01*
X55404204Y-40963801D01*
X55374814Y-40822366D01*
X55308354Y-40694105D01*
X55263686Y-40646277D01*
X55246900Y-40601484D01*
X55261432Y-40566415D01*
X55260200Y-40565546D01*
X55268548Y-40553720D01*
X55345971Y-40444037D01*
X55394346Y-40307921D01*
X55404204Y-40163801D01*
X55374814Y-40022366D01*
X55308354Y-39894105D01*
X55284051Y-39868083D01*
X55267265Y-39823290D01*
X55278669Y-39789381D01*
X55280312Y-39787054D01*
X55345971Y-39694037D01*
X55394346Y-39557921D01*
X55404204Y-39413801D01*
X55374814Y-39272366D01*
X55308354Y-39144105D01*
X55209755Y-39038531D01*
X55209754Y-39038530D01*
X55134389Y-38992700D01*
X55106140Y-38954097D01*
X55113462Y-38906825D01*
X55141961Y-38881975D01*
X55150609Y-38878219D01*
X55262665Y-38787054D01*
X55345971Y-38669037D01*
X55394346Y-38532921D01*
X55404204Y-38388801D01*
X55374814Y-38247366D01*
X55308354Y-38119105D01*
X55284051Y-38093083D01*
X55267265Y-38048290D01*
X55278669Y-38014381D01*
X55278797Y-38014201D01*
X55345971Y-37919037D01*
X55377293Y-37830903D01*
X55409341Y-37795392D01*
X55457113Y-37792942D01*
X55492626Y-37824991D01*
X55497376Y-37839116D01*
X55500184Y-37852629D01*
X55500186Y-37852635D01*
X55566645Y-37980893D01*
X55566648Y-37980897D01*
X55665244Y-38086468D01*
X55665245Y-38086469D01*
X55788671Y-38161526D01*
X55877322Y-38186364D01*
X55927769Y-38200499D01*
X55927769Y-38200500D01*
X55927772Y-38200500D01*
X56035948Y-38200500D01*
X56035949Y-38200500D01*
X56143111Y-38185771D01*
X56275609Y-38128219D01*
X56331833Y-38082476D01*
X56377666Y-38068786D01*
X56410756Y-38085216D01*
X56411931Y-38083773D01*
X56415245Y-38086469D01*
X56538671Y-38161526D01*
X56627322Y-38186364D01*
X56677769Y-38200499D01*
X56677769Y-38200500D01*
X56677772Y-38200500D01*
X56785948Y-38200500D01*
X56785949Y-38200500D01*
X56893111Y-38185771D01*
X57025609Y-38128219D01*
X57081833Y-38082476D01*
X57127666Y-38068786D01*
X57160756Y-38085216D01*
X57161931Y-38083773D01*
X57165245Y-38086469D01*
X57288671Y-38161526D01*
X57377322Y-38186364D01*
X57427769Y-38200499D01*
X57427769Y-38200500D01*
X57427772Y-38200500D01*
X57535948Y-38200500D01*
X57535949Y-38200500D01*
X57643111Y-38185771D01*
X57775609Y-38128219D01*
X57831833Y-38082476D01*
X57877666Y-38068786D01*
X57910756Y-38085216D01*
X57911931Y-38083773D01*
X57915245Y-38086469D01*
X58038671Y-38161526D01*
X58127322Y-38186364D01*
X58177769Y-38200499D01*
X58177769Y-38200500D01*
X58177772Y-38200500D01*
X58285948Y-38200500D01*
X58285949Y-38200500D01*
X58393111Y-38185771D01*
X58525609Y-38128219D01*
X58610246Y-38059360D01*
X58656080Y-38045671D01*
X58695365Y-38065183D01*
X58715245Y-38086469D01*
X58747620Y-38106156D01*
X58838671Y-38161526D01*
X58927322Y-38186364D01*
X58977769Y-38200499D01*
X58977769Y-38200500D01*
X58977772Y-38200500D01*
X59085948Y-38200500D01*
X59085949Y-38200500D01*
X59193111Y-38185771D01*
X59325609Y-38128219D01*
X59381833Y-38082476D01*
X59427666Y-38068786D01*
X59460756Y-38085216D01*
X59461931Y-38083773D01*
X59465245Y-38086469D01*
X59588671Y-38161526D01*
X59677322Y-38186364D01*
X59727769Y-38200499D01*
X59727769Y-38200500D01*
X59727772Y-38200500D01*
X59835948Y-38200500D01*
X59835949Y-38200500D01*
X59943111Y-38185771D01*
X60075609Y-38128219D01*
X60187665Y-38037054D01*
X60270971Y-37919037D01*
X60319346Y-37782921D01*
X60329204Y-37638801D01*
X60299814Y-37497366D01*
X60233354Y-37369105D01*
X60134755Y-37263531D01*
X60134754Y-37263530D01*
X60011328Y-37188473D01*
X59872230Y-37149500D01*
X59872228Y-37149500D01*
X59764051Y-37149500D01*
X59764045Y-37149500D01*
X59656890Y-37164228D01*
X59524392Y-37221780D01*
X59524389Y-37221782D01*
X59468165Y-37267523D01*
X59422330Y-37281213D01*
X59389248Y-37264777D01*
X59388069Y-37266227D01*
X59384754Y-37263530D01*
X59261328Y-37188473D01*
X59122230Y-37149500D01*
X59122228Y-37149500D01*
X59014051Y-37149500D01*
X59014045Y-37149500D01*
X58906890Y-37164228D01*
X58868363Y-37180963D01*
X58774391Y-37221781D01*
X58774389Y-37221782D01*
X58774388Y-37221783D01*
X58689754Y-37290638D01*
X58643919Y-37304328D01*
X58604634Y-37284816D01*
X58584753Y-37263529D01*
X58461328Y-37188473D01*
X58322230Y-37149500D01*
X58322228Y-37149500D01*
X58214051Y-37149500D01*
X58214045Y-37149500D01*
X58106890Y-37164228D01*
X57974392Y-37221780D01*
X57974389Y-37221782D01*
X57918165Y-37267523D01*
X57872330Y-37281213D01*
X57839248Y-37264777D01*
X57838069Y-37266227D01*
X57834754Y-37263530D01*
X57711328Y-37188473D01*
X57572230Y-37149500D01*
X57572228Y-37149500D01*
X57464051Y-37149500D01*
X57464045Y-37149500D01*
X57356890Y-37164228D01*
X57224392Y-37221780D01*
X57224389Y-37221782D01*
X57168165Y-37267523D01*
X57122330Y-37281213D01*
X57089248Y-37264777D01*
X57088069Y-37266227D01*
X57084754Y-37263530D01*
X56961328Y-37188473D01*
X56822230Y-37149500D01*
X56822228Y-37149500D01*
X56714051Y-37149500D01*
X56714045Y-37149500D01*
X56606890Y-37164228D01*
X56474392Y-37221780D01*
X56474389Y-37221782D01*
X56418165Y-37267523D01*
X56372330Y-37281213D01*
X56339248Y-37264777D01*
X56338069Y-37266227D01*
X56334754Y-37263530D01*
X56211328Y-37188473D01*
X56072230Y-37149500D01*
X56072228Y-37149500D01*
X55964051Y-37149500D01*
X55964045Y-37149500D01*
X55856890Y-37164228D01*
X55818363Y-37180963D01*
X55724391Y-37221781D01*
X55724389Y-37221782D01*
X55724388Y-37221783D01*
X55612336Y-37312945D01*
X55612333Y-37312948D01*
X55529028Y-37430963D01*
X55497706Y-37519095D01*
X55465658Y-37554607D01*
X55417885Y-37557056D01*
X55382373Y-37525008D01*
X55377622Y-37510880D01*
X55374814Y-37497366D01*
X55374813Y-37497364D01*
X55340406Y-37430963D01*
X55308354Y-37369105D01*
X55284051Y-37343083D01*
X55267265Y-37298290D01*
X55278669Y-37264381D01*
X55279270Y-37263530D01*
X55345971Y-37169037D01*
X55394346Y-37032921D01*
X55404204Y-36888801D01*
X55374814Y-36747366D01*
X55308354Y-36619105D01*
X55284051Y-36593083D01*
X55267265Y-36548290D01*
X55278669Y-36514381D01*
X55345971Y-36419037D01*
X55394346Y-36282921D01*
X55404204Y-36138801D01*
X55374814Y-35997366D01*
X55308354Y-35869105D01*
X55263686Y-35821277D01*
X55246900Y-35776484D01*
X55261432Y-35741415D01*
X55260200Y-35740546D01*
X55302258Y-35680964D01*
X55345971Y-35619037D01*
X55394346Y-35482921D01*
X55404204Y-35338801D01*
X55374814Y-35197366D01*
X55308354Y-35069105D01*
X55284051Y-35043083D01*
X55267265Y-34998290D01*
X55278669Y-34964381D01*
X55345971Y-34869037D01*
X55394346Y-34732921D01*
X55404204Y-34588801D01*
X55374814Y-34447366D01*
X55308354Y-34319105D01*
X55209755Y-34213531D01*
X55209754Y-34213530D01*
X55086427Y-34138533D01*
X55058178Y-34099930D01*
X55065500Y-34052658D01*
X55093997Y-34027808D01*
X55150609Y-34003219D01*
X55262665Y-33912054D01*
X55345971Y-33794037D01*
X55394346Y-33657921D01*
X55404204Y-33513801D01*
X55374814Y-33372366D01*
X55308354Y-33244105D01*
X55284051Y-33218083D01*
X55267265Y-33173290D01*
X55278669Y-33139381D01*
X55345971Y-33044037D01*
X55394346Y-32907921D01*
X55404204Y-32763801D01*
X55374814Y-32622366D01*
X55308354Y-32494105D01*
X55284051Y-32468083D01*
X55267265Y-32423290D01*
X55278669Y-32389381D01*
X55345971Y-32294037D01*
X55394346Y-32157921D01*
X55404204Y-32013801D01*
X55374814Y-31872366D01*
X55308354Y-31744105D01*
X55284051Y-31718083D01*
X55267265Y-31673290D01*
X55278669Y-31639381D01*
X55279035Y-31638863D01*
X55345971Y-31544037D01*
X55394346Y-31407921D01*
X55404204Y-31263801D01*
X55374814Y-31122366D01*
X55308354Y-30994105D01*
X55263686Y-30946277D01*
X55246900Y-30901484D01*
X55261432Y-30866415D01*
X55260200Y-30865546D01*
X55268548Y-30853720D01*
X55345971Y-30744037D01*
X55394346Y-30607921D01*
X55404204Y-30463801D01*
X55374814Y-30322366D01*
X55308354Y-30194105D01*
X55284051Y-30168083D01*
X55267265Y-30123290D01*
X55278669Y-30089381D01*
X55345971Y-29994037D01*
X55394346Y-29857921D01*
X55404204Y-29713801D01*
X55374814Y-29572366D01*
X55308354Y-29444105D01*
X55288327Y-29422661D01*
X55271541Y-29377867D01*
X55286772Y-29339072D01*
X55300377Y-29323373D01*
X55313547Y-29294534D01*
X55317808Y-29286729D01*
X55334953Y-29260053D01*
X55343884Y-29229631D01*
X55346998Y-29221286D01*
X55360165Y-29192457D01*
X55362674Y-29175006D01*
X60370197Y-29175006D01*
X60389396Y-29541346D01*
X60446784Y-29903689D01*
X60446786Y-29903695D01*
X60541730Y-30258031D01*
X60541731Y-30258036D01*
X60673205Y-30600536D01*
X60839747Y-30927394D01*
X61039558Y-31235078D01*
X61070100Y-31272792D01*
X62296696Y-30046195D01*
X62311783Y-30077523D01*
X62463757Y-30300428D01*
X62647256Y-30498193D01*
X62858181Y-30666400D01*
X63005595Y-30751509D01*
X61777206Y-31979898D01*
X61777206Y-31979899D01*
X61814919Y-32010439D01*
X61814932Y-32010448D01*
X62122605Y-32210252D01*
X62449463Y-32376794D01*
X62791963Y-32508268D01*
X62791968Y-32508269D01*
X63146304Y-32603213D01*
X63146310Y-32603215D01*
X63508653Y-32660603D01*
X63874993Y-32679803D01*
X63875007Y-32679803D01*
X64241346Y-32660603D01*
X64603689Y-32603215D01*
X64603695Y-32603213D01*
X64958031Y-32508269D01*
X64958036Y-32508268D01*
X65300536Y-32376794D01*
X65627394Y-32210252D01*
X65935067Y-32010447D01*
X65935079Y-32010438D01*
X65972792Y-31979899D01*
X64744403Y-30751510D01*
X64891819Y-30666400D01*
X65102744Y-30498193D01*
X65286243Y-30300428D01*
X65438217Y-30077524D01*
X65453303Y-30046196D01*
X66679899Y-31272792D01*
X66710438Y-31235079D01*
X66710447Y-31235067D01*
X66910252Y-30927394D01*
X67076794Y-30600536D01*
X67208268Y-30258036D01*
X67208269Y-30258031D01*
X67303213Y-29903695D01*
X67303215Y-29903689D01*
X67360603Y-29541346D01*
X67379803Y-29175006D01*
X67379803Y-29174993D01*
X67360603Y-28808653D01*
X67303215Y-28446310D01*
X67303213Y-28446304D01*
X67208269Y-28091968D01*
X67208268Y-28091963D01*
X67076794Y-27749463D01*
X66910252Y-27422606D01*
X66710441Y-27114921D01*
X66679898Y-27077206D01*
X65453302Y-28303802D01*
X65438217Y-28272477D01*
X65286243Y-28049572D01*
X65102744Y-27851807D01*
X64891819Y-27683600D01*
X64744403Y-27598489D01*
X65972792Y-26370100D01*
X65972792Y-26370099D01*
X65935080Y-26339560D01*
X65935067Y-26339551D01*
X65881882Y-26305012D01*
X65854788Y-26265589D01*
X65863505Y-26218555D01*
X65902928Y-26191461D01*
X65907398Y-26190679D01*
X65943111Y-26185771D01*
X66075609Y-26128219D01*
X66187665Y-26037054D01*
X66270971Y-25919037D01*
X66319346Y-25782921D01*
X66329204Y-25638801D01*
X66299814Y-25497366D01*
X66233354Y-25369105D01*
X66134755Y-25263531D01*
X66134754Y-25263530D01*
X66011328Y-25188473D01*
X65872230Y-25149500D01*
X65872228Y-25149500D01*
X65764051Y-25149500D01*
X65764045Y-25149500D01*
X65656890Y-25164228D01*
X65524392Y-25221780D01*
X65524389Y-25221782D01*
X65468165Y-25267523D01*
X65422330Y-25281213D01*
X65389248Y-25264777D01*
X65388069Y-25266227D01*
X65384754Y-25263530D01*
X65261328Y-25188473D01*
X65122230Y-25149500D01*
X65122228Y-25149500D01*
X65014051Y-25149500D01*
X65014045Y-25149500D01*
X64906890Y-25164228D01*
X64851074Y-25188473D01*
X64774391Y-25221781D01*
X64774389Y-25221782D01*
X64774388Y-25221783D01*
X64689754Y-25290638D01*
X64643919Y-25304328D01*
X64604634Y-25284816D01*
X64584753Y-25263529D01*
X64461328Y-25188473D01*
X64322230Y-25149500D01*
X64322228Y-25149500D01*
X64214051Y-25149500D01*
X64214045Y-25149500D01*
X64106890Y-25164228D01*
X63974392Y-25221780D01*
X63974389Y-25221782D01*
X63918165Y-25267523D01*
X63872330Y-25281213D01*
X63839248Y-25264777D01*
X63838069Y-25266227D01*
X63834754Y-25263530D01*
X63711328Y-25188473D01*
X63572230Y-25149500D01*
X63572228Y-25149500D01*
X63464051Y-25149500D01*
X63464045Y-25149500D01*
X63356890Y-25164228D01*
X63224392Y-25221780D01*
X63224389Y-25221782D01*
X63168165Y-25267523D01*
X63122330Y-25281213D01*
X63089248Y-25264777D01*
X63088069Y-25266227D01*
X63084754Y-25263530D01*
X62961328Y-25188473D01*
X62822230Y-25149500D01*
X62822228Y-25149500D01*
X62714051Y-25149500D01*
X62714045Y-25149500D01*
X62606890Y-25164228D01*
X62474392Y-25221780D01*
X62474389Y-25221782D01*
X62418165Y-25267523D01*
X62372330Y-25281213D01*
X62339248Y-25264777D01*
X62338069Y-25266227D01*
X62334754Y-25263530D01*
X62211328Y-25188473D01*
X62072230Y-25149500D01*
X62072228Y-25149500D01*
X61964051Y-25149500D01*
X61964045Y-25149500D01*
X61856890Y-25164228D01*
X61801074Y-25188473D01*
X61724391Y-25221781D01*
X61724389Y-25221782D01*
X61724388Y-25221783D01*
X61612336Y-25312945D01*
X61612333Y-25312948D01*
X61529028Y-25430963D01*
X61480653Y-25567079D01*
X61470796Y-25711194D01*
X61470796Y-25711199D01*
X61500186Y-25852634D01*
X61500186Y-25852635D01*
X61566645Y-25980893D01*
X61566648Y-25980897D01*
X61665244Y-26086468D01*
X61665245Y-26086469D01*
X61788671Y-26161526D01*
X61865398Y-26183024D01*
X61903015Y-26212574D01*
X61908718Y-26260068D01*
X61882576Y-26295623D01*
X61814933Y-26339551D01*
X61814922Y-26339559D01*
X61777207Y-26370100D01*
X63005596Y-27598489D01*
X62858181Y-27683600D01*
X62647256Y-27851807D01*
X62463757Y-28049572D01*
X62311783Y-28272476D01*
X62296696Y-28303803D01*
X61070100Y-27077207D01*
X61039559Y-27114922D01*
X61039551Y-27114933D01*
X60839747Y-27422606D01*
X60673205Y-27749463D01*
X60541731Y-28091963D01*
X60541730Y-28091968D01*
X60446786Y-28446304D01*
X60446784Y-28446310D01*
X60389396Y-28808653D01*
X60370197Y-29174993D01*
X60370197Y-29175006D01*
X55362674Y-29175006D01*
X55364676Y-29161076D01*
X55366569Y-29152375D01*
X55375500Y-29121961D01*
X55375500Y-28978039D01*
X55375500Y-26263000D01*
X55393806Y-26218806D01*
X55438000Y-26200500D01*
X55535948Y-26200500D01*
X55535949Y-26200500D01*
X55643111Y-26185771D01*
X55775609Y-26128219D01*
X55831833Y-26082476D01*
X55877666Y-26068786D01*
X55910756Y-26085216D01*
X55911931Y-26083773D01*
X55915245Y-26086469D01*
X56038671Y-26161526D01*
X56125500Y-26185854D01*
X56177769Y-26200499D01*
X56177769Y-26200500D01*
X56177772Y-26200500D01*
X56285948Y-26200500D01*
X56285949Y-26200500D01*
X56393111Y-26185771D01*
X56525609Y-26128219D01*
X56581833Y-26082476D01*
X56627666Y-26068786D01*
X56660756Y-26085216D01*
X56661931Y-26083773D01*
X56665245Y-26086469D01*
X56788671Y-26161526D01*
X56875500Y-26185854D01*
X56927769Y-26200499D01*
X56927769Y-26200500D01*
X56927772Y-26200500D01*
X57035948Y-26200500D01*
X57035949Y-26200500D01*
X57143111Y-26185771D01*
X57275609Y-26128219D01*
X57331833Y-26082476D01*
X57377666Y-26068786D01*
X57410756Y-26085216D01*
X57411931Y-26083773D01*
X57415245Y-26086469D01*
X57538671Y-26161526D01*
X57625500Y-26185854D01*
X57677769Y-26200499D01*
X57677769Y-26200500D01*
X57677772Y-26200500D01*
X57785948Y-26200500D01*
X57785949Y-26200500D01*
X57893111Y-26185771D01*
X58025609Y-26128219D01*
X58110246Y-26059360D01*
X58156080Y-26045671D01*
X58195365Y-26065183D01*
X58215245Y-26086469D01*
X58215247Y-26086470D01*
X58338671Y-26161526D01*
X58425500Y-26185854D01*
X58477769Y-26200499D01*
X58477769Y-26200500D01*
X58477772Y-26200500D01*
X58585948Y-26200500D01*
X58585949Y-26200500D01*
X58693111Y-26185771D01*
X58825609Y-26128219D01*
X58881833Y-26082476D01*
X58927666Y-26068786D01*
X58960756Y-26085216D01*
X58961931Y-26083773D01*
X58965245Y-26086469D01*
X59088671Y-26161526D01*
X59175500Y-26185854D01*
X59227769Y-26200499D01*
X59227769Y-26200500D01*
X59227772Y-26200500D01*
X59335948Y-26200500D01*
X59335949Y-26200500D01*
X59443111Y-26185771D01*
X59575609Y-26128219D01*
X59687665Y-26037054D01*
X59770971Y-25919037D01*
X59819346Y-25782921D01*
X59829204Y-25638801D01*
X59799814Y-25497366D01*
X59733354Y-25369105D01*
X59634755Y-25263531D01*
X59634754Y-25263530D01*
X59511328Y-25188473D01*
X59372230Y-25149500D01*
X59372228Y-25149500D01*
X59264051Y-25149500D01*
X59264045Y-25149500D01*
X59156890Y-25164228D01*
X59024392Y-25221780D01*
X59024389Y-25221782D01*
X58968165Y-25267523D01*
X58922330Y-25281213D01*
X58889248Y-25264777D01*
X58888069Y-25266227D01*
X58884754Y-25263530D01*
X58761328Y-25188473D01*
X58622230Y-25149500D01*
X58622228Y-25149500D01*
X58514051Y-25149500D01*
X58514045Y-25149500D01*
X58406890Y-25164228D01*
X58351074Y-25188473D01*
X58274391Y-25221781D01*
X58274389Y-25221782D01*
X58274388Y-25221783D01*
X58189754Y-25290638D01*
X58143919Y-25304328D01*
X58104634Y-25284816D01*
X58084753Y-25263529D01*
X57961328Y-25188473D01*
X57822230Y-25149500D01*
X57822228Y-25149500D01*
X57714051Y-25149500D01*
X57714045Y-25149500D01*
X57606890Y-25164228D01*
X57474392Y-25221780D01*
X57474389Y-25221782D01*
X57418165Y-25267523D01*
X57372330Y-25281213D01*
X57339248Y-25264777D01*
X57338069Y-25266227D01*
X57334754Y-25263530D01*
X57211328Y-25188473D01*
X57072230Y-25149500D01*
X57072228Y-25149500D01*
X56964051Y-25149500D01*
X56964045Y-25149500D01*
X56856890Y-25164228D01*
X56724392Y-25221780D01*
X56724389Y-25221782D01*
X56668165Y-25267523D01*
X56622330Y-25281213D01*
X56589248Y-25264777D01*
X56588069Y-25266227D01*
X56584754Y-25263530D01*
X56461328Y-25188473D01*
X56322230Y-25149500D01*
X56322228Y-25149500D01*
X56214051Y-25149500D01*
X56214045Y-25149500D01*
X56106890Y-25164228D01*
X55974392Y-25221780D01*
X55974389Y-25221782D01*
X55918165Y-25267523D01*
X55872330Y-25281213D01*
X55839248Y-25264777D01*
X55838069Y-25266227D01*
X55834754Y-25263530D01*
X55711328Y-25188473D01*
X55572230Y-25149500D01*
X55572228Y-25149500D01*
X55464051Y-25149500D01*
X55464040Y-25149500D01*
X55446508Y-25151910D01*
X55400234Y-25139791D01*
X55376082Y-25098500D01*
X55375500Y-25089992D01*
X55375500Y-11175006D01*
X60370197Y-11175006D01*
X60389396Y-11541346D01*
X60446784Y-11903689D01*
X60446786Y-11903695D01*
X60541730Y-12258031D01*
X60541731Y-12258036D01*
X60673205Y-12600536D01*
X60839747Y-12927394D01*
X61039558Y-13235078D01*
X61070100Y-13272792D01*
X62296696Y-12046195D01*
X62311783Y-12077523D01*
X62463757Y-12300428D01*
X62647256Y-12498193D01*
X62858181Y-12666400D01*
X63005595Y-12751509D01*
X61777206Y-13979898D01*
X61777206Y-13979899D01*
X61814919Y-14010439D01*
X61814932Y-14010448D01*
X62122605Y-14210252D01*
X62449463Y-14376794D01*
X62791963Y-14508268D01*
X62791968Y-14508269D01*
X63146304Y-14603213D01*
X63146310Y-14603215D01*
X63508653Y-14660603D01*
X63874993Y-14679803D01*
X63875007Y-14679803D01*
X64241346Y-14660603D01*
X64603689Y-14603215D01*
X64603695Y-14603213D01*
X64958031Y-14508269D01*
X64958036Y-14508268D01*
X65300536Y-14376794D01*
X65627394Y-14210252D01*
X65935067Y-14010447D01*
X65935079Y-14010438D01*
X65972792Y-13979899D01*
X64744403Y-12751510D01*
X64891819Y-12666400D01*
X65102744Y-12498193D01*
X65286243Y-12300428D01*
X65438217Y-12077524D01*
X65453303Y-12046196D01*
X66679899Y-13272792D01*
X66710438Y-13235079D01*
X66710447Y-13235067D01*
X66910252Y-12927394D01*
X67076794Y-12600536D01*
X67208268Y-12258036D01*
X67208269Y-12258031D01*
X67303213Y-11903695D01*
X67303215Y-11903689D01*
X67360603Y-11541346D01*
X67379803Y-11175006D01*
X67379803Y-11174993D01*
X67360603Y-10808653D01*
X67303215Y-10446310D01*
X67303213Y-10446304D01*
X67208269Y-10091968D01*
X67208268Y-10091963D01*
X67076794Y-9749463D01*
X66910252Y-9422606D01*
X66710441Y-9114921D01*
X66679898Y-9077206D01*
X65453302Y-10303802D01*
X65438217Y-10272477D01*
X65286243Y-10049572D01*
X65102744Y-9851807D01*
X64891819Y-9683600D01*
X64744403Y-9598489D01*
X65972792Y-8370100D01*
X65972792Y-8370099D01*
X65935080Y-8339560D01*
X65935067Y-8339551D01*
X65881882Y-8305012D01*
X65854788Y-8265589D01*
X65863505Y-8218555D01*
X65902928Y-8191461D01*
X65907398Y-8190679D01*
X65943111Y-8185771D01*
X66075609Y-8128219D01*
X66187665Y-8037054D01*
X66270971Y-7919037D01*
X66319346Y-7782921D01*
X66329204Y-7638801D01*
X66299814Y-7497366D01*
X66233354Y-7369105D01*
X66134755Y-7263531D01*
X66134754Y-7263530D01*
X66011328Y-7188473D01*
X65872230Y-7149500D01*
X65872228Y-7149500D01*
X65764051Y-7149500D01*
X65764045Y-7149500D01*
X65656890Y-7164228D01*
X65524392Y-7221780D01*
X65524389Y-7221782D01*
X65468165Y-7267523D01*
X65422330Y-7281213D01*
X65389248Y-7264777D01*
X65388069Y-7266227D01*
X65384754Y-7263530D01*
X65261328Y-7188473D01*
X65122230Y-7149500D01*
X65122228Y-7149500D01*
X65014051Y-7149500D01*
X65014045Y-7149500D01*
X64906890Y-7164228D01*
X64851074Y-7188473D01*
X64774391Y-7221781D01*
X64774389Y-7221782D01*
X64774388Y-7221783D01*
X64689754Y-7290638D01*
X64643919Y-7304328D01*
X64604634Y-7284816D01*
X64584753Y-7263529D01*
X64461328Y-7188473D01*
X64322230Y-7149500D01*
X64322228Y-7149500D01*
X64214051Y-7149500D01*
X64214045Y-7149500D01*
X64106890Y-7164228D01*
X63974392Y-7221780D01*
X63974389Y-7221782D01*
X63918165Y-7267523D01*
X63872330Y-7281213D01*
X63839248Y-7264777D01*
X63838069Y-7266227D01*
X63834754Y-7263530D01*
X63711328Y-7188473D01*
X63572230Y-7149500D01*
X63572228Y-7149500D01*
X63464051Y-7149500D01*
X63464045Y-7149500D01*
X63356890Y-7164228D01*
X63224392Y-7221780D01*
X63224389Y-7221782D01*
X63168165Y-7267523D01*
X63122330Y-7281213D01*
X63089248Y-7264777D01*
X63088069Y-7266227D01*
X63084754Y-7263530D01*
X62961328Y-7188473D01*
X62822230Y-7149500D01*
X62822228Y-7149500D01*
X62714051Y-7149500D01*
X62714045Y-7149500D01*
X62606890Y-7164228D01*
X62474392Y-7221780D01*
X62474389Y-7221782D01*
X62418165Y-7267523D01*
X62372330Y-7281213D01*
X62339248Y-7264777D01*
X62338069Y-7266227D01*
X62334754Y-7263530D01*
X62211328Y-7188473D01*
X62072230Y-7149500D01*
X62072228Y-7149500D01*
X61964051Y-7149500D01*
X61964045Y-7149500D01*
X61856890Y-7164228D01*
X61801074Y-7188473D01*
X61724391Y-7221781D01*
X61724389Y-7221782D01*
X61724388Y-7221783D01*
X61612336Y-7312945D01*
X61612333Y-7312948D01*
X61529028Y-7430963D01*
X61480653Y-7567079D01*
X61470796Y-7711194D01*
X61470796Y-7711199D01*
X61500186Y-7852634D01*
X61500186Y-7852635D01*
X61566645Y-7980893D01*
X61566648Y-7980897D01*
X61665244Y-8086468D01*
X61665245Y-8086469D01*
X61788671Y-8161526D01*
X61865398Y-8183024D01*
X61903015Y-8212574D01*
X61908718Y-8260068D01*
X61882576Y-8295623D01*
X61814933Y-8339551D01*
X61814922Y-8339559D01*
X61777207Y-8370100D01*
X63005596Y-9598489D01*
X62858181Y-9683600D01*
X62647256Y-9851807D01*
X62463757Y-10049572D01*
X62311783Y-10272476D01*
X62296696Y-10303803D01*
X61070100Y-9077207D01*
X61039559Y-9114922D01*
X61039551Y-9114933D01*
X60839747Y-9422606D01*
X60673205Y-9749463D01*
X60541731Y-10091963D01*
X60541730Y-10091968D01*
X60446786Y-10446304D01*
X60446784Y-10446310D01*
X60389396Y-10808653D01*
X60370197Y-11174993D01*
X60370197Y-11175006D01*
X55375500Y-11175006D01*
X55375500Y-8263000D01*
X55393806Y-8218806D01*
X55438000Y-8200500D01*
X55535948Y-8200500D01*
X55535949Y-8200500D01*
X55643111Y-8185771D01*
X55775609Y-8128219D01*
X55831833Y-8082476D01*
X55877666Y-8068786D01*
X55910756Y-8085216D01*
X55911931Y-8083773D01*
X55915245Y-8086469D01*
X56038671Y-8161526D01*
X56125500Y-8185854D01*
X56177769Y-8200499D01*
X56177769Y-8200500D01*
X56177772Y-8200500D01*
X56285948Y-8200500D01*
X56285949Y-8200500D01*
X56393111Y-8185771D01*
X56525609Y-8128219D01*
X56581833Y-8082476D01*
X56627666Y-8068786D01*
X56660756Y-8085216D01*
X56661931Y-8083773D01*
X56665245Y-8086469D01*
X56788671Y-8161526D01*
X56875500Y-8185854D01*
X56927769Y-8200499D01*
X56927769Y-8200500D01*
X56927772Y-8200500D01*
X57035948Y-8200500D01*
X57035949Y-8200500D01*
X57143111Y-8185771D01*
X57275609Y-8128219D01*
X57331833Y-8082476D01*
X57377666Y-8068786D01*
X57410756Y-8085216D01*
X57411931Y-8083773D01*
X57415245Y-8086469D01*
X57538671Y-8161526D01*
X57625500Y-8185854D01*
X57677769Y-8200499D01*
X57677769Y-8200500D01*
X57677772Y-8200500D01*
X57785948Y-8200500D01*
X57785949Y-8200500D01*
X57893111Y-8185771D01*
X58025609Y-8128219D01*
X58110246Y-8059360D01*
X58156080Y-8045671D01*
X58195365Y-8065183D01*
X58215245Y-8086469D01*
X58215247Y-8086470D01*
X58338671Y-8161526D01*
X58425500Y-8185854D01*
X58477769Y-8200499D01*
X58477769Y-8200500D01*
X58477772Y-8200500D01*
X58585948Y-8200500D01*
X58585949Y-8200500D01*
X58693111Y-8185771D01*
X58825609Y-8128219D01*
X58881833Y-8082476D01*
X58927666Y-8068786D01*
X58960756Y-8085216D01*
X58961931Y-8083773D01*
X58965245Y-8086469D01*
X59088671Y-8161526D01*
X59175500Y-8185854D01*
X59227769Y-8200499D01*
X59227769Y-8200500D01*
X59227772Y-8200500D01*
X59335948Y-8200500D01*
X59335949Y-8200500D01*
X59443111Y-8185771D01*
X59575609Y-8128219D01*
X59687665Y-8037054D01*
X59770971Y-7919037D01*
X59819346Y-7782921D01*
X59829204Y-7638801D01*
X59799814Y-7497366D01*
X59733354Y-7369105D01*
X59634755Y-7263531D01*
X59634754Y-7263530D01*
X59511328Y-7188473D01*
X59372230Y-7149500D01*
X59372228Y-7149500D01*
X59264051Y-7149500D01*
X59264045Y-7149500D01*
X59156890Y-7164228D01*
X59024392Y-7221780D01*
X59024389Y-7221782D01*
X58968165Y-7267523D01*
X58922330Y-7281213D01*
X58889248Y-7264777D01*
X58888069Y-7266227D01*
X58884754Y-7263530D01*
X58761328Y-7188473D01*
X58622230Y-7149500D01*
X58622228Y-7149500D01*
X58514051Y-7149500D01*
X58514045Y-7149500D01*
X58406890Y-7164228D01*
X58351074Y-7188473D01*
X58274391Y-7221781D01*
X58274389Y-7221782D01*
X58274388Y-7221783D01*
X58189754Y-7290638D01*
X58143919Y-7304328D01*
X58104634Y-7284816D01*
X58084753Y-7263529D01*
X57961328Y-7188473D01*
X57822230Y-7149500D01*
X57822228Y-7149500D01*
X57714051Y-7149500D01*
X57714045Y-7149500D01*
X57606890Y-7164228D01*
X57474392Y-7221780D01*
X57474389Y-7221782D01*
X57418165Y-7267523D01*
X57372330Y-7281213D01*
X57339248Y-7264777D01*
X57338069Y-7266227D01*
X57334754Y-7263530D01*
X57211328Y-7188473D01*
X57072230Y-7149500D01*
X57072228Y-7149500D01*
X56964051Y-7149500D01*
X56964045Y-7149500D01*
X56856890Y-7164228D01*
X56724392Y-7221780D01*
X56724389Y-7221782D01*
X56668165Y-7267523D01*
X56622330Y-7281213D01*
X56589248Y-7264777D01*
X56588069Y-7266227D01*
X56584754Y-7263530D01*
X56461328Y-7188473D01*
X56322230Y-7149500D01*
X56322228Y-7149500D01*
X56214051Y-7149500D01*
X56214045Y-7149500D01*
X56106890Y-7164228D01*
X55974392Y-7221780D01*
X55974389Y-7221782D01*
X55918165Y-7267523D01*
X55872330Y-7281213D01*
X55839248Y-7264777D01*
X55838069Y-7266227D01*
X55834754Y-7263530D01*
X55711328Y-7188473D01*
X55572230Y-7149500D01*
X55572228Y-7149500D01*
X55464051Y-7149500D01*
X55464040Y-7149500D01*
X55446508Y-7151910D01*
X55400234Y-7139791D01*
X55376082Y-7098500D01*
X55375500Y-7089992D01*
X55375500Y896960D01*
X55375500Y896961D01*
X55366569Y927375D01*
X55364676Y936080D01*
X55360165Y967453D01*
X55360165Y967457D01*
X55346996Y996289D01*
X55343884Y1004631D01*
X55334953Y1035053D01*
X55322298Y1054743D01*
X55313804Y1101815D01*
X55323814Y1124573D01*
X55345971Y1155963D01*
X55394346Y1292079D01*
X55404204Y1436199D01*
X55374814Y1577634D01*
X55308354Y1705895D01*
X55284052Y1731914D01*
X55267265Y1776707D01*
X55278669Y1810618D01*
X55345971Y1905963D01*
X55394346Y2042079D01*
X55404204Y2186199D01*
X55404203Y2186202D01*
X55389300Y2257921D01*
X55374814Y2327634D01*
X55308354Y2455895D01*
X55263686Y2503722D01*
X55246900Y2548513D01*
X55261425Y2583589D01*
X55260200Y2584454D01*
X55345971Y2705963D01*
X55394346Y2842079D01*
X55404204Y2986199D01*
X55404203Y2986202D01*
X55389300Y3057921D01*
X55374814Y3127634D01*
X55308354Y3255895D01*
X55284052Y3281914D01*
X55267265Y3326707D01*
X55278669Y3360618D01*
X55345971Y3455963D01*
X55394346Y3592079D01*
X55404204Y3736199D01*
X55404203Y3736202D01*
X55389300Y3807921D01*
X55374814Y3877634D01*
X55308354Y4005895D01*
X55284052Y4031914D01*
X55267265Y4076707D01*
X55278669Y4110618D01*
X55345971Y4205963D01*
X55394346Y4342079D01*
X55404204Y4486199D01*
X55404203Y4486202D01*
X55389300Y4557921D01*
X55374814Y4627634D01*
X55308354Y4755895D01*
X55284052Y4781914D01*
X55267265Y4826707D01*
X55278669Y4860618D01*
X55345971Y4955963D01*
X55394346Y5092079D01*
X55404204Y5236199D01*
X55404203Y5236202D01*
X55401485Y5249284D01*
X55374814Y5377634D01*
X55308354Y5505895D01*
X55308352Y5505896D01*
X55307017Y5508474D01*
X55302938Y5556135D01*
X55305659Y5563193D01*
X55313542Y5580453D01*
X55317814Y5588277D01*
X55325741Y5600612D01*
X55334953Y5614947D01*
X55337919Y5625049D01*
X55343882Y5645356D01*
X55346998Y5653712D01*
X55360165Y5682543D01*
X55364676Y5713919D01*
X55366571Y5722628D01*
X55375500Y5753039D01*
X55375500Y5896961D01*
X55375500Y8262000D01*
X55393806Y8306194D01*
X55438000Y8324500D01*
X59946961Y8324500D01*
X59977371Y8333428D01*
X59986079Y8335322D01*
X60017453Y8339834D01*
X60017460Y8339836D01*
X60032822Y8346851D01*
X60046289Y8353002D01*
X60054641Y8356117D01*
X60085052Y8365046D01*
X60111720Y8382184D01*
X60119544Y8386456D01*
X60148366Y8399619D01*
X60148375Y8399624D01*
X60172320Y8420373D01*
X60179457Y8425716D01*
X60206128Y8442857D01*
X60206130Y8442859D01*
X60226883Y8466809D01*
X60233182Y8473109D01*
X60257143Y8493872D01*
X60272874Y8518350D01*
X60312165Y8545632D01*
X60359241Y8537140D01*
X60386523Y8497848D01*
X60387866Y8487834D01*
X60389396Y8458652D01*
X60446784Y8096310D01*
X60446786Y8096304D01*
X60541730Y7741968D01*
X60541731Y7741963D01*
X60673205Y7399463D01*
X60839747Y7072605D01*
X61039551Y6764933D01*
X61039559Y6764922D01*
X61070100Y6727207D01*
X62296696Y7953803D01*
X62311783Y7922477D01*
X62463757Y7699572D01*
X62647256Y7501807D01*
X62858181Y7333600D01*
X63005596Y7248489D01*
X61777207Y6020100D01*
X61814922Y5989559D01*
X61814933Y5989551D01*
X62122605Y5789747D01*
X62449463Y5623205D01*
X62791963Y5491731D01*
X62791968Y5491730D01*
X63146304Y5396786D01*
X63146310Y5396784D01*
X63508653Y5339396D01*
X63874993Y5320197D01*
X63875007Y5320197D01*
X64241346Y5339396D01*
X64603689Y5396784D01*
X64603695Y5396786D01*
X64958031Y5491730D01*
X64958036Y5491731D01*
X65300536Y5623205D01*
X65627394Y5789747D01*
X65935078Y5989558D01*
X65972792Y6020099D01*
X65972792Y6020100D01*
X64744403Y7248489D01*
X64891819Y7333600D01*
X65102744Y7501807D01*
X65286243Y7699572D01*
X65438217Y7922476D01*
X65453302Y7953801D01*
X66679898Y6727206D01*
X66679899Y6727206D01*
X66710439Y6764919D01*
X66710448Y6764932D01*
X66910252Y7072605D01*
X67076794Y7399463D01*
X67208268Y7741963D01*
X67208269Y7741968D01*
X67303213Y8096304D01*
X67303215Y8096310D01*
X67360603Y8458653D01*
X67362132Y8487829D01*
X67382724Y8531005D01*
X67427815Y8546974D01*
X67470991Y8526382D01*
G37*
%TD.AperFunction*%
%TD*%
M02*
